<?xml version="1.0" encoding="UTF-8"?>
<svg version="1.1" xmlns="http://www.w3.org/2000/svg" width="1024" height="500">
<path d="M0 0 C337.92 0 675.84 0 1024 0 C1024 165 1024 330 1024 500 C686.08 500 348.16 500 0 500 C0 335 0 170 0 0 Z " fill="#1A1A1A" transform="translate(0,0)"/>
<path d="M0 0 C1.74162415 -0.00422974 1.74162415 -0.00422974 3.51843262 -0.00854492 C5.44628601 -0.00550858 5.44628601 -0.00550858 7.41308594 -0.00241089 C8.77120002 -0.00376491 10.12931374 -0.00554485 11.48742676 -0.00772095 C15.18567295 -0.01229513 18.88389136 -0.01050579 22.58213806 -0.00734186 C26.44408241 -0.00481818 30.30602431 -0.00715582 34.16796875 -0.00872803 C40.65462676 -0.0105497 47.1412734 -0.00814348 53.62792969 -0.00338745 C61.13796016 0.00205517 68.6479635 0.00029251 76.15799332 -0.00521386 C82.59449624 -0.00974505 89.03099096 -0.0103955 95.46749496 -0.00777519 C99.3167541 -0.00621245 103.16600046 -0.00601856 107.01525879 -0.00931168 C110.63326799 -0.01219049 114.25124205 -0.01021452 117.86924744 -0.00441742 C119.83832755 -0.00245427 121.80741061 -0.00544365 123.77648926 -0.00854492 C124.93757202 -0.0057251 126.09865479 -0.00290527 127.29492188 0 C128.81808014 0.00056554 128.81808014 0.00056554 130.37200928 0.0011425 C132.64746094 0.12698364 132.64746094 0.12698364 133.64746094 1.12698364 C133.64746094 12.67698364 133.64746094 24.22698364 133.64746094 36.12698364 C101.30746094 36.12698364 68.96746094 36.12698364 35.64746094 36.12698364 C35.64746094 51.63698364 35.64746094 67.14698364 35.64746094 83.12698364 C41.69960938 83.11538208 47.75175781 83.10378052 53.98730469 83.09182739 C57.81087346 83.08672066 61.63443806 83.08190689 65.45800781 83.07815552 C71.53313058 83.07216697 77.60823834 83.06506636 83.68334961 83.05154419 C88.57866646 83.04071566 93.47396723 83.03470688 98.36929512 83.0321064 C100.24129044 83.03025209 102.11328484 83.02663136 103.98527336 83.02125359 C106.59786793 83.0140436 109.2103952 83.01299268 111.82299805 83.01345825 C112.60486481 83.00986298 113.38673157 83.0062677 114.19229126 83.00256348 C119.53340878 83.01293148 119.53340878 83.01293148 120.64746094 84.12698364 C120.64746094 95.34698364 120.64746094 106.56698364 120.64746094 118.12698364 C79.06746094 118.62198364 79.06746094 118.62198364 36.64746094 119.12698364 C36.586875 125.25131958 36.52628906 131.37565552 36.46386719 137.68557739 C36.42339445 141.55472543 36.38263229 145.42386604 36.34082031 149.29299927 C36.27441467 155.4405166 36.20910803 161.58803239 36.15014648 167.73562622 C36.10256854 172.68934826 36.05022838 177.64299876 35.99452019 182.59663582 C35.97406676 184.49093925 35.95535874 186.38526232 35.93838692 188.27960014 C35.91440878 190.92338065 35.88434564 193.56702462 35.8527832 196.21072388 C35.84702774 197.00194138 35.84127228 197.79315887 35.83534241 198.60835266 C35.7615131 204.01293148 35.7615131 204.01293148 34.64746094 205.12698364 C31.70210523 205.22808717 28.78068534 205.26667644 25.83496094 205.25979614 C24.50887817 205.26123123 24.50887817 205.26123123 23.15600586 205.26269531 C21.28303964 205.26337716 19.41007108 205.26152257 17.53710938 205.25735474 C14.65977706 205.25200654 11.78260086 205.25729958 8.90527344 205.26370239 C7.09016892 205.26304161 5.27506451 205.26176045 3.45996094 205.25979614 C2.59330811 205.26182037 1.72665527 205.2638446 0.83374023 205.26593018 C-5.23758897 205.24193374 -5.23758897 205.24193374 -6.35253906 204.12698364 C-6.45255682 201.51165047 -6.48694418 198.92265842 -6.47952271 196.30679321 C-6.4810827 195.47768322 -6.48264269 194.64857324 -6.48424995 193.7943387 C-6.48826348 190.99439539 -6.48506895 188.19450556 -6.48193359 185.39456177 C-6.48328748 183.39606189 -6.48506734 181.39756226 -6.48724365 179.39906311 C-6.49181951 173.95500774 -6.4900278 168.51097123 -6.48686457 163.06691551 C-6.48434175 157.38320233 -6.48667828 151.69949083 -6.48825073 146.01577759 C-6.49007266 136.46902169 -6.48766552 126.92227352 -6.48291016 117.3755188 C-6.47746749 106.32093897 -6.47923013 95.26637758 -6.48473656 84.21179819 C-6.48926704 74.73922775 -6.48991856 65.26666288 -6.48729789 55.7940917 C-6.48573476 50.12836498 -6.48554235 44.46264695 -6.48883438 38.79692078 C-6.49171215 33.47170201 -6.48973915 28.14650714 -6.48394012 22.82129097 C-6.48261202 20.86084088 -6.48300749 18.90038881 -6.48520279 16.9399395 C-6.48791232 14.27565673 -6.48453561 11.61145181 -6.47952271 8.94717407 C-6.48175343 8.16090653 -6.48398415 7.37463899 -6.48628247 6.56454515 C-6.46313211 0.27478218 -6.20133635 0.00230251 0 0 Z " fill="#F84444" transform="translate(214.3525390625,118.87301635742188)"/>
<path d="M0 0 C0.82290527 0.00202423 1.64581055 0.00404846 2.49365234 0.00613403 C3.33331543 0.00517731 4.17297852 0.00422058 5.03808594 0.00323486 C6.81689529 0.00255306 8.59570712 0.00440737 10.37451172 0.00857544 C13.10699011 0.01392371 15.83930411 0.00863048 18.57177734 0.00222778 C20.29573604 0.00288856 22.01969464 0.00416973 23.74365234 0.00613403 C24.56655762 0.0041098 25.38946289 0.00208557 26.23730469 0 C32.0037018 0.02399599 32.0037018 0.02399599 33.11865234 1.13894653 C33.22607005 2.5045642 33.26544222 3.87561896 33.27687073 5.2454071 C33.28665955 6.13026794 33.29644836 7.01512878 33.30653381 7.92680359 C33.31516701 9.39415199 33.31516701 9.39415199 33.32397461 10.8911438 C33.33387421 11.91541473 33.3437738 12.93968567 33.35397339 13.99499512 C33.38569405 17.39842374 33.41038742 20.80186634 33.43505859 24.20535278 C33.45561901 26.55805332 33.47661522 28.91075009 33.49803162 31.26344299 C33.55334658 37.4694718 33.60271416 43.67553445 33.65087891 49.88162231 C33.7010253 56.20896432 33.75674709 62.5362569 33.81201172 68.86355591 C33.9197085 81.28864393 34.02112771 93.7137748 34.11865234 106.13894653 C36.21160881 103.88941775 38.30397145 101.63934162 40.39599609 99.38894653 C41.28127991 98.43761841 41.28127991 98.43761841 42.18444824 97.46707153 C47.1842018 92.08730168 52.02889727 86.60010401 56.78271484 81.00222778 C57.27956787 80.418927 57.7764209 79.83562622 58.28833008 79.23464966 C59.24621223 78.10928835 60.20177492 76.98194479 61.15405273 75.85183716 C62.15114487 74.67963836 63.17268717 73.52802485 64.2109375 72.39212036 C66.27615364 70.04007176 66.27615364 70.04007176 68.33496094 66.81350708 C71.66145675 62.14688303 74.93742112 57.98147428 80.67269897 56.46252441 C87.89611256 55.51974819 95.11729036 55.95276004 102.36865234 56.32644653 C104.57811686 56.39175489 106.78776764 56.45105307 108.99755859 56.50418091 C114.37536541 56.64645161 119.74612911 56.86306359 125.11865234 57.13894653 C123.5926182 60.35524794 122.02064463 62.42663952 119.43115234 64.88894653 C116.69710051 67.54910507 114.09978018 70.24144552 111.61865234 73.13894653 C108.60223311 76.64896164 105.38770102 79.8894593 102.09130859 83.13504028 C99.55292819 85.71363266 97.21215068 88.43686916 94.85693359 91.18191528 C92.52269529 93.80990043 90.03100939 96.25483548 87.50146484 98.69363403 C86.0101075 100.1100443 86.0101075 100.1100443 85.11865234 102.13894653 C84.45865234 102.13894653 83.79865234 102.13894653 83.11865234 102.13894653 C82.74740234 103.00519653 82.74740234 103.00519653 82.36865234 103.88894653 C80.95181918 106.43924623 79.24237697 108.15680355 77.11865234 110.13894653 C78.65614217 114.30428887 80.67509628 118.10471865 82.86865234 121.95144653 C83.25641846 122.63666382 83.64418457 123.3218811 84.04370117 124.02786255 C88.16028419 131.27136616 92.38750511 138.45049954 96.60083008 145.63796997 C100.96802512 153.1098809 105.22274173 160.63912782 109.43115234 168.20144653 C113.90398285 176.23868946 118.45891069 184.2021713 123.25146484 192.05300903 C123.86763672 193.07136841 124.48380859 194.08972778 125.11865234 195.13894653 C125.67697754 196.05111938 125.67697754 196.05111938 126.24658203 196.98171997 C129.11865234 201.79703155 129.11865234 201.79703155 129.11865234 205.13894653 C123.40818491 205.41185504 117.70154111 205.61088119 111.98608398 205.74319458 C110.04465616 205.79835889 108.10368229 205.87331832 106.16381836 205.96878052 C90.13300662 206.73763453 90.13300662 206.73763453 85.45898438 203.02810669 C83.59209692 200.13964692 82.35224252 197.34537485 81.11865234 194.13894653 C80.12597229 192.30602044 79.11049799 190.48524204 78.07177734 188.67800903 C77.08380558 186.83357697 76.0994624 184.98719692 75.11865234 183.13894653 C74.09344442 181.22964445 73.0673892 179.32079711 72.04052734 177.41238403 C71.52385498 176.45098511 71.00718262 175.48958618 70.47485352 174.49905396 C65.51720297 165.28531429 60.50158631 156.1396664 55.01416016 147.228302 C52.11865234 142.45301984 52.11865234 142.45301984 52.11865234 139.13894653 C51.12865234 139.13894653 50.13865234 139.13894653 49.11865234 139.13894653 C48.92368164 139.69163208 48.72871094 140.24431763 48.52783203 140.81375122 C46.8974173 143.50399203 44.84179192 144.94680897 42.38201904 146.8522644 C37.22019233 151.10038565 33.93426727 154.91197288 32.97607422 161.67996216 C32.49803381 168.08734942 32.66934083 174.47319382 32.86865234 180.88894653 C32.8942638 183.13367706 32.91384506 185.3784849 32.92724609 187.62332153 C32.94692057 190.76373414 32.97569768 193.90114432 33.05096436 197.04074097 C33.07297913 197.95970154 33.0949939 198.87866211 33.11767578 199.82546997 C33.14134216 200.63675354 33.16500854 201.44803711 33.18939209 202.28390503 C33.11865234 204.13894653 33.11865234 204.13894653 32.11865234 205.13894653 C29.31871637 205.23997908 26.54396591 205.27864741 23.74365234 205.27175903 C22.90398926 205.27271576 22.06432617 205.27367249 21.19921875 205.2746582 C19.4204094 205.27534001 17.64159757 205.2734857 15.86279297 205.26931763 C13.13031458 205.26396936 10.39800058 205.26926259 7.66552734 205.27566528 C5.94156865 205.2750045 4.21761005 205.27372334 2.49365234 205.27175903 C1.67074707 205.27378326 0.8478418 205.2758075 0 205.27789307 C-5.76639711 205.25389708 -5.76639711 205.25389708 -6.88134766 204.13894653 C-6.98136541 201.52361336 -7.01575278 198.93462131 -7.0083313 196.3187561 C-7.00989129 195.48964612 -7.01145128 194.66053613 -7.01305854 193.80630159 C-7.01707207 191.00635828 -7.01387754 188.20646845 -7.01074219 185.40652466 C-7.01209607 183.40802478 -7.01387593 181.40952515 -7.01605225 179.411026 C-7.02062811 173.96697063 -7.01883639 168.52293412 -7.01567316 163.0788784 C-7.01315034 157.39516522 -7.01548688 151.71145372 -7.01705933 146.02774048 C-7.01888125 136.48098458 -7.01647411 126.93423641 -7.01171875 117.38748169 C-7.00627609 106.33290186 -7.00803873 95.27834047 -7.01354516 84.22376108 C-7.01807563 74.75119064 -7.01872716 65.27862577 -7.01610649 55.80605459 C-7.01454335 50.14032787 -7.01435094 44.47460984 -7.01764297 38.80888367 C-7.02052074 33.4836649 -7.01854774 28.15847003 -7.01274872 22.83325386 C-7.01142061 20.87280377 -7.01181609 18.9123517 -7.01401138 16.95190239 C-7.01672091 14.28761962 -7.0133442 11.6234147 -7.0083313 8.95913696 C-7.01056202 8.17286942 -7.01279274 7.38660188 -7.01509106 6.57650805 C-6.99088838 0.00083814 -6.53883614 0.02721038 0 0 Z " fill="#F84444" transform="translate(703.88134765625,118.86105346679688)"/>
<path d="M0 0 C4.12589075 -0.07477218 8.25151308 -0.12889223 12.37792969 -0.16479492 C13.77839031 -0.17977914 15.17880483 -0.20017379 16.57910156 -0.22631836 C24.29904662 -0.36673105 30.91512484 -0.3717177 38 3 C39.11375 3.28875 40.2275 3.5775 41.375 3.875 C56.28522165 8.50231017 67.45931144 18.42258293 75 32 C75.77878084 33.81281426 76.50843271 35.64752524 77.1875 37.5 C77.53167969 38.4178125 77.87585938 39.335625 78.23046875 40.28125 C79.00375178 43.01325501 79.0581691 45.18189917 79 48 C74.71446631 48.71929322 70.4277733 49.43109738 66.13989258 50.13623047 C64.68382919 50.37672869 63.22809152 50.61920815 61.77270508 50.86376953 C59.67092762 51.21658589 57.56805041 51.56206875 55.46484375 51.90625 C54.202771 52.11572266 52.94069824 52.32519531 51.64038086 52.54101562 C48.05026942 52.99366196 44.61413196 53.08144523 41 53 C40.5978125 51.453125 40.5978125 51.453125 40.1875 49.875 C37.83737521 41.96714768 34.2175391 37.17857527 27 33 C18.28128184 30.92915736 8.47818728 31.07117167 0 34 C-2.30166675 35.51553153 -2.30166675 35.51553153 -4 37 C-4.66 37 -5.32 37 -6 37 C-6 37.66 -6 38.32 -6 39 C-6.66 39 -7.32 39 -8 39 C-8.2475 39.66 -8.495 40.32 -8.75 41 C-9.99838866 43.99613278 -11.47945436 46.73792078 -13.09765625 49.546875 C-16.11091929 57.73877626 -15.27664855 67.5200126 -15.3125 76.125 C-15.31644775 76.81365143 -15.32039551 77.50230286 -15.32446289 78.21182251 C-15.3490159 87.36835919 -14.9009329 95.72891838 -11.875 104.41796875 C-11 107 -11 107 -11 111 C-10.34 111 -9.68 111 -9 111 C-7.921875 112.42578125 -7.921875 112.42578125 -6.75 114.3125 C-4.35050356 117.85086192 -2.02605231 119.4083049 2 121 C2 121.66 2 122.32 2 123 C5.3289942 123.39664612 8.6600276 123.71096393 12 124 C12.8146875 124.09152344 13.629375 124.18304688 14.46875 124.27734375 C22.00288888 124.77880429 27.7849016 122.13726965 34 118 C39.30443612 113.28233779 40.42981103 106.66269375 42 100 C42.495 98.515 42.495 98.515 43 97 C45.97 97 48.94 97 52 97 C52 97.66 52 98.32 52 99 C53.26714844 98.9690625 54.53429687 98.938125 55.83984375 98.90625 C61.18005449 98.90625 66.30143863 99.64309932 71.5625 100.5 C72.47580078 100.64308594 73.38910156 100.78617187 74.33007812 100.93359375 C76.55442736 101.28296798 78.7775921 101.63851822 81 102 C82.36882909 106.10648726 80.88523532 108.77301676 79.375 112.625 C79.09430664 113.34776123 78.81361328 114.07052246 78.52441406 114.81518555 C72.13108422 130.96360464 62.2854773 141.85726135 46.625 149.6875 C45.42875 150.120625 44.2325 150.55375 43 151 C42.13544189 151.32742188 41.27088379 151.65484375 40.38012695 151.9921875 C31.31048454 155.14459473 23.01104561 155.50995835 13.5625 155.3125 C12.13087251 155.30096902 10.69922975 155.29119571 9.26757812 155.28320312 C3.41773914 155.22635177 -2.23362871 155.09507596 -8 154 C-8 153.34 -8 152.68 -8 152 C-9.98 152 -11.96 152 -14 152 C-14 151.34 -14 150.68 -14 150 C-14.70125 150.0825 -15.4025 150.165 -16.125 150.25 C-19.23200678 149.9798255 -20.77993178 149.08504994 -23.265625 147.265625 C-25.28779394 145.78998821 -27.38933405 144.47072662 -29.5 143.125 C-33.52731958 140.44012028 -36.78817298 137.62359972 -40 134 C-40 133.34 -40 132.68 -40 132 C-40.99 131.67 -41.98 131.34 -43 131 C-44.24609375 129.14453125 -44.24609375 129.14453125 -45.4375 126.8125 C-46.90342378 124.00870001 -48.31430791 121.56894916 -50.1875 119 C-52.16926494 115.71983733 -52.80198903 113.0761165 -53.5 109.35546875 C-54.14948473 106.29578678 -55.19940543 103.44818479 -56.31640625 100.53125 C-62.16907546 78.85965202 -58.89802139 51.88286448 -48.03125 32.390625 C-45.57935243 28.29784213 -43.14317437 24.59219928 -40 21 C-39.34 21 -38.68 21 -38 21 C-38 20.34 -38 19.68 -38 19 C-36.01493486 17.28657535 -34.02995851 15.69720869 -31.9375 14.125 C-31.37611328 13.69058594 -30.81472656 13.25617188 -30.23632812 12.80859375 C-20.81906332 5.64070991 -11.97632904 1.42969862 0 2 C0 1.34 0 0.68 0 0 Z " fill="#F74444" transform="translate(589,172)"/>
<path d="M0 0 C12.87 0 25.74 0 39 0 C39 67.65 39 135.3 39 205 C26.13 205 13.26 205 0 205 C-1.76171315 203.23828685 -1.12510466 200.90951413 -1.13374341 198.56243849 C-1.13151268 197.77617095 -1.12928196 196.9899034 -1.12698364 196.17980957 C-1.12854363 195.35069958 -1.13010362 194.52158959 -1.13171089 193.66735506 C-1.13572442 190.86741175 -1.13252989 188.06752191 -1.12939453 185.26757812 C-1.13074842 183.26907825 -1.13252827 181.27057862 -1.13470459 179.27207947 C-1.13928045 173.8280241 -1.13748874 168.38398759 -1.1343255 162.93993187 C-1.13180269 157.25621869 -1.13413922 151.57250718 -1.13571167 145.88879395 C-1.1375336 136.34203805 -1.13512645 126.79528988 -1.13037109 117.24853516 C-1.12492843 106.19395532 -1.12669107 95.13939393 -1.1321975 84.08481455 C-1.13672798 74.61224411 -1.1373795 65.13967923 -1.13475883 55.66710806 C-1.13319569 50.00138134 -1.13300328 44.3356633 -1.13629532 38.66993713 C-1.13917309 33.34471837 -1.13720009 28.0195235 -1.13140106 22.69430733 C-1.13007295 20.73385724 -1.13046843 18.77340516 -1.13266373 16.81295586 C-1.13537325 14.14867309 -1.13199655 11.48446816 -1.12698364 8.82019043 C-1.12921436 8.03392289 -1.13144509 7.24765534 -1.13374341 6.43756151 C-1.11414984 1.11414984 -1.11414984 1.11414984 0 0 Z " fill="#F84444" transform="translate(382,119)"/>
<path d="M0 0 C13.53 0 27.06 0 41 0 C41.02254596 19.14914953 41.04097855 38.29828836 41.05181217 57.44744778 C41.0569754 66.33809826 41.0640186 75.22873994 41.07543945 84.11938477 C41.08538548 91.86561227 41.09185323 99.61183339 41.09408849 107.3580671 C41.09539574 111.46220919 41.09848247 115.56633302 41.10573006 119.67046928 C41.11248899 123.5289464 41.11461722 127.38739765 41.11310768 131.24588013 C41.11338407 132.6661245 41.11538995 134.08636969 41.11920547 135.50660896 C41.12414067 137.4374187 41.12239803 139.36824215 41.12025452 141.29905701 C41.12117631 142.38216376 41.1220981 143.46527052 41.12304783 144.58119869 C41 147 41 147 40 148 C37.12735944 148.10106874 34.27926372 148.13969672 31.40625 148.1328125 C30.54439087 148.13376923 29.68253174 148.13472595 28.79455566 148.13571167 C26.96866788 148.1363935 25.14277769 148.13453904 23.31689453 148.13037109 C20.51198922 148.12502286 17.70724405 148.13031599 14.90234375 148.13671875 C13.13281214 148.13605797 11.36328064 148.13477681 9.59375 148.1328125 C8.74897095 148.13483673 7.90419189 148.13686096 7.03381348 148.13894653 C1.11495031 148.11495031 1.11495031 148.11495031 0 147 C-0.0965683 145.10171764 -0.12187216 143.19979337 -0.12025452 141.29905701 C-0.12162918 140.0608017 -0.12300385 138.82254639 -0.12442017 137.54676819 C-0.12088056 136.16195655 -0.11724574 134.77714515 -0.11352539 133.39233398 C-0.11324352 131.94392906 -0.11340124 130.49552399 -0.1139679 129.04711914 C-0.11425589 125.10307686 -0.1083588 121.15906473 -0.10139394 117.21502948 C-0.09516078 113.09770531 -0.09455663 108.98038052 -0.09336853 104.86305237 C-0.0902551 97.06094138 -0.08204156 89.25884433 -0.07201904 81.45673949 C-0.06085826 72.57659696 -0.05534754 63.69645378 -0.05032361 54.81630599 C-0.03985895 36.54419448 -0.02151333 18.27210208 0 0 Z " fill="#F54444" transform="translate(460,176)"/>
<path d="M0 0 C0.84477905 0.00202423 1.68955811 0.00404846 2.55993652 0.00613403 C3.42179565 0.00517731 4.28365479 0.00422058 5.17163086 0.00323486 C6.99751864 0.00255304 8.82340884 0.00440749 10.64929199 0.00857544 C13.45419731 0.01392367 16.25894248 0.00863054 19.06384277 0.00222778 C20.83337438 0.00288856 22.60290588 0.00416973 24.37243652 0.00613403 C25.21721558 0.0041098 26.06199463 0.00208557 26.93237305 0 C32.85123621 0.02399622 32.85123621 0.02399622 33.96618652 1.13894653 C34.05470181 3.73253975 34.08144597 6.29934345 34.06384277 8.89285278 C34.06242783 9.66829941 34.06101288 10.44374603 34.05955505 11.24269104 C34.05393998 13.72898148 34.04138499 16.21518314 34.02868652 18.70144653 C34.02367346 20.38308586 34.01911022 22.0647266 34.01501465 23.74636841 C34.00396565 27.87726219 33.98669097 32.00808929 33.96618652 36.13894653 C28.28788574 36.16359358 22.60961583 36.18178115 16.93127441 36.19387817 C14.99800067 36.19891909 13.06473076 36.20575172 11.13146973 36.21438599 C8.35891781 36.22646218 5.58641611 36.2321771 2.81384277 36.23660278 C1.50915794 36.24434471 1.50915794 36.24434471 0.17811584 36.25224304 C-1.89287162 36.25243839 -3.96375672 36.20102821 -6.03381348 36.13894653 C-7.76674327 34.40601674 -7.16201394 32.17680317 -7.17276001 29.86746216 C-7.17073578 29.132052 -7.16871155 28.39664185 -7.16662598 27.63894653 C-7.1675827 26.88806763 -7.16853943 26.13718872 -7.16952515 25.36355591 C-7.17020686 23.77306027 -7.16835319 22.18256186 -7.16418457 20.59207153 C-7.15883615 18.14929999 -7.16412982 15.70671232 -7.17053223 13.26394653 C-7.16987144 11.72227946 -7.16859028 10.1806125 -7.16662598 8.63894653 C-7.16865021 7.90353638 -7.17067444 7.16812622 -7.17276001 6.41043091 C-7.14217209 -0.16294283 -6.49681968 0.02633937 0 0 Z " fill="#F14444" transform="translate(467.0338134765625,118.86105346679688)"/>
<path d="M0 0 C4.06159325 2.10601131 6.29885595 3.77524994 8 8 C8.4306966 11.09413887 8.37021646 14.19124043 8.375 17.3125 C8.39949219 18.14201172 8.42398438 18.97152344 8.44921875 19.82617188 C8.4772029 25.73549217 7.3934261 29.14498588 4 34 C1.04990627 36.42329128 -2.2776367 36.42436396 -6.0390625 36.3125 C-9.27136709 35.7973917 -10.81850075 34.3684849 -13 32 C-15.84702848 27.32618569 -16.46588327 23.37221081 -16.375 18 C-16.38660156 17.31421875 -16.39820313 16.6284375 -16.41015625 15.921875 C-16.37614278 9.98085614 -14.81728133 5.97304831 -10.8125 1.625 C-7.16267597 -0.48378722 -4.06812015 -0.79610962 0 0 Z " fill="#D1C741" transform="translate(578,383)"/>
<path d="M0 0 C3.28966589 1.69003977 5.45539193 3.92014139 7.13671875 7.25390625 C9.31739634 14.19063178 9.05003311 22.47403478 6.25 29.1875 C3.31169723 34.65742004 3.31169723 34.65742004 0 36 C-3.11386695 36.5092226 -5.8944164 36.59893398 -9 36 C-12.33872378 33.44267966 -14.5145986 30.91546597 -16 27 C-16.21921297 24.18439439 -16.32465693 21.50061249 -16.3125 18.6875 C-16.32861328 17.95337891 -16.34472656 17.21925781 -16.36132812 16.46289062 C-16.36657607 10.54845665 -15.28174171 5.72053819 -11.375 1.0625 C-7.58635184 -0.63242154 -4.0664182 -0.75408448 0 0 Z " fill="#D2C840" transform="translate(687,383)"/>
<path d="M0 0 C4.29788277 2.30479867 6.59826165 5.37874388 8 10 C8.21447731 12.69350073 8.32498534 15.24815841 8.3125 17.9375 C8.32861328 18.62779297 8.34472656 19.31808594 8.36132812 20.02929688 C8.36700087 26.01404491 6.84795594 29.99364783 2.8125 34.375 C-0.91516516 36.52876209 -3.79166517 36.82800908 -8 36 C-11.70678953 33.94067248 -13.97264076 31.39513 -15.49609375 27.390625 C-17.18286422 19.38827208 -17.26732653 11.09843421 -13 4 C-9.24255138 -0.07951564 -5.40652433 -1.22731276 0 0 Z " fill="#D2C83E" transform="translate(948,383)"/>
<path d="M0 0 C4.25158753 1.79511474 6.0729478 3.8490108 8 8 C8.48620336 11.29793709 8.50974867 14.54582828 8.5 17.875 C8.52835938 18.74769531 8.55671875 19.62039063 8.5859375 20.51953125 C8.60529872 26.95713734 7.27602833 30.17014873 3 35 C-0.47747287 36.73873643 -4.2061837 36.59073264 -8 36 C-11.33820791 33.4430748 -13.526279 30.91919689 -15 27 C-15.34373472 24.05987434 -15.37019451 21.1452761 -15.375 18.1875 C-15.39949219 17.40568359 -15.42398438 16.62386719 -15.44921875 15.81835938 C-15.47809348 10.0578513 -14.34359442 6.71362317 -11 2 C-7.28612182 -0.47591878 -4.30417439 -0.53907468 0 0 Z " fill="#D0C63E" transform="translate(892,383)"/>
<path d="M0 0 C3.78841057 2.08072441 6.50085353 4.94066732 8 9 C8.21884972 11.65177643 8.32472952 14.16358523 8.3125 16.8125 C8.32861328 17.49892578 8.34472656 18.18535156 8.36132812 18.89257812 C8.36712723 25.02222782 7.00416136 29.76679163 2.8125 34.4375 C-0.9122462 36.50680345 -3.82976938 36.83573448 -8 36 C-12.08347656 33.6031768 -13.64925569 31.46693514 -15 27 C-15.33361146 23.85057527 -15.37012692 20.72756247 -15.375 17.5625 C-15.39949219 16.72912109 -15.42398438 15.89574219 -15.44921875 15.03710938 C-15.47533752 9.53040257 -14.71167575 6.33475489 -11 2 C-7.30468867 -0.46354088 -4.28763605 -0.80241204 0 0 Z " fill="#D6CB3F" transform="translate(920,383)"/>
<path d="M0 0 C2.97662616 1.32700308 3.83323745 2.33321533 6 5 C6.92253013 8.88231431 6.58236955 12.02938408 4.5 15.5 C4.005 15.995 3.51 16.49 3 17 C3.825 17.680625 4.65 18.36125 5.5 19.0625 C8 22 8 22 8.5625 25.5 C7.91089471 29.5544329 6.92163978 31.15951688 4 34 C-0.23694629 36.52621275 -4.17748425 36.70085004 -9 36 C-14.46341463 33.07317073 -14.46341463 33.07317073 -16 30 C-16.56652431 25.27277258 -16.64848749 21.99299648 -14 17.9375 C-13.34 17.298125 -12.68 16.65875 -12 16 C-12.495 15.67 -12.99 15.34 -13.5 15 C-15.43525567 12.41965911 -15.6097423 10.19188857 -15.46875 7.0078125 C-14.80443744 4.16234038 -13.28315715 2.50088227 -10.91015625 0.8515625 C-7.24468993 -0.78253087 -3.89087984 -0.84614499 0 0 Z " fill="#D3C941" transform="translate(551,383)"/>
<path d="M0 0 C3.3792573 2.03005291 6.22397384 4.44794768 8 8 C9.18059263 25.99919915 9.18059263 25.99919915 4 33 C0.65482693 35.97348717 -2.51206231 36.59204697 -6.99609375 36.421875 C-10.71436665 35.63908071 -12.46413963 33.7894464 -15 31 C-15 29.68 -15 28.36 -15 27 C-13.35 27 -11.7 27 -10 27 C-9.34 28.32 -8.68 29.64 -8 31 C-3.91778712 31.33539469 -3.91778712 31.33539469 -0.1875 29.9375 C1.55729603 27.09072753 1.69042148 24.28153235 2 21 C1.01 21.66 0.02 22.32 -1 23 C-7.90258449 23.66799205 -7.90258449 23.66799205 -11.875 21.25 C-15.55688074 17.35153804 -16.50771018 14.53976767 -16.39453125 9.03515625 C-15.68647817 5.38272403 -13.62465368 3.56216192 -11 1 C-7.48308711 -0.75845645 -3.82789463 -0.68065337 0 0 Z " fill="#D3C941" transform="translate(659,383)"/>
<path d="M0 0 C1.65 0 3.3 0 5 0 C5 11.88 5 23.76 5 36 C2.33333333 36 -0.33333333 36 -3 36 C-4.27875 36.0825 -5.5575 36.165 -6.875 36.25 C-10.14316845 36.25600766 -10.9631698 36.02321904 -13.875 34.1875 C-18.39371299 29.53588368 -18.4776786 26.20454777 -18.39453125 19.9609375 C-17.80415033 15.53015789 -16.31100765 13.91684007 -13 11 C-10.75487738 9.87743869 -9.48543351 9.86586238 -7 9.875 C-5.948125 9.87113281 -5.948125 9.87113281 -4.875 9.8671875 C-3 10 -3 10 -1 11 C-0.67 7.37 -0.34 3.74 0 0 Z " fill="#D1C73F" transform="translate(825,383)"/>
<path d="M0 0 C1.65 0 3.3 0 5 0 C5 11.88 5 23.76 5 36 C2.33333333 36 -0.33333333 36 -3 36 C-4.27875 36.0825 -5.5575 36.165 -6.875 36.25 C-10.14316845 36.25600766 -10.9631698 36.02321904 -13.875 34.1875 C-18.39371299 29.53588368 -18.4776786 26.20454777 -18.39453125 19.9609375 C-17.80415033 15.53015789 -16.31100765 13.91684007 -13 11 C-10.75487738 9.87743869 -9.48543351 9.86586238 -7 9.875 C-5.948125 9.87113281 -5.948125 9.87113281 -4.875 9.8671875 C-3 10 -3 10 -1 11 C-0.67 7.37 -0.34 3.74 0 0 Z " fill="#D2C840" transform="translate(258,383)"/>
<path d="M0 0 C3.8026029 2.0050088 5.61790841 3.42686262 8 7 C8.65868019 12.37666855 8.93047242 17.3384421 6.25 22.125 C1.95690374 25.70258022 -1.32319795 26.39943454 -6.81640625 26.24609375 C-9.93381716 25.89475764 -11.64829161 25.07503682 -14 23 C-17.27589981 18.25559339 -17.91242832 13.60491681 -17 8 C-13.15303264 0.44345696 -8.08901741 -1.16358483 0 0 Z " fill="#D2C840" transform="translate(312,393)"/>
<path d="M0 0 C3.8026029 2.0050088 5.61790841 3.42686262 8 7 C8.65868019 12.37666855 8.93047242 17.3384421 6.25 22.125 C1.95570226 25.70358145 -1.32040216 26.38940208 -6.8125 26.25390625 C-9.85553414 25.90069693 -11.67345008 24.97404236 -14 23 C-17.25276772 17.95936349 -16.73560393 11.74645049 -16 6 C-12.58430106 -0.25999843 -6.43755531 -0.80063713 0 0 Z " fill="#D3C940" transform="translate(384,393)"/>
<path d="M0 0 C1.32 0 2.64 0 4 0 C4.33 0.66 4.66 1.32 5 2 C5.99 1.34 6.98 0.68 8 0 C16.2173913 -0.52173913 16.2173913 -0.52173913 20 2 C20.99 1.34 21.98 0.68 23 0 C29.85534334 -0.77399038 29.85534334 -0.77399038 33.73828125 1.8515625 C37.03061226 6.43466923 36.55214648 10.32275226 36.3125 15.8125 C36.28994141 16.79154297 36.26738281 17.77058594 36.24414062 18.77929688 C36.18539727 21.18777455 36.10332129 23.59309078 36 26 C34.02 26 32.04 26 30 26 C29.505 16.1 29.505 16.1 29 6 C24.11785113 4.41074435 24.11785113 4.41074435 21 7 C20.49378487 9.02276681 20.49378487 9.02276681 20.48828125 11.3515625 C20.45283203 12.20234375 20.41738281 13.053125 20.38085938 13.9296875 C20.35830078 14.81914062 20.33574219 15.70859375 20.3125 16.625 C20.27833984 17.5221875 20.24417969 18.419375 20.20898438 19.34375 C20.12637598 21.56237538 20.05727281 23.7805994 20 26 C18.35 26 16.7 26 15 26 C14.97494385 25.39937744 14.9498877 24.79875488 14.92407227 24.17993164 C14.8084472 21.47388563 14.68557064 18.76821717 14.5625 16.0625 C14.52318359 15.11697266 14.48386719 14.17144531 14.44335938 13.19726562 C14.40146484 12.29814453 14.35957031 11.39902344 14.31640625 10.47265625 C14.27974854 9.64000244 14.24309082 8.80734863 14.20532227 7.94946289 C14.20632897 5.99661142 14.20632897 5.99661142 13 5 C10.54190002 4.7499227 10.54190002 4.7499227 8 5 C5.6031335 7.3968665 5.71718867 8.07028314 5.5859375 11.3515625 C5.52792969 12.62773437 5.52792969 12.62773437 5.46875 13.9296875 C5.4378125 14.81914062 5.406875 15.70859375 5.375 16.625 C5.31699219 17.97078125 5.31699219 17.97078125 5.2578125 19.34375 C5.16340643 21.5622927 5.07783252 23.78082403 5 26 C3.35 26 1.7 26 0 26 C0 17.42 0 8.84 0 0 Z " fill="#D4CA41" transform="translate(397,393)"/>
<path d="M0 0 C4.15400065 1.51054569 6.8564759 3.07020582 9 7 C9 8.32 9 9.64 9 11 C6.6875 11.3125 6.6875 11.3125 4 11 C2.3125 8.5625 2.3125 8.5625 1 6 C-2.05693322 4.47153339 -4.62984547 4.76757555 -8 5 C-10.40083438 6.35885116 -10.40083438 6.35885116 -12 8 C-12.10912211 9.96204894 -12.10912211 9.96204894 -11 12 C-7.70958045 13.25832255 -4.48745813 14.12924829 -1.078125 14.97851562 C3.83692271 16.32021523 6.73392899 17.8621344 10 22 C10.67096636 26.17490177 10.49348946 28.17751757 8.3125 31.8125 C3.66518275 36.20861091 -1.19063757 36.4361791 -7.33984375 36.3203125 C-12.08475054 35.74897277 -14.71250187 33.37333134 -17.875 30 C-19 28 -19 28 -19 24 C-16.75 23.625 -16.75 23.625 -14 24 C-11.875 26.9375 -11.875 26.9375 -10 30 C-6.43528609 31.18823797 -3.7441664 31.26274852 0 31 C2.40083438 29.64114884 2.40083438 29.64114884 4 28 C3.505 25.525 3.505 25.525 3 23 C2.45472656 22.82984375 1.90945312 22.6596875 1.34765625 22.484375 C-13.18639798 17.81360202 -13.18639798 17.81360202 -17 14 C-17.56025442 10.94513908 -17.54916387 8.05574353 -17 5 C-11.89926811 -0.36919146 -7.06993137 -0.60816614 0 0 Z " fill="#D5CA3F" transform="translate(48,383)"/>
<path d="M0 0 C1.32 0 2.64 0 4 0 C4.33 0.66 4.66 1.32 5 2 C5.99 1.34 6.98 0.68 8 0 C11.68359118 -0.27285861 14.313046 -0.28102664 17.75 1.125 C18.4925 1.41375 19.235 1.7025 20 2 C20.99 1.34 21.98 0.68 23 0 C29.88791849 -0.65599224 29.88791849 -0.65599224 33.23828125 1.3203125 C36.09578058 5.66675272 35.41729726 10.17960606 35.25 15.25 C35.23195312 16.28125 35.21390625 17.3125 35.1953125 18.375 C35.14822712 20.91761064 35.0824805 23.45833162 35 26 C33.35 26 31.7 26 30 26 C29.97494385 25.39937744 29.9498877 24.79875488 29.92407227 24.17993164 C29.8084472 21.47388563 29.68557064 18.76821717 29.5625 16.0625 C29.52318359 15.11697266 29.48386719 14.17144531 29.44335938 13.19726562 C29.40146484 12.29814453 29.35957031 11.39902344 29.31640625 10.47265625 C29.27974854 9.64000244 29.24309082 8.80734863 29.20532227 7.94946289 C29.20632897 5.99661142 29.20632897 5.99661142 28 5 C25.54190002 4.7499227 25.54190002 4.7499227 23 5 C20.6031335 7.3968665 20.71718867 8.07028314 20.5859375 11.3515625 C20.54726562 12.20234375 20.50859375 13.053125 20.46875 13.9296875 C20.42234375 15.26386719 20.42234375 15.26386719 20.375 16.625 C20.33632812 17.5221875 20.29765625 18.419375 20.2578125 19.34375 C20.16340643 21.5622927 20.07783252 23.78082403 20 26 C18.35 26 16.7 26 15 26 C14.97494385 25.39937744 14.9498877 24.79875488 14.92407227 24.17993164 C14.8084472 21.47388563 14.68557064 18.76821717 14.5625 16.0625 C14.52318359 15.11697266 14.48386719 14.17144531 14.44335938 13.19726562 C14.40146484 12.29814453 14.35957031 11.39902344 14.31640625 10.47265625 C14.27974854 9.64000244 14.24309082 8.80734863 14.20532227 7.94946289 C14.20632897 5.99661142 14.20632897 5.99661142 13 5 C9.42739993 4.6122354 9.42739993 4.6122354 6.36791992 6.2512207 C4.69925931 8.3844736 4.58345486 9.54657296 4.48828125 12.23046875 C4.45283203 13.03291016 4.41738281 13.83535156 4.38085938 14.66210938 C4.35830078 15.49548828 4.33574219 16.32886719 4.3125 17.1875 C4.27833984 18.03248047 4.24417969 18.87746094 4.20898438 19.74804688 C4.12658529 21.83156649 4.06161355 23.91576216 4 26 C2.68 26 1.36 26 0 26 C0 17.42 0 8.84 0 0 Z " fill="#D4CA3F" transform="translate(150,393)"/>
<path d="M0 0 C2.79296875 1.328125 2.79296875 1.328125 5 4 C5.75947309 7.74459238 5.79073246 11.43826258 5.8125 15.25 C5.83763672 16.28125 5.86277344 17.3125 5.88867188 18.375 C5.94751562 20.91704989 5.98381507 23.45737916 6 26 C4.35 26 2.7 26 1 26 C1 25.01 1 24.02 1 23 C0.360625 23.495 -0.27875 23.99 -0.9375 24.5 C-5.05395374 26.51622224 -8.4927012 26.72540614 -13 26 C-16.0625 24.375 -16.0625 24.375 -18 22 C-18.625 19 -18.625 19 -18 16 C-14.29850169 12.30534365 -11.31719882 11.37178168 -6.1875 10.75 C-5.02605469 10.60046875 -3.86460937 10.4509375 -2.66796875 10.296875 C-1.78753906 10.19890625 -0.90710938 10.1009375 0 10 C-0.66 8.35 -1.32 6.7 -2 5 C-4.64 5 -7.28 5 -10 5 C-10.66 6.32 -11.32 7.64 -12 9 C-13.65 9 -15.3 9 -17 9 C-16.73309994 5.79719931 -16.16670984 4.2056088 -14.125 1.6875 C-9.58506676 -0.76406395 -5.05276257 -0.98732142 0 0 Z " fill="#D3C940" transform="translate(769,393)"/>
<path d="M0 0 C3.8026029 2.0050088 5.61790841 3.42686262 8 7 C8 9.31 8 11.62 8 14 C1.73 14 -4.54 14 -11 14 C-9.34922098 17.75170424 -9.34922098 17.75170424 -7 21 C-4.0842309 21.41702122 -4.0842309 21.41702122 -1 21 C-0.505 20.34 -0.01 19.68 0.5 19 C0.995 18.34 1.49 17.68 2 17 C5.1875 16.75 5.1875 16.75 8 17 C7.76346394 20.19323679 6.72817004 21.30667995 4.5625 23.75 C1.03195252 26.48936455 -2.21672979 26.71631203 -6.59375 26.4921875 C-11.2202942 25.54584891 -13.55669944 22.90253256 -16.375 19.1875 C-17.6823908 14.61163222 -17.67633152 10.56624142 -15.8125 6.25 C-11.17192785 0.48928975 -7.30717999 -1.2993401 0 0 Z " fill="#D1C741" transform="translate(509,393)"/>
<path d="M0 0 C3.75163399 1.50326797 3.75163399 1.50326797 5 4 C5.15222973 5.66565749 5.24917215 7.33656496 5.31640625 9.0078125 C5.35830078 9.99394531 5.40019531 10.98007812 5.44335938 11.99609375 C5.48267578 13.02863281 5.52199219 14.06117188 5.5625 15.125 C5.60568359 16.16527344 5.64886719 17.20554687 5.69335938 18.27734375 C5.7996288 20.85142528 5.90166583 23.42560508 6 26 C4.35 26 2.7 26 1 26 C0.67 25.34 0.34 24.68 0 24 C-0.56847656 24.32097656 -1.13695312 24.64195312 -1.72265625 24.97265625 C-5.44919139 26.65375186 -8.99807463 26.68949691 -13 26 C-16.125 23.875 -16.125 23.875 -18 21 C-18.0625 17.875 -18.0625 17.875 -17 15 C-13.74966086 11.82686607 -10.6700484 11.38710629 -6.25 10.8125 C-5.07953125 10.65394531 -3.9090625 10.49539063 -2.703125 10.33203125 C-1.81109375 10.22246094 -0.9190625 10.11289062 0 10 C-0.66 8.35 -1.32 6.7 -2 5 C-4.97 5 -7.94 5 -11 5 C-11.33 6.32 -11.66 7.64 -12 9 C-13.32 9 -14.64 9 -16 9 C-16.375 6.75 -16.375 6.75 -16 4 C-11.29991761 -0.57639602 -6.23366904 -0.8846461 0 0 Z " fill="#D2C83F" transform="translate(138,393)"/>
<path d="M0 0 C3.8026029 2.0050088 5.61790841 3.42686262 8 7 C8 9.31 8 11.62 8 14 C1.73 14 -4.54 14 -11 14 C-10.34 15.98 -9.68 17.96 -9 20 C-6.71294169 21.14352916 -5.40735238 21.10334439 -2.875 21.0625 C-1.59625 21.041875 -0.3175 21.02125 1 21 C1.33 19.68 1.66 18.36 2 17 C3.98 17 5.96 17 8 17 C7.76346394 20.19323679 6.72817004 21.30667995 4.5625 23.75 C1.03290965 26.48862191 -2.21442746 26.71118148 -6.58984375 26.5 C-10.5271311 25.68318836 -12.28634241 23.92240049 -15 21 C-17.09948946 16.80102108 -16.54696419 11.56001667 -16 7 C-12.52608116 0.0651247 -7.12761475 -0.88645965 0 0 Z " fill="#D3C940" transform="translate(284,393)"/>
<path d="M0 0 C3.214197 1.63631847 5.24693202 2.97308912 7.375 5.875 C8 8 8 8 8 14 C1.73 14 -4.54 14 -11 14 C-10.34 15.98 -9.68 17.96 -9 20 C-6.15916359 21.42041821 -4.14522722 21.31452272 -1 21 C0.35368596 19.68733482 1.68799596 18.35432675 3 17 C5.75 16.75 5.75 16.75 8 17 C6.64367505 21.43888167 5.07570828 23.70741409 1 26 C-3.16564077 26.75106712 -7.14516281 27.00935919 -10.9453125 24.94140625 C-14.09974234 22.37366988 -15.84878103 20.44306101 -16.2734375 16.390625 C-16.58135647 6.86882293 -16.58135647 6.86882293 -13.625 3.3125 C-9.26426967 -0.52909576 -5.66259835 -0.69473896 0 0 Z " fill="#D4CA3F" transform="translate(109,393)"/>
<path d="M0 0 C3.63467079 1.62400184 4.77408696 2.66113044 7 6 C7.67019852 10.94271405 7.53326384 13.8297827 4.625 17.9375 C0.5890135 22.81755098 -4.22190623 26.86759457 -9 31 C-3.72 31.33 1.56 31.66 7 32 C7 33.32 7 34.64 7 36 C-0.92 36 -8.84 36 -17 36 C-15.32416618 27.62083091 -9.11068571 22.84596991 -2.69921875 17.54296875 C-0.05075001 15.13803737 0.95759897 13.51941268 1.25 9.9375 C1.30746414 6.87773264 1.30746414 6.87773264 -1 5 C-4.58343976 4.83322718 -4.58343976 4.83322718 -8 5 C-8.99 6.98 -9.98 8.96 -11 11 C-12.65 11 -14.3 11 -16 11 C-15.81037036 6.92296284 -15.21550125 5.24782644 -12.5 2.125 C-8.60456445 -0.78484342 -4.67354221 -0.80191776 0 0 Z " fill="#D5CA40" transform="translate(865,383)"/>
<path d="M0 0 C1.65 0 3.3 0 5 0 C5.33 3.96 5.66 7.92 6 12 C6.99 11.34 7.98 10.68 9 10 C13.47074966 9.56734681 15.68467717 9.36579299 19.73828125 11.3203125 C23.31856363 15.56223601 22.53340649 19.8938673 22.3125 25.25 C22.28994141 26.28125 22.26738281 27.3125 22.24414062 28.375 C22.18527163 30.91814065 22.10310065 33.45833113 22 36 C20.35 36 18.7 36 17 36 C16.505 26.1 16.505 26.1 16 16 C9.63438245 14.32942362 9.63438245 14.32942362 7.09448242 16.1730957 C5.7969845 18.3388724 5.57752137 19.71389728 5.48828125 22.23046875 C5.45283203 23.03291016 5.41738281 23.83535156 5.38085938 24.66210938 C5.34702148 25.91217773 5.34702148 25.91217773 5.3125 27.1875 C5.27833984 28.03248047 5.24417969 28.87746094 5.20898438 29.74804688 C5.12658529 31.83156649 5.06161355 33.91576216 5 36 C3.35 36 1.7 36 0 36 C0 24.12 0 12.24 0 0 Z " fill="#D3C841" transform="translate(466,383)"/>
<path d="M0 0 C3.1875 0.375 3.1875 0.375 5.35546875 2.37109375 C7.77021691 6.33045694 7.78226008 9.26796471 7.6875 13.8125 C7.70296875 14.55048828 7.7184375 15.28847656 7.734375 16.04882812 C7.69760498 21.21961243 6.67271042 24.33518106 3.1875 28.375 C0.125 29 0.125 29 -2.8125 28.375 C-6.22533487 25.07984909 -6.73038005 21.69997382 -7.015625 17.09765625 C-7.03109375 15.88980469 -7.0465625 14.68195313 -7.0625 13.4375 C-7.08828125 12.23222656 -7.1140625 11.02695312 -7.140625 9.78515625 C-6.67074357 4.90174569 -5.12787724 0.68371697 0 0 Z " fill="#11100A" transform="translate(943.8125,386.625)"/>
<path d="M0 0 C3.1875 0.375 3.1875 0.375 5.35546875 2.3359375 C7.83495177 6.44902448 7.77926901 9.66419075 7.6875 14.375 C7.70296875 15.1690625 7.7184375 15.963125 7.734375 16.78125 C7.70780493 20.76676096 7.452943 22.92781741 5.37890625 26.421875 C3.1875 28.375 3.1875 28.375 -0.375 28.625 C-3.8125 27.375 -3.8125 27.375 -5.75 24.5625 C-7.87256591 18.168435 -7.98717222 10.42840407 -5.375 4.1875 C-3.2925 0.439 -3.2925 0.439 0 0 Z " fill="#13120D" transform="translate(915.8125,386.625)"/>
<path d="M0 0 C3.1875 0.375 3.1875 0.375 5.35546875 2.3359375 C7.83495177 6.44902448 7.77926901 9.66419075 7.6875 14.375 C7.70296875 15.1690625 7.7184375 15.963125 7.734375 16.78125 C7.70780493 20.76676096 7.452943 22.92781741 5.37890625 26.421875 C3.1875 28.375 3.1875 28.375 -0.375 28.625 C-3.8125 27.375 -3.8125 27.375 -5.75 24.5625 C-7.87256591 18.168435 -7.98717222 10.42840407 -5.375 4.1875 C-3.2925 0.439 -3.2925 0.439 0 0 Z " fill="#36352F" transform="translate(573.8125,386.625)"/>
<path d="M0 0 C3.4375 1.25 3.4375 1.25 5.375 4.0625 C7.48055409 10.40531823 7.48055409 18.09468177 5.375 24.4375 C3.4375 27.25 3.4375 27.25 0 28.5 C-3.5625 28.25 -3.5625 28.25 -5.75390625 26.296875 C-8.19884632 22.17796948 -8.15407257 18.95072518 -8.0625 14.25 C-8.07796875 13.4559375 -8.0934375 12.661875 -8.109375 11.84375 C-8.08280493 7.85823904 -7.827943 5.69718259 -5.75390625 2.203125 C-3.5625 0.25 -3.5625 0.25 0 0 Z " fill="#2D2D27" transform="translate(683.5625,386.75)"/>
<path d="M0 0 C2.67966196 1.0286104 3.85652094 1.96933563 6 4 C6 5.32 6 6.64 6 8 C3.625 8.1875 3.625 8.1875 1 8 C0.34 7.01 -0.32 6.02 -1 5 C-4.58357241 4.74984127 -4.58357241 4.74984127 -8 5 C-8.33 6.32 -8.66 7.64 -9 9 C-8.18015625 9.18175781 -7.3603125 9.36351562 -6.515625 9.55078125 C-5.43796875 9.80214844 -4.3603125 10.05351562 -3.25 10.3125 C-2.18265625 10.55613281 -1.1153125 10.79976563 -0.015625 11.05078125 C2.96213979 11.98808286 4.75368049 12.8548181 7 15 C7.625 17.875 7.625 17.875 7 21 C4.30664487 24.26037727 2.70699179 25.68691538 -1.44921875 26.44921875 C-5.67223583 26.63227928 -8.32249484 26.37331917 -12.0625 24.3125 C-14.1742292 21.79204902 -14.72960418 20.24474984 -15 17 C-13.35 17 -11.7 17 -10 17 C-9.67 18.32 -9.34 19.64 -9 21 C-6.03 21 -3.06 21 0 21 C0.66 19.68 1.32 18.36 2 17 C1.19175781 16.82984375 0.38351562 16.6596875 -0.44921875 16.484375 C-12.12209302 13.8372093 -12.12209302 13.8372093 -15 10 C-15.0625 6.4375 -15.0625 6.4375 -14 3 C-9.82617264 -0.99798984 -5.4809864 -0.78422919 0 0 Z " fill="#D1C740" transform="translate(605,393)"/>
<path d="M0 0 C2.5048111 1.87860833 2.98700625 2.96101874 4 6 C4.17435601 8.8068459 4.27692257 11.56675451 4.3125 14.375 C4.34150391 15.13039063 4.37050781 15.88578125 4.40039062 16.6640625 C4.44536392 20.62171245 4.27468647 22.55565424 2.140625 26.0078125 C0 28 0 28 -2.5625 28.5 C-5.39275663 27.91943454 -6.29642017 27.29983277 -8 25 C-9.22117194 21.33648419 -9.18406354 17.93947028 -9.1875 14.125 C-9.19974609 13.41730469 -9.21199219 12.70960938 -9.22460938 11.98046875 C-9.23603787 7.88906779 -8.96460634 4.62590503 -7 1 C-4.45132831 -0.27433584 -2.82594567 -0.27570202 0 0 Z " fill="#10100E" transform="translate(891,387)"/>
<path d="M0 0 C3 1.1875 3 1.1875 5 3 C5.8125 5.6875 5.8125 5.6875 6 8 C3.625 8.1875 3.625 8.1875 1 8 C0.34 7.01 -0.32 6.02 -1 5 C-4.58357241 4.74984127 -4.58357241 4.74984127 -8 5 C-7.67 6.32 -7.34 7.64 -7 9 C-6.24074219 9.18175781 -5.48148438 9.36351562 -4.69921875 9.55078125 C-3.70535156 9.80214844 -2.71148438 10.05351562 -1.6875 10.3125 C-0.70136719 10.55613281 0.28476562 10.79976563 1.30078125 11.05078125 C4.03786037 12.01331414 5.28671166 12.6927717 7 15 C7.4375 17.9375 7.4375 17.9375 7 21 C4.60250089 23.95691557 2.64637015 25.8222503 -1.20703125 26.23828125 C-5.49204895 26.36034322 -8.24499069 26.41602554 -12.0625 24.3125 C-14.1742292 21.79204902 -14.72960418 20.24474984 -15 17 C-12.6875 16.75 -12.6875 16.75 -10 17 C-9.54625 17.66 -9.0925 18.32 -8.625 19 C-8.08875 19.66 -7.5525 20.32 -7 21 C-3.37436186 21.33380814 -3.37436186 21.33380814 0 21 C0.33 19.68 0.66 18.36 1 17 C-0.37285156 16.61908203 -0.37285156 16.61908203 -1.7734375 16.23046875 C-3.55621094 15.71419922 -3.55621094 15.71419922 -5.375 15.1875 C-7.15003906 14.68283203 -7.15003906 14.68283203 -8.9609375 14.16796875 C-12 13 -12 13 -14 10 C-14.4375 7.0625 -14.4375 7.0625 -14 4 C-10.14144498 -0.72984163 -5.68655828 -0.84474235 0 0 Z " fill="#D2C840" transform="translate(713,393)"/>
<path d="M0 0 C1.65 0 3.3 0 5 0 C5.33 0.66 5.66 1.32 6 2 C6.99 1.34 7.98 0.68 9 0 C13.47074966 -0.43265319 15.68467717 -0.63420701 19.73828125 1.3203125 C23.31856363 5.56223601 22.53340649 9.8938673 22.3125 15.25 C22.28994141 16.28125 22.26738281 17.3125 22.24414062 18.375 C22.18527163 20.91814065 22.10310065 23.45833113 22 26 C20.35 26 18.7 26 17 26 C16.505 16.1 16.505 16.1 16 6 C9.63438245 4.32942362 9.63438245 4.32942362 7.09448242 6.1730957 C5.7969845 8.3388724 5.57752137 9.71389728 5.48828125 12.23046875 C5.45283203 13.03291016 5.41738281 13.83535156 5.38085938 14.66210938 C5.35830078 15.49548828 5.33574219 16.32886719 5.3125 17.1875 C5.27833984 18.03248047 5.24417969 18.87746094 5.20898438 19.74804688 C5.12658529 21.83156649 5.06161355 23.91576216 5 26 C3.35 26 1.7 26 0 26 C0 17.42 0 8.84 0 0 Z " fill="#D1C73F" transform="translate(780,393)"/>
<path d="M0 0 C2.42509628 2.1977435 2.7395304 3.60004157 3 6.8125 C0.5625 6.4375 0.5625 6.4375 -2 5.8125 C-2.33 5.1525 -2.66 4.4925 -3 3.8125 C-5.64 3.8125 -8.28 3.8125 -11 3.8125 C-11 4.8025 -11 5.7925 -11 6.8125 C-10.16855469 7.06644531 -9.33710937 7.32039063 -8.48046875 7.58203125 C-7.39378906 7.92621094 -6.30710937 8.27039063 -5.1875 8.625 C-3.56908203 9.12966797 -3.56908203 9.12966797 -1.91796875 9.64453125 C0.84564072 10.75071496 2.2543069 11.44505319 4 13.8125 C4.4375 16.75 4.4375 16.75 4 19.8125 C2.1329009 22.11525556 0.64352259 23.49073871 -2 24.8125 C-6.26309299 25.24802227 -9.9692728 25.1990227 -14 23.6875 C-16.63136193 21.22059819 -16.76481427 19.34028597 -17 15.8125 C-14.625 16.125 -14.625 16.125 -12 16.8125 C-11.34 17.8025 -10.68 18.7925 -10 19.8125 C-7.79274927 20.17612818 -7.79274927 20.17612818 -5.375 20 C-4.55773437 19.97292969 -3.74046875 19.94585937 -2.8984375 19.91796875 C-1.95871094 19.86576172 -1.95871094 19.86576172 -1 19.8125 C-1.04200014 17.84877705 -1.04200014 17.84877705 -2 15.8125 C-4.67243958 14.55138073 -4.67243958 14.55138073 -7.875 13.75 C-14.94180873 11.76618502 -14.94180873 11.76618502 -17 8.8125 C-16.93526873 5.187549 -16.7511751 2.78276784 -14.5 -0.125 C-9.66005351 -2.18197726 -4.84200687 -1.91662772 0 0 Z " fill="#D4C93F" transform="translate(977,394.1875)"/>
<path d="M0 0 C0 1.32 0 2.64 0 4 C-1.65 4.33 -3.3 4.66 -5 5 C-5.33 6.65 -5.66 8.3 -6 10 C-4.35 10 -2.7 10 -1 10 C-1 11.32 -1 12.64 -1 14 C-2.65 14 -4.3 14 -6 14 C-6 21.26 -6 28.52 -6 36 C-7.98 36 -9.96 36 -12 36 C-12 28.74 -12 21.48 -12 14 C-12.99 14 -13.98 14 -15 14 C-15 12.68 -15 11.36 -15 10 C-14.01 10 -13.02 10 -12 10 C-12.0825 9.0925 -12.165 8.185 -12.25 7.25 C-12 4 -12 4 -10.5 1.625 C-6.86748926 -0.73613198 -4.28156703 -0.2854378 0 0 Z " fill="#C6BD3E" transform="translate(351,383)"/>
<path d="M0 0 C1.65 0 3.3 0 5 0 C6.98 5.28 8.96 10.56 11 16 C13.64521932 13.35478068 14.44542519 10.33828651 15.625 6.875 C15.85445312 6.21628906 16.08390625 5.55757813 16.3203125 4.87890625 C16.88536242 3.25438774 17.44336277 1.62742029 18 0 C19.65 0 21.3 0 23 0 C22.26096008 4.27821999 21.00097851 8.33004036 19.625 12.4375 C19.41617188 13.08009766 19.20734375 13.72269531 18.9921875 14.38476562 C17.63879394 18.44907251 16.00092912 22.21461654 14 26 C12.35 26 10.7 26 9 26 C6.52450985 19.61851104 4.06289631 13.23202981 1.6875 6.8125 C1.36136719 5.93207031 1.03523437 5.05164063 0.69921875 4.14453125 C0 2 0 2 0 0 Z " fill="#CFC53E" transform="translate(203,393)"/>
<path d="M0 0 C3.5 0.5625 3.5 0.5625 5.9375 2 C8.26612117 5.81893871 8.25178662 9.20678786 7.5 13.5625 C5.9375 16.625 5.9375 16.625 3.5 18.5625 C-0.07629221 19.06443575 -2.34939263 19.36792516 -5.375 17.25 C-7.87790876 13.49563686 -7.87746309 9.94107182 -7.5 5.5625 C-5.40973646 1.63280455 -4.43218827 0.71231597 0 0 Z " fill="#292823" transform="translate(307.5,396.4375)"/>
<path d="M0 0 C2.4375 1.375 2.4375 1.375 4 4 C4.74930285 8.65031254 4.89187859 12.55927305 2.375 16.625 C-0.72904866 18.42208081 -2.46656253 18.58890625 -6 18 C-8.375 16.6875 -8.375 16.6875 -10 14 C-11.23782287 4.70937444 -11.23782287 4.70937444 -8.6875 1.1875 C-5.81399839 -0.83459372 -3.38254908 -0.41540076 0 0 Z " fill="#2D2D2A" transform="translate(383,397)"/>
<path d="M0 0 C0 2.97 0 5.94 0 9 C1.32 9 2.64 9 4 9 C4 10.32 4 11.64 4 13 C2.68 13 1.36 13 0 13 C0.33 18.61 0.66 24.22 1 30 C2.32 30.33 3.64 30.66 5 31 C5 32.32 5 33.64 5 35 C-1.49013668 35.36736623 -1.49013668 35.36736623 -3.7121582 33.76635742 C-5.34244046 31.530321 -5.34827833 30.29782359 -5.29296875 27.55078125 C-5.28330078 26.70322266 -5.27363281 25.85566406 -5.26367188 24.98242188 C-5.23853516 24.10134766 -5.21339844 23.22027344 -5.1875 22.3125 C-5.17396484 21.41982422 -5.16042969 20.52714844 -5.14648438 19.60742188 C-5.11114079 17.40433834 -5.06180493 15.20247418 -5 13 C-5.99 13 -6.98 13 -8 13 C-8 11.68 -8 10.36 -8 9 C-7.01 9 -6.02 9 -5 9 C-5 6.69 -5 4.38 -5 2 C-1.125 0 -1.125 0 0 0 Z " fill="#CFC53E" transform="translate(69,384)"/>
<path d="M0 0 C0 2.97 0 5.94 0 9 C1.32 9 2.64 9 4 9 C4 9.99 4 10.98 4 12 C2.68 12 1.36 12 0 12 C0.33 17.94 0.66 23.88 1 30 C2.32 30.33 3.64 30.66 5 31 C5 32.32 5 33.64 5 35 C3.72125 35.061875 2.4425 35.12375 1.125 35.1875 C0.04605469 35.23970703 0.04605469 35.23970703 -1.0546875 35.29296875 C-1.69664062 35.19628906 -2.33859375 35.09960938 -3 35 C-5.10209857 31.84685215 -5.2434761 31.13896919 -5.1953125 27.55078125 C-5.18886719 26.70322266 -5.18242187 25.85566406 -5.17578125 24.98242188 C-5.15902344 24.10134766 -5.14226562 23.22027344 -5.125 22.3125 C-5.11597656 21.41982422 -5.10695313 20.52714844 -5.09765625 19.60742188 C-5.07409748 17.40467686 -5.04120329 15.20247412 -5 13 C-5.99 13 -6.98 13 -8 13 C-8 11.68 -8 10.36 -8 9 C-7.01 9 -6.02 9 -5 9 C-5.061875 7.88625 -5.12375 6.7725 -5.1875 5.625 C-5.125625 4.42875 -5.06375 3.2325 -5 2 C-2 0 -2 0 0 0 Z " fill="#D3C841" transform="translate(458,384)"/>
<path d="M0 0 C3.0625 0.5 3.0625 0.5 5.4375 1.8125 C7.97870688 6.01526522 8.05428051 10.72341005 7.0625 15.5 C5.2578125 17.34375 5.2578125 17.34375 3.0625 18.5 C-0.5625 18.4375 -0.5625 18.4375 -3.9375 17.5 C-6.64942627 13.4543395 -6.48019482 9.19474091 -5.9375 4.5 C-4.4251683 1.05524445 -3.71278501 0.63196341 0 0 Z " fill="#21211D" transform="translate(250.9375,396.5)"/>
<path d="M0 0 C2.21066083 3.31599124 2.32275195 4.61274489 2.375 8.5 C2.40335938 9.4590625 2.43171875 10.418125 2.4609375 11.40625 C2 14 2 14 0.203125 15.84765625 C-3.15608176 17.60468816 -5.43033645 16.99157321 -9 16 C-11.69139863 11.97175535 -11.67640681 7.6749129 -11 3 C-8.11286469 -1.85038732 -5.13544698 -1.42651305 0 0 Z " fill="#1C1B17" transform="translate(823,398)"/>
<path d="M0 0 C4.32070747 0.77772734 5.51263515 2.03251455 8.125 5.5625 C8.73496853 9.18697764 8.5973677 12.71279985 8.4375 16.375 C8.40366211 17.84356445 8.40366211 17.84356445 8.36914062 19.34179688 C8.31039727 21.75027455 8.22832129 24.15559078 8.125 26.5625 C6.145 26.5625 4.165 26.5625 2.125 26.5625 C1.795 19.9625 1.465 13.3625 1.125 6.5625 C-1.185 5.9025 -3.495 5.2425 -5.875 4.5625 C-4.18719235 1.56195307 -3.44840455 0.67468785 0 0 Z " fill="#C7BE3F" transform="translate(424.875,392.4375)"/>
<path d="M0 0 C2.375 1.5625 2.375 1.5625 4 4 C4.56783945 7.97487617 4.62340519 10.06489221 2.375 13.4375 C-0.71685231 15.47161336 -2.36367425 15.60605429 -6 15 C-8.375 13.4375 -8.375 13.4375 -10 11 C-10.56783945 7.02512383 -10.62340519 4.93510779 -8.375 1.5625 C-5.28314769 -0.47161336 -3.63632575 -0.60605429 0 0 Z " fill="#31312A" transform="translate(658,387)"/>
<path d="M0 0 C2.33333333 0 4.66666667 0 7 0 C7.99 -0.04125 8.98 -0.0825 10 -0.125 C13 0 13 0 15 2 C14.67 2.66 14.34 3.32 14 4 C11.67793475 4.70491267 9.34406932 5.37212429 7 6 C5.45049732 7.54950268 5.78344807 9.09990594 5.68359375 11.25390625 C5.64169922 12.10791016 5.59980469 12.96191406 5.55664062 13.84179688 C5.49766602 15.18854492 5.49766602 15.18854492 5.4375 16.5625 C5.39431641 17.46419922 5.35113281 18.36589844 5.30664062 19.29492188 C5.20021858 21.52978485 5.09820012 23.76476308 5 26 C3.35 26 1.7 26 0 26 C0 17.42 0 8.84 0 0 Z " fill="#D3C940" transform="translate(352,393)"/>
<path d="M0 0 C2.33333333 0 4.66666667 0 7 0 C7.99 -0.04125 8.98 -0.0825 10 -0.125 C13 0 13 0 15 2 C14.67 2.66 14.34 3.32 14 4 C11.67793475 4.70491267 9.34406932 5.37212429 7 6 C5.45049732 7.54950268 5.78344807 9.09990594 5.68359375 11.25390625 C5.64169922 12.10791016 5.59980469 12.96191406 5.55664062 13.84179688 C5.49766602 15.18854492 5.49766602 15.18854492 5.4375 16.5625 C5.39431641 17.46419922 5.35113281 18.36589844 5.30664062 19.29492188 C5.20021858 21.52978485 5.09820012 23.76476308 5 26 C3.35 26 1.7 26 0 26 C0 17.42 0 8.84 0 0 Z " fill="#D1C63E" transform="translate(77,393)"/>
<path d="M0 0 C2.8520847 1.97452017 3.81895125 3.09475625 4.5 6.5 C3.81895125 9.90524375 2.8520847 11.02547983 0 13 C-3.46230815 13.42519574 -5.8347167 13.63902633 -8.9375 11.9375 C-10.6140629 8.88023824 -10.36528977 6.4093712 -10 3 C-7.7773391 -1.05308751 -4.20075589 -0.5158823 0 0 Z " fill="#34342F" transform="translate(550,402)"/>
<path d="M0 0 C1.98 0 3.96 0 6 0 C6.13534286 9.05293337 5.75741925 17.97859571 5 27 C3.68 27 2.36 27 1 27 C-0.14516104 17.98185679 -0.09471858 9.0719352 0 0 Z " fill="#CFC53D" transform="translate(987,383)"/>
<path d="M0 0 C1.65 0 3.3 0 5 0 C5 8.58 5 17.16 5 26 C3.35 26 1.7 26 0 26 C0 17.42 0 8.84 0 0 Z " fill="#D2C93F" transform="translate(230,393)"/>
<path d="M0 0 C1.32 0 2.64 0 4 0 C4.33 0.66 4.66 1.32 5 2 C5.66 2.33 6.32 2.66 7 3 C6.68289062 3.63292969 6.36578125 4.26585937 6.0390625 4.91796875 C4.64495753 9.05311469 4.53929479 12.97580212 4.375 17.3125 C4.33632812 18.14845703 4.29765625 18.98441406 4.2578125 19.84570312 C4.16404841 21.89679259 4.08095755 23.94836515 4 26 C2.68 26 1.36 26 0 26 C0 17.42 0 8.84 0 0 Z " fill="#DDD241" transform="translate(150,393)"/>
<path d="M0 0 C1 1 1 1 1.3125 3.875 C1 7 1 7 -0.6875 8.9375 C-3.61449654 10.28233625 -4.98584989 10.03115662 -8 9 C-8.66 8.34 -9.32 7.68 -10 7 C-9.75 3.4375 -9.75 3.4375 -9 0 C-5.90842747 -1.54578627 -3.31526981 -0.60277633 0 0 Z " fill="#383832" transform="translate(551,388)"/>
<path d="M0 0 C-0.3125 2.875 -0.3125 2.875 -1 6 C-4.66865241 8.44576827 -6.67200343 8.23607254 -11 8 C-11.66 7.67 -12.32 7.34 -13 7 C-13 5.68 -13 4.36 -13 3 C-8.76915382 1.13345022 -4.65260883 0 0 0 Z " fill="#24231E" transform="translate(769,407)"/>
<path d="M0 0 C0.21620175 2.6664882 0.30894168 4.44004321 -1 6.8125 C-4.23988962 8.73618446 -7.2825819 8.18282384 -11 8 C-11.33 6.35 -11.66 4.7 -12 3 C-8.17936061 0.45290708 -4.56711438 0 0 0 Z " fill="#13130E" transform="translate(138,407)"/>
<path d="M0 0 C2.375 1.875 2.375 1.875 4 4 C4 4.66 4 5.32 4 6 C-0.62 6 -5.24 6 -10 6 C-8.50886201 0.03544804 -5.77616228 -0.70728518 0 0 Z " fill="#393831" transform="translate(508,397)"/>
<path d="M0 0 C2.375 1.875 2.375 1.875 4 4 C4 4.66 4 5.32 4 6 C-0.62 6 -5.24 6 -10 6 C-8.50886201 0.03544804 -5.77616228 -0.70728518 0 0 Z " fill="#282821" transform="translate(283,397)"/>
<path d="M0 0 C2.375 1.875 2.375 1.875 4 4 C4 4.66 4 5.32 4 6 C-0.62 6 -5.24 6 -10 6 C-8.50886201 0.03544804 -5.77616228 -0.70728518 0 0 Z " fill="#14130D" transform="translate(108,397)"/>
<path d="M0 0 C1.98 0 3.96 0 6 0 C6.28999491 4.92991345 6.19703098 8.09251769 3 12 C2.01 12 1.02 12 0 12 C0.57584432 9.61435923 1.22227595 7.33317216 2 5 C1.34 5 0.68 5 0 5 C0 3.35 0 1.7 0 0 Z " fill="#C4BB3D" transform="translate(726,414)"/>
<path d="M0 0 C1.65 0 3.3 0 5 0 C5.08131463 1.43655854 5.13933559 2.8744483 5.1875 4.3125 C5.22230469 5.11300781 5.25710938 5.91351563 5.29296875 6.73828125 C4.93801608 9.47851584 4.10633718 10.29171079 2 12 C1.01 11.67 0.02 11.34 -1 11 C-0.01 9.02 0.98 7.04 2 5 C1.34 5 0.68 5 0 5 C0 3.35 0 1.7 0 0 Z " fill="#C5BC3F" transform="translate(618,414)"/>
<path d="M0 0 C1.98 0 3.96 0 6 0 C6 1.65 6 3.3 6 5 C4.02 5 2.04 5 0 5 C0 3.35 0 1.7 0 0 Z " fill="#CBC13C" transform="translate(987,414)"/>
<path d="M0 0 C1.65 0 3.3 0 5 0 C5 1.65 5 3.3 5 5 C3.35 5 1.7 5 0 5 C0 3.35 0 1.7 0 0 Z " fill="#D2C93F" transform="translate(230,383)"/>
<path d="M0 0 C1.32 0 2.64 0 4 0 C4 2.31 4 4.62 4 7 C3.67 6.34 3.34 5.68 3 5 C2.01 5 1.02 5 0 5 C0 3.35 0 1.7 0 0 Z " fill="#DFD442" transform="translate(618,414)"/>
<path d="M0 0 C0.5775 0.226875 1.155 0.45375 1.75 0.6875 C0.6671875 1.30625 0.6671875 1.30625 -0.4375 1.9375 C-3.22969862 3.67486803 -5.72012585 5.59131857 -8.25 7.6875 C-6.86345583 3.41232214 -5.12511737 -0.71182186 0 0 Z " fill="#C4BA3B" transform="translate(886.25,383.3125)"/>
<path d="M0 0 C0.5775 0.226875 1.155 0.45375 1.75 0.6875 C0.6671875 1.30625 0.6671875 1.30625 -0.4375 1.9375 C-3.22969862 3.67486803 -5.72012585 5.59131857 -8.25 7.6875 C-6.86345583 3.41232214 -5.12511737 -0.71182186 0 0 Z " fill="#BFB63D" transform="translate(680.25,383.3125)"/>
<path d="M0 0 C0.66 0.33 1.32 0.66 2 1 C1.360625 1.556875 0.72125 2.11375 0.0625 2.6875 C-2.19680987 5.22066561 -2.63149047 6.68341424 -3 10 C-3.33 10 -3.66 10 -4 10 C-4.25 7.25 -4.25 7.25 -4 4 C-2 1.625 -2 1.625 0 0 Z " fill="#A19A39" transform="translate(343,383)"/>
</svg>
