<svg xmlns="http://www.w3.org/2000/svg"
    width="120"
    height="120"
    viewBox="0 0 512 512">

    <g transform="translate(128, 128) scale(0.5)">
        <path
            fill="#000000"
            d="M1,144C1,96 1,48.5 1,1C171.67,1 342.33,1 513,1C513,171.67 513,342.33 513,513C342.33,513 171.67,513 1,513C1,390.17 1,267.33 1,144M5,273.4C5.94,281.66 6.2,290.06 7.96,298.14C10.92,311.76 14.62,325.25 18.41,338.68C24.3,359.56 34.68,378.42 46.45,396.39C63.65,422.67 85.35,444.86 111.04,463C134.92,479.85 160.87,492.12 189.11,500.08C218.17,508.26 247.61,511.23 277.49,508.74C309.08,506.12 339.31,498.13 367.87,483.8C393.26,471.06 416.28,455.16 436.27,435.07C448.71,422.56 459.46,408.62 469.09,393.73C481.03,375.28 490.34,355.64 497.16,334.88C503.35,316.04 506.48,296.58 508.73,276.79C510.74,259.12 509.39,241.82 507.3,224.58C505.62,210.63 501.82,196.88 498.2,183.24C491.9,159.51 480.93,137.8 467.45,117.43C457.06,101.73 444.64,87.67 431.15,74.41C411.03,54.65 387.96,39.28 362.59,27.63C326.25,10.94 288,3.09 247.72,4.77C225.41,5.71 203.71,9.24 182.5,15.63C162.86,21.54 144.07,29.83 126.59,40.68C104.56,54.36 84.2,70.11 67.4,90.09C54.41,105.54 42.61,121.73 33.43,139.85C25.79,154.91 19.13,170.32 14.47,186.49C11.4,197.18 8.35,208.1 7.32,219.11C5.67,236.8 5.69,254.64 5,273.4z"
            stroke="none" />
        <path
            fill="#030303"
            d="M5,272.91C5.69,254.64 5.67,236.8 7.32,219.11C8.35,208.1 11.4,197.18 14.47,186.49C19.13,170.32 25.79,154.91 33.43,139.85C42.61,121.73 54.41,105.54 67.4,90.09C84.2,70.11 104.56,54.36 126.59,40.68C144.07,29.83 162.86,21.54 182.5,15.63C203.71,9.24 225.41,5.71 247.72,4.77C288,3.09 326.25,10.94 362.59,27.63C387.96,39.28 411.03,54.65 431.15,74.41C444.64,87.67 457.06,101.73 467.45,117.43C480.93,137.8 491.9,159.51 498.2,183.24C501.82,196.88 505.62,210.63 507.3,224.58C509.39,241.82 510.74,259.12 508.73,276.79C506.48,296.58 503.35,316.04 497.16,334.88C490.34,355.64 481.03,375.28 469.09,393.73C459.46,408.62 448.71,422.56 436.27,435.07C416.28,455.16 393.26,471.06 367.87,483.8C339.31,498.13 309.08,506.12 277.49,508.74C247.61,511.23 218.17,508.26 189.11,500.08C160.87,492.12 134.92,479.85 111.04,463C85.35,444.86 63.65,422.67 46.45,396.39C34.68,378.42 24.3,359.56 18.41,338.68C14.62,325.25 10.92,311.76 7.96,298.14C6.2,290.06 5.94,281.66 5,272.91M389.66,57.45C388.77,57.28 387.89,57.11 386.79,56.29C385.53,55.04 384.46,53.46 382.97,52.57C354.41,35.33 323.77,24.11 290.61,19.27C257.23,14.4 224.44,16.84 192.17,25.66C168.64,32.09 146.69,42.4 126.11,55.75C93.29,77.02 67.1,104.66 48.02,138.5C21.32,185.83 11.98,236.87 19.27,290.84C23.85,324.72 35.74,356.01 53.73,384.87C73.5,416.59 99.51,442.34 131.54,461.73C153.01,474.73 175.87,484.34 200.43,490.27C231.47,497.76 262.58,499.17 294.05,494.29C318.1,490.56 341.03,483.2 362.86,472.52C385.77,461.32 406.35,446.75 424.6,428.91C437.99,415.84 450.09,401.73 459.39,385.43C465.81,374.16 472.85,363.11 477.87,351.22C488.61,325.76 494.76,299.21 496.33,271.36C497.78,245.61 495.78,220.43 488.97,195.75C485.22,182.18 479.93,168.95 474.41,155.96C466.97,138.44 457.15,122.09 444.82,107.62C434.92,96 424.08,85.1 412.89,74.71C406.03,68.33 397.72,63.52 389.66,57.45z"
            stroke="none" />
        <path
            fill="#F43232"
            d="M387,56.94C387.89,57.11 388.77,57.28 389.77,58.18C389.94,62.94 390,66.97 389.97,71.46C389.94,76.95 390,81.97 389.97,87.46C389.94,93.61 390,99.31 389.97,105.46C389.9,110.22 389.92,114.52 389.48,118.93C384.02,119.15 379.02,119.27 373.55,119.3C368.06,119.27 363.03,119.32 357.54,119.29C342.38,119.27 327.69,119.32 312.54,119.3C279.09,119.21 246.1,119.21 212.84,119.21C212.84,126.79 212.84,133.87 212.72,141.42C212.67,146.56 212.75,151.26 212.7,156.41C212.66,172.22 212.73,187.57 212.71,203.31C213.73,204.47 214.85,205.92 215.98,205.93C244.32,205.99 272.67,205.9 301.48,205.9C318.96,205.91 335.98,205.87 353.46,205.9C357.65,205.96 361.38,205.96 365.47,205.96C365.47,226.31 365.51,245.74 365.36,265.17C365.36,266.18 363.83,267.17 362.54,268.1C352.39,268.08 342.7,268.12 332.54,268.1C324.39,268.08 316.7,268.12 308.55,268.09C276.39,268.03 244.7,268.03 212.81,268.03C212.81,276.13 212.81,283.57 212.71,291.47C212.68,301.63 212.76,311.34 212.72,321.5C212.68,332.99 212.75,344.02 212.72,355.51C212.69,361.65 212.76,367.35 212.72,373.49C212.67,388.75 212.73,403.55 212.7,418.63C212.68,419.26 212.75,419.63 212.71,420.37C211.51,421.78 210.54,423.5 209.32,423.69C206.27,424.18 203.11,423.98 199.54,423.98C188.72,423.95 178.36,424.01 167.54,423.98C159.72,423.95 152.36,424 144.59,423.98C142.44,423.8 140.71,423.71 138.91,423.62C138.63,421.87 138.4,420.46 138.29,418.65C138.33,414.17 138.25,410.08 138.29,405.54C138.33,400.4 138.25,395.72 138.29,390.58C138.33,384.41 138.25,378.7 138.29,372.53C138.33,358.74 138.25,345.4 138.29,331.6C138.45,282.24 138.49,233.33 138.5,184.43C138.5,183.61 138.29,182.79 138.28,181.51C138.31,168.04 138.24,155.03 138.28,141.56C138.32,135.06 138.25,129.01 138.29,122.51C138.33,111.15 138.26,100.25 138.3,88.87C138.33,84.6 138.25,80.81 138.28,76.56C138.32,71.06 138.24,66 138.29,60.58C139.49,59.19 140.46,57.49 141.67,57.3C144.72,56.82 147.88,57.01 151.46,57.03C159.95,57.06 167.97,57 176.46,57.03C229.46,57.13 281.99,57.15 334.52,57.15C335.35,57.15 336.18,57.02 337.46,57.03C346.62,57.05 355.31,57 364.46,57.02C372.28,57.05 379.64,57 387,56.94z"
            stroke="none" />
        <path
            fill="#050505"
            d="M390.06,71C390,66.97 389.94,62.94 389.97,58.46C397.72,63.52 406.03,68.33 412.89,74.71C424.08,85.1 434.92,96 444.82,107.62C457.15,122.09 466.97,138.44 474.41,155.96C479.93,168.95 485.22,182.18 488.97,195.75C495.78,220.43 497.78,245.61 496.33,271.36C494.76,299.21 488.61,325.76 477.87,351.22C472.85,363.11 465.81,374.16 459.39,385.43C450.09,401.73 437.99,415.84 424.6,428.91C406.35,446.75 385.77,461.32 362.86,472.52C341.03,483.2 318.1,490.56 294.05,494.29C262.58,499.17 231.47,497.76 200.43,490.27C175.87,484.34 153.01,474.73 131.54,461.73C99.51,442.34 73.5,416.59 53.73,384.87C35.74,356.01 23.85,324.72 19.27,290.84C11.98,236.87 21.32,185.83 48.02,138.5C67.1,104.66 93.29,77.02 126.11,55.75C146.69,42.4 168.64,32.09 192.17,25.66C224.44,16.84 257.23,14.4 290.61,19.27C323.77,24.11 354.41,35.33 382.97,52.57C384.46,53.46 385.53,55.04 386.9,56.62C379.64,57 372.28,57.05 364.32,56.72C362.7,55.51 361.82,54.37 360.66,53.9C347.44,48.53 334.46,42.36 320.87,38.18C293.45,29.74 265.29,27.34 236.6,29.85C207.9,32.36 180.89,40.29 155.17,53C153.53,53.81 152.38,55.6 151,56.94C147.88,57.01 144.72,56.82 141.67,57.3C140.46,57.49 139.49,59.19 137.94,60.68C109.02,77.85 85.88,100.31 67.22,127.32C47.22,156.28 35.15,188.44 29.58,223.19C26.09,244.93 26.4,266.65 29.14,288.31C33.23,320.64 44.41,350.63 61.36,378.38C77.29,404.45 98.64,425.34 123.95,442.34C144.29,455.99 165.74,467.52 188.78,475.78C205.61,481.82 223.21,485.22 241.06,485.83C261.16,486.52 281.23,486.2 301.2,482.14C332.72,475.73 361.59,463.5 388.01,445.41C403.3,434.94 416.8,422.42 429.17,408.53C440.54,395.76 450.09,381.83 458.41,367.02C466.01,353.49 471.27,338.98 476.3,324.3C482.73,305.48 485.19,285.99 486.68,266.52C488.33,244.91 485.02,223.38 480.01,202.27C474.78,180.22 465.32,159.82 454.33,140.16C443.44,120.69 429.21,103.71 412.89,88.61C405.86,82.11 397.7,76.83 390.06,71z"
            stroke="none" />
        <path
            fill="#0D0D0D"
            d="M138.17,77.01C138.25,80.81 138.33,84.6 137.98,89.21C137.96,91.68 137.84,93.34 137.42,95.11C135.43,96.29 133.64,97.22 132.09,98.46C117.51,110.2 104.57,123.42 93.58,138.7C80.22,157.28 70.03,177.26 63.74,199.26C58.04,219.21 54.34,239.5 55.15,260.28C55.58,271.35 56.89,282.5 59.07,293.36C61.58,305.86 64.43,318.49 68.98,330.34C78.76,355.76 93.34,378.47 112.6,397.79C120.39,405.6 129.6,412 138.16,419.04C138.4,420.46 138.63,421.87 138.91,423.62C140.71,423.71 142.44,423.8 144.69,424.3C147.21,426.63 148.95,428.98 151.26,430.39C166.25,439.53 182.17,446.69 199,451.63C224.17,459.02 249.78,461.65 276.02,459.16C306.57,456.26 334.94,446.89 361.24,431.39C391.55,413.52 415.36,388.9 433.04,358.6C448.45,332.19 457.24,303.38 459.76,272.99C461.93,246.73 458.95,220.75 450.65,195.61C441.91,169.11 429.05,144.8 410.26,123.99C404.09,117.15 396.82,111.3 390.06,105C390,99.31 389.94,93.61 390.31,87.55C392.41,88.21 394.35,88.98 395.73,90.33C404.26,98.68 412.75,107.08 421.1,115.61C436.24,131.06 446.72,149.63 455.07,169.27C460.51,182.06 464.56,195.48 468.46,208.85C470.76,216.75 472.36,225.05 472.8,233.25C473.52,246.33 473.21,259.47 472.96,272.59C472.55,293.44 467.46,313.37 460.48,332.92C452.38,355.6 440.73,376.38 424.76,394.26C412.96,407.49 400.53,420.65 386.4,431.21C355.63,454.21 320.82,468.09 282.26,472.44C262.71,474.65 243.39,474.2 224.07,471.46C198.23,467.79 173.95,459.3 151.21,446.54C132.68,436.15 115.67,423.53 100.97,408.22C87.12,393.8 75.32,377.73 65.95,359.91C56.29,341.52 48.46,322.4 44.48,302.04C39.88,278.46 38.37,254.72 41.64,230.6C44.42,210.12 49.82,190.54 57.36,171.48C63.32,156.42 72.02,142.85 81.39,129.65C92.86,113.51 106.67,99.66 121.78,87.1C126.66,83.03 132.67,80.33 138.17,77.01z"
            stroke="none" />
        <path
            fill="#090909"
            d="M138.28,76.56C132.67,80.33 126.66,83.03 121.78,87.1C106.67,99.66 92.86,113.51 81.39,129.65C72.02,142.85 63.32,156.42 57.36,171.48C49.82,190.54 44.42,210.12 41.64,230.6C38.37,254.72 39.88,278.46 44.48,302.04C48.46,322.4 56.29,341.52 65.95,359.91C75.32,377.73 87.12,393.8 100.97,408.22C115.67,423.53 132.68,436.15 151.21,446.54C173.95,459.3 198.23,467.79 224.07,471.46C243.39,474.2 262.71,474.65 282.26,472.44C320.82,468.09 355.63,454.21 386.4,431.21C400.53,420.65 412.96,407.49 424.76,394.26C440.73,376.38 452.38,355.6 460.48,332.92C467.46,313.37 472.55,293.44 472.96,272.59C473.21,259.47 473.52,246.33 472.8,233.25C472.36,225.05 470.76,216.75 468.46,208.85C464.56,195.48 460.51,182.06 455.07,169.27C446.72,149.63 436.24,131.06 421.1,115.61C412.75,107.08 404.26,98.68 395.73,90.33C394.35,88.98 392.41,88.21 390.4,87.09C390,81.97 389.94,76.95 389.97,71.46C397.7,76.83 405.86,82.11 412.89,88.61C429.21,103.71 443.44,120.69 454.33,140.16C465.32,159.82 474.78,180.22 480.01,202.27C485.02,223.38 488.33,244.91 486.68,266.52C485.19,285.99 482.73,305.48 476.3,324.3C471.27,338.98 466.01,353.49 458.41,367.02C450.09,381.83 440.54,395.76 429.17,408.53C416.8,422.42 403.3,434.94 388.01,445.41C361.59,463.5 332.72,475.73 301.2,482.14C281.23,486.2 261.16,486.52 241.06,485.83C223.21,485.22 205.61,481.82 188.78,475.78C165.74,467.52 144.29,455.99 123.95,442.34C98.64,425.34 77.29,404.45 61.36,378.38C44.41,350.63 33.23,320.64 29.14,288.31C26.4,266.65 26.09,244.93 29.58,223.19C35.15,188.44 47.22,156.28 67.22,127.32C85.88,100.31 109.02,77.85 137.82,61.05C138.24,66 138.32,71.06 138.28,76.56z"
            stroke="none" />
        <path
            fill="#222222"
            d="M212.79,418.36C212.73,403.55 212.67,388.75 213.07,373.51C219.17,374.5 224.78,376.1 230.46,377.32C259,383.49 286.51,380.25 312.55,367.1C341.27,352.59 361.49,329.92 372.69,299.87C381.74,275.58 382.29,250.6 376.07,225.28C371.29,205.83 361.89,189 348.69,174.4C330.77,154.59 308.5,141.83 282.21,136.31C265.87,132.89 249.52,132.76 233.19,136.1C226.36,137.49 219.62,139.32 212.84,140.96C212.84,133.87 212.84,126.79 212.84,119.21C246.1,119.21 279.09,119.21 312.6,119.63C315.09,121.64 316.9,123.53 319.07,124.77C324.71,127.97 330.85,130.38 336.18,134.01C353.09,145.53 367.59,159.44 378.98,176.73C399.01,207.14 406.09,240.27 402,276.16C399.42,298.85 390.41,319.22 378.52,338.22C370.21,351.49 359.12,362.55 346.56,372.25C321.17,391.85 292.59,402.04 260.68,402.93C246.51,403.33 232.43,401.96 218.76,397.86C214.59,396.61 212.91,398.01 213.02,402.37C213.15,407.7 212.88,413.03 212.79,418.36z"
            stroke="none" />
        <path
            fill="#1B1B1B"
            d="M212.7,418.63C212.88,413.03 213.15,407.7 213.02,402.37C212.91,398.01 214.59,396.61 218.76,397.86C232.43,401.96 246.51,403.33 260.68,402.93C292.59,402.04 321.17,391.85 346.56,372.25C359.12,362.55 370.21,351.49 378.52,338.22C390.41,319.22 399.42,298.85 402,276.16C406.09,240.27 399.01,207.14 378.98,176.73C367.59,159.44 353.09,145.53 336.18,134.01C330.85,130.38 324.71,127.97 319.07,124.77C316.9,123.53 315.09,121.64 313.06,119.71C327.69,119.32 342.38,119.27 357.59,119.63C359.05,121.35 359.77,122.93 360.98,123.92C374.86,135.23 386.98,148.11 397.06,162.98C414.8,189.15 424.42,218.11 425.83,249.49C427.32,282.67 419.05,313.68 402.29,342.47C388.35,366.41 369.6,385.55 346.18,400.2C318.2,417.68 287.61,426.61 254.71,425.73C240.71,425.35 226.78,421.99 212.83,419.99C212.75,419.63 212.68,419.26 212.7,418.63z"
            stroke="none" />
        <path
            fill="#101010"
            d="M389.97,105.46C396.82,111.3 404.09,117.15 410.26,123.99C429.05,144.8 441.91,169.11 450.65,195.61C458.95,220.75 461.93,246.73 459.76,272.99C457.24,303.38 448.45,332.19 433.04,358.6C415.36,388.9 391.55,413.52 361.24,431.39C334.94,446.89 306.57,456.26 276.02,459.16C249.78,461.65 224.17,459.02 199,451.63C182.17,446.69 166.25,439.53 151.26,430.39C148.95,428.98 147.21,426.63 145.1,424.38C152.36,424 159.72,423.95 167.68,424.28C169.15,425.42 169.9,426.45 170.9,426.88C180.54,430.97 190.03,435.53 199.93,438.86C220.99,445.93 242.79,447.7 264.95,447.1C287.21,446.5 308.48,441.73 328.97,433.45C357.24,422.02 381.21,404.56 401.19,381.45C414.16,366.44 424.46,349.9 432.29,331.74C439.65,314.65 443.65,296.77 446.44,278.4C449.16,260.47 447.76,242.9 444.91,225.29C442.25,208.81 437.58,192.9 430.36,177.76C422.72,161.76 413.58,146.77 401.92,133.35C397.8,128.61 393.92,123.67 389.93,118.83C389.92,114.52 389.9,110.22 389.97,105.46z"
            stroke="none" />
        <path
            fill="#262626"
            d="M212.72,141.42C219.62,139.32 226.36,137.49 233.19,136.1C249.52,132.76 265.87,132.89 282.21,136.31C308.5,141.83 330.77,154.59 348.69,174.4C361.89,189 371.29,205.83 376.07,225.28C382.29,250.6 381.74,275.58 372.69,299.87C361.49,329.92 341.27,352.59 312.55,367.1C286.51,380.25 259,383.49 230.46,377.32C224.78,376.1 219.17,374.5 213.18,373.06C212.76,367.35 212.69,361.65 213.07,355.5C215.14,355.41 216.82,355.58 218.35,356.17C237.48,363.5 257.24,364.97 277.2,361.35C322.75,353.1 357.62,314.95 363.01,268.17C363.83,267.17 365.36,266.18 365.36,265.17C365.51,245.74 365.47,226.31 365.47,205.96C361.38,205.96 357.65,205.96 353.37,205.56C342.97,185.43 327.66,171.07 308.45,160.78C280.01,145.55 250.44,144.15 220.05,154.13C217.69,154.91 215.23,155.35 212.82,155.95C212.75,151.26 212.67,146.56 212.72,141.42z"
            stroke="none" />
        <path
            fill="#141414"
            d="M389.48,118.93C393.92,123.67 397.8,128.61 401.92,133.35C413.58,146.77 422.72,161.76 430.36,177.76C437.58,192.9 442.25,208.81 444.91,225.29C447.76,242.9 449.16,260.47 446.44,278.4C443.65,296.77 439.65,314.65 432.29,331.74C424.46,349.9 414.16,366.44 401.19,381.45C381.21,404.56 357.6,408.6 328.97,433.45C308.48,441.73 287.21,446.5 264.95,447.1C242.79,447.7 220.99,445.93 199.93,438.86C190.03,435.53 180.54,430.97 170.9,426.88C169.9,426.45 169.15,425.42 168.14,424.36C178.36,424.01 188.72,423.95 199.68,424.28C203.18,426.19 205.9,428.42 208.97,429.09C218.71,431.23 228.53,433.04 238.39,434.52C257.56,437.41 276.75,435.8 295.41,431.67C328.64,424.33 357.6,408.6 382.08,384.61C403.25,363.86 418.04,339.44 427.19,311.38C431.81,297.2 435.12,282.82 435.06,267.83C435.01,256.39 436.09,244.72 434.25,233.55C431.9,219.36 428.18,205.17 423.05,191.74C418.34,179.41 411.98,167.41 404.5,156.53C396.83,145.39 386.89,135.81 378.04,125.47C376.47,123.64 375.34,121.43 374.01,119.39C379.02,119.27 384.02,119.15 389.48,118.93z"
            stroke="none" />
        <path
            fill="#1B1B1B"
            d="M138.17,332.06C138.25,345.4 138.33,358.74 137.99,372.47C134.52,369.88 131.27,367.08 128.46,363.89C116.67,350.5 107.86,335.21 101.33,318.74C95.44,303.86 92.33,288.28 90.49,272.27C88.49,254.79 90.05,237.69 93.59,220.83C98.82,195.91 109.83,173.35 125.67,153.41C129.09,149.11 131.46,142.97 138.17,142.02C138.24,155.03 138.31,168.04 138.02,181.66C136.03,184.34 134.12,186.26 132.84,188.53C122.96,205.98 116.77,224.76 115.24,244.69C113,273.75 119.13,301.28 133.13,326.91C134.24,328.94 136.46,330.36 138.17,332.06z"
            stroke="none" />
        <path
            fill="#2E2E2E"
            d="M212.7,156.41C215.23,155.35 217.69,154.91 220.05,154.13C250.44,144.15 280.01,145.55 308.45,160.78C327.66,171.07 342.97,185.43 352.91,205.5C335.98,205.87 318.96,205.91 301.37,205.58C299.68,204.02 298.74,202.59 297.43,201.67C288.36,195.29 278.57,190.93 267.36,189.48C252.8,187.6 238.93,188.82 225.88,195.97C221.55,198.35 217.16,200.61 212.81,202.92C212.73,187.57 212.66,172.22 212.7,156.41z"
            stroke="none" />
        <path
            fill="#2E2E2E"
            d="M362.54,268.1C357.62,314.95 322.75,353.1 277.2,361.35C257.24,364.97 237.48,363.5 218.35,356.17C216.82,355.58 215.14,355.41 213.18,355.05C212.75,344.02 212.68,332.99 213.03,321.55C214.8,321.77 216.22,322.28 217.5,323.02C242.74,337.63 268.39,338.02 293.96,324.39C316.4,312.43 329.35,293.41 333.01,268.17C342.7,268.12 352.39,268.08 362.54,268.1z"
            stroke="none" />
        <path
            fill="#171717"
            d="M373.55,119.3C375.34,121.43 376.47,123.64 378.04,125.47C386.89,135.81 396.83,145.39 404.5,156.53C411.98,167.41 418.34,179.41 423.05,191.74C428.18,205.17 431.9,219.36 434.25,233.55C436.09,244.72 435.01,256.39 435.06,267.83C435.12,282.82 431.81,297.2 427.19,311.38C418.04,339.44 403.25,363.86 382.08,384.61C357.6,408.6 328.64,424.33 295.41,431.67C276.75,435.8 257.56,437.41 238.39,434.52C228.53,433.04 218.71,431.23 208.97,429.09C205.9,428.42 203.18,426.19 200.15,424.36C203.11,423.98 206.27,424.18 209.32,423.69C210.54,423.5 211.51,421.78 212.71,420.37C226.78,421.99 240.71,425.35 254.71,425.73C287.61,426.61 318.2,417.68 346.18,400.2C369.6,385.55 388.35,366.41 402.29,342.47C419.05,313.68 427.32,282.67 425.83,249.49C424.42,218.11 414.8,189.15 397.06,162.98C386.98,148.11 374.86,135.23 360.98,123.92C359.77,122.93 359.05,121.35 358.05,119.71C363.03,119.32 368.06,119.27 373.55,119.3z"
            stroke="none" />
        <path
            fill="#141414"
            d="M137.72,95C137.84,93.34 137.96,91.68 138.13,89.68C138.26,100.25 138.33,111.15 137.98,122.57C135.73,124.2 133.55,124.97 132.15,126.48C125.73,133.43 119.01,140.21 113.32,147.75C92.39,175.51 80.29,206.95 77.28,241.49C74.85,269.35 78.8,296.66 88.98,322.82C98.16,346.38 111.88,367.08 129.87,384.87C132.29,387.27 135.39,389 138.17,391.04C138.25,395.72 138.33,400.4 137.97,405.52C133.17,402.72 128.41,399.92 124.52,396.21C98.23,371.16 80.56,340.92 71.15,305.89C63.82,278.63 62.82,250.99 67.75,223.28C73.08,193.32 84.55,165.75 103.41,141.76C112.1,130.71 121.71,120.13 132.29,110.93C137.39,106.5 138.24,102.52 137.9,96.99C137.86,96.33 137.78,95.66 137.72,95z"
            stroke="none" />
        <path
            fill="#171717"
            d="M138.29,390.58C135.39,389 132.29,387.27 129.87,384.87C111.88,367.08 98.16,346.38 88.98,322.82C78.8,296.66 74.85,269.35 77.28,241.49C80.29,206.95 92.39,175.51 113.32,147.75C119.01,140.21 125.73,133.43 132.15,126.48C133.55,124.97 135.73,124.2 137.86,123.03C138.25,129.01 138.32,135.06 138.28,141.56C131.46,142.97 129.09,149.11 125.67,153.41C109.83,173.35 98.82,195.91 93.59,220.83C90.05,237.69 88.49,254.79 90.49,272.27C92.33,288.28 95.44,303.86 101.33,318.74C107.86,335.21 116.67,350.5 128.46,363.89C131.27,367.08 134.52,369.88 137.87,372.93C138.25,378.7 138.33,384.41 138.29,390.58z"
            stroke="none" />
        <path
            fill="#101010"
            d="M137.42,95.11C137.78,95.66 137.86,96.33 137.9,96.99C138.24,102.52 137.39,106.5 132.29,110.93C121.71,120.13 112.1,130.71 103.41,141.76C84.55,165.75 73.08,193.32 67.75,223.28C62.82,250.99 63.82,278.63 71.15,305.89C80.56,340.92 98.23,371.16 124.52,396.21C128.41,399.92 133.17,402.72 137.85,405.97C138.25,410.08 138.33,414.17 138.29,418.65C129.6,412 120.39,405.6 112.6,397.79C93.34,378.47 78.76,355.76 68.98,330.34C64.43,318.49 61.58,305.86 59.07,293.36C56.89,282.5 55.58,271.35 55.15,260.28C54.34,239.5 58.04,219.21 63.74,199.26C70.03,177.26 80.22,157.28 93.58,138.7C104.57,123.42 117.51,110.2 132.09,98.46C133.64,97.22 135.43,96.29 137.42,95.11z"
            stroke="none" />
        <path
            fill="#403A3A"
            d="M212.81,291.01C212.81,283.57 212.81,276.13 212.81,268.03C244.7,268.03 276.39,268.03 308.53,268.49C304.74,299.94 262.98,325.26 227.45,301.98C222.36,298.65 217.68,294.68 212.81,291.01z"
            stroke="none" />
        <path
            fill="#353535"
            d="M212.71,291.47C217.68,294.68 222.36,298.65 227.45,301.98C262.98,325.26 304.74,299.94 308.99,268.55C316.7,268.12 324.39,268.08 332.54,268.1C329.35,293.41 316.4,312.43 293.96,324.39C268.39,338.02 242.74,337.63 217.5,323.02C216.22,322.28 214.8,321.77 213.14,321.1C212.76,311.34 212.68,301.63 212.71,291.47z"
            stroke="none" />
        <path
            fill="#262626"
            d="M138.29,331.6C136.46,330.36 134.24,328.94 133.13,326.91C119.13,301.28 113,273.75 115.24,244.69C116.77,224.76 122.96,205.98 132.84,188.53C134.12,186.26 136.03,184.34 137.91,182.11C138.29,182.79 138.5,183.61 138.5,184.43C138.49,233.33 138.45,282.24 138.29,331.6z"
            stroke="none" />
        <path
            fill="#090909"
            d="M151.46,57.03C152.38,55.6 153.53,53.81 155.17,53C180.89,40.29 207.9,32.36 236.6,29.85C265.29,27.34 293.45,29.74 320.87,38.18C334.46,42.36 347.44,48.53 360.66,53.9C361.82,54.37 362.7,55.51 363.86,56.64C355.31,57 346.62,57.05 337.31,56.72C335.49,55.51 334.38,54.44 333.06,53.91C311.38,45.13 288.56,41.39 265.44,40.17C240.15,38.84 215.35,42.81 191.19,50.32C185.94,51.95 181.05,54.71 176,56.94C167.97,57 159.95,57.06 151.46,57.03z"
            stroke="none" />
        <path
            fill="#0D0D0D"
            d="M176.46,57.03C181.05,54.71 185.94,51.95 191.19,50.32C215.35,42.81 240.15,38.84 265.44,40.17C288.56,41.39 311.38,45.13 333.06,53.91C334.38,54.44 335.49,55.51 336.85,56.64C336.18,57.02 335.35,57.15 334.52,57.15C281.99,57.15 229.46,57.13 176.46,57.03z"
            stroke="none" />
        <path
            fill="#403A3A"
            d="M212.71,203.31C217.16,200.61 221.55,198.35 225.88,195.97C238.93,188.82 252.8,187.6 267.36,189.48C278.57,190.93 288.36,195.29 297.43,201.67C298.74,202.59 299.68,204.02 300.9,205.53C272.67,205.9 244.32,205.99 215.98,205.93C214.85,205.92 213.73,204.47 212.71,203.31z"
            stroke="none" />
    </g>
</svg>