<svg width="1584" height="396" viewBox="0 0 1584 396" fill="none" xmlns="http://www.w3.org/2000/svg">
<g clip-path="url(#clip0_2047_2542)">
<path d="M1584 0H0V396H1584V0Z" fill="url(#paint0_linear_2047_2542)"/>
<g opacity="0.65" filter="url(#filter0_f_2047_2542)">
<path d="M567.6 366.3H66.0001C48.4001 366.3 39.6001 359.7 39.6001 346.5V49.5C39.6001 36.3 48.4001 29.7 66.0001 29.7H1518C1535.6 29.7 1544.4 36.3 1544.4 49.5V346.5C1544.4 359.7 1535.6 366.3 1518 366.3H1016.4" stroke="url(#paint1_linear_2047_2542)" stroke-width="12" stroke-linecap="round"/>
</g>
<path d="M567.6 366.3H66.0001C48.4001 366.3 39.6001 359.7 39.6001 346.5V49.5C39.6001 36.3 48.4001 29.7 66.0001 29.7H1518C1535.6 29.7 1544.4 36.3 1544.4 49.5V346.5C1544.4 359.7 1535.6 366.3 1518 366.3H1016.4" stroke="url(#paint2_linear_2047_2542)" stroke-width="4" stroke-linecap="round"/>
<path d="M661.173 372.47V359.379H663.116V361.425H663.287C663.559 360.726 664 360.183 664.608 359.797C665.215 359.405 665.946 359.209 666.798 359.209C667.662 359.209 668.38 359.405 668.954 359.797C669.534 360.183 669.985 360.726 670.309 361.425H670.446C670.781 360.748 671.284 360.211 671.954 359.814C672.625 359.41 673.429 359.209 674.366 359.209C675.537 359.209 676.494 359.575 677.238 360.308C677.983 361.035 678.355 362.169 678.355 363.709V372.47H676.343V363.709C676.343 362.743 676.079 362.052 675.551 361.638C675.022 361.223 674.4 361.015 673.684 361.015C672.764 361.015 672.051 361.294 671.545 361.851C671.039 362.402 670.787 363.101 670.787 363.947V372.47H668.741V363.504C668.741 362.76 668.5 362.16 668.017 361.706C667.534 361.246 666.912 361.015 666.15 361.015C665.627 361.015 665.139 361.155 664.684 361.433C664.235 361.711 663.872 362.098 663.593 362.592C663.321 363.081 663.184 363.646 663.184 364.288V372.47H661.173ZM685.885 372.777C685.055 372.777 684.302 372.621 683.626 372.308C682.95 371.99 682.413 371.532 682.015 370.936C681.617 370.334 681.419 369.606 681.419 368.754C681.419 368.004 681.566 367.396 681.862 366.93C682.157 366.459 682.552 366.089 683.046 365.822C683.541 365.555 684.086 365.356 684.683 365.226C685.285 365.089 685.89 364.981 686.498 364.902C687.294 364.8 687.939 364.723 688.433 364.672C688.933 364.615 689.296 364.521 689.524 364.39C689.757 364.26 689.873 364.032 689.873 363.709V363.64C689.873 362.8 689.643 362.146 689.183 361.68C688.728 361.214 688.038 360.981 687.112 360.981C686.152 360.981 685.399 361.192 684.853 361.612C684.308 362.032 683.924 362.481 683.703 362.959L681.794 362.277C682.135 361.481 682.589 360.862 683.157 360.419C683.731 359.97 684.356 359.657 685.032 359.481C685.714 359.3 686.385 359.209 687.044 359.209C687.464 359.209 687.947 359.26 688.492 359.362C689.044 359.459 689.575 359.66 690.086 359.967C690.603 360.274 691.032 360.737 691.373 361.356C691.714 361.976 691.885 362.805 691.885 363.845V372.47H689.873V370.697H689.771C689.635 370.981 689.407 371.285 689.089 371.609C688.771 371.933 688.348 372.209 687.819 372.436C687.291 372.663 686.646 372.777 685.885 372.777ZM686.191 370.97C686.987 370.97 687.657 370.814 688.203 370.501C688.754 370.189 689.169 369.785 689.447 369.291C689.731 368.797 689.873 368.277 689.873 367.731V365.89C689.788 365.993 689.6 366.086 689.311 366.172C689.027 366.251 688.697 366.322 688.322 366.385C687.953 366.442 687.592 366.493 687.24 366.538C686.893 366.578 686.612 366.612 686.396 366.64C685.873 366.709 685.385 366.819 684.93 366.973C684.481 367.121 684.117 367.345 683.839 367.646C683.566 367.942 683.43 368.345 683.43 368.856C683.43 369.555 683.689 370.084 684.206 370.442C684.728 370.794 685.39 370.97 686.191 370.97ZM701.249 359.379V361.084H694.465V359.379H701.249ZM696.442 356.243H698.453V368.72C698.453 369.288 698.536 369.714 698.701 369.998C698.871 370.277 699.087 370.464 699.348 370.561C699.615 370.652 699.897 370.697 700.192 370.697C700.414 370.697 700.595 370.686 700.738 370.663C700.88 370.635 700.993 370.612 701.078 370.595L701.488 372.402C701.351 372.453 701.161 372.504 700.916 372.555C700.672 372.612 700.363 372.64 699.988 372.64C699.419 372.64 698.863 372.518 698.317 372.274C697.777 372.03 697.328 371.657 696.97 371.157C696.618 370.657 696.442 370.027 696.442 369.265V356.243ZM709.968 359.379V361.084H703.184V359.379H709.968ZM705.161 356.243H707.172V368.72C707.172 369.288 707.255 369.714 707.419 369.998C707.59 370.277 707.806 370.464 708.067 370.561C708.334 370.652 708.615 370.697 708.911 370.697C709.132 370.697 709.314 370.686 709.456 370.663C709.598 370.635 709.712 370.612 709.797 370.595L710.206 372.402C710.07 372.453 709.88 372.504 709.635 372.555C709.391 372.612 709.081 372.64 708.706 372.64C708.138 372.64 707.581 372.518 707.036 372.274C706.496 372.03 706.047 371.657 705.689 371.157C705.337 370.657 705.161 370.027 705.161 369.265V356.243ZM715.286 364.595V372.47H713.274V355.015H715.286V361.425H715.456C715.763 360.748 716.223 360.211 716.837 359.814C717.456 359.41 718.28 359.209 719.309 359.209C720.201 359.209 720.982 359.388 721.652 359.746C722.323 360.098 722.843 360.64 723.212 361.373C723.587 362.101 723.774 363.027 723.774 364.152V372.47H721.763V364.288C721.763 363.248 721.493 362.444 720.953 361.876C720.419 361.302 719.678 361.015 718.729 361.015C718.07 361.015 717.479 361.155 716.956 361.433C716.439 361.711 716.03 362.118 715.729 362.652C715.434 363.186 715.286 363.834 715.286 364.595ZM732.943 372.743C731.681 372.743 730.593 372.464 729.679 371.907C728.769 371.345 728.068 370.561 727.573 369.555C727.085 368.544 726.84 367.368 726.84 366.027C726.84 364.686 727.085 363.504 727.573 362.481C728.068 361.453 728.755 360.652 729.636 360.078C730.522 359.498 731.556 359.209 732.738 359.209C733.42 359.209 734.093 359.322 734.758 359.55C735.423 359.777 736.028 360.146 736.573 360.657C737.119 361.163 737.554 361.834 737.877 362.669C738.201 363.504 738.363 364.532 738.363 365.754V366.606H728.272V364.868H736.318C736.318 364.129 736.17 363.47 735.875 362.89C735.585 362.311 735.17 361.853 734.63 361.518C734.096 361.183 733.465 361.015 732.738 361.015C731.937 361.015 731.244 361.214 730.659 361.612C730.079 362.004 729.633 362.515 729.321 363.146C729.008 363.777 728.852 364.453 728.852 365.175V366.334C728.852 367.322 729.022 368.16 729.363 368.848C729.71 369.53 730.19 370.05 730.804 370.407C731.417 370.76 732.13 370.936 732.943 370.936C733.471 370.936 733.948 370.862 734.375 370.714C734.806 370.561 735.179 370.334 735.491 370.032C735.804 369.726 736.045 369.345 736.215 368.89L738.159 369.436C737.954 370.095 737.61 370.675 737.127 371.175C736.644 371.669 736.048 372.055 735.338 372.334C734.627 372.606 733.829 372.743 732.943 372.743ZM744.389 372.47L740.4 359.379H742.514L745.343 369.402H745.48L748.275 359.379H750.423L753.184 369.368H753.321L756.15 359.379H758.264L754.275 372.47H752.298L749.434 362.413H749.23L746.366 372.47H744.389ZM768.423 364.05V365.925H760.787V364.05H768.423ZM771.962 377.379V359.379H773.905V361.459H774.144C774.291 361.231 774.496 360.942 774.757 360.589C775.024 360.231 775.405 359.913 775.899 359.635C776.399 359.351 777.076 359.209 777.928 359.209C779.03 359.209 780.002 359.484 780.843 360.035C781.684 360.586 782.34 361.368 782.811 362.379C783.283 363.39 783.519 364.584 783.519 365.959C783.519 367.345 783.283 368.547 782.811 369.564C782.34 370.575 781.686 371.359 780.851 371.916C780.016 372.467 779.053 372.743 777.962 372.743C777.121 372.743 776.448 372.603 775.942 372.325C775.436 372.041 775.047 371.72 774.774 371.362C774.502 370.998 774.291 370.697 774.144 370.459H773.973V377.379H771.962ZM773.939 365.925C773.939 366.913 774.084 367.785 774.374 368.541C774.664 369.291 775.087 369.879 775.644 370.305C776.201 370.726 776.882 370.936 777.689 370.936C778.53 370.936 779.232 370.714 779.794 370.271C780.363 369.822 780.789 369.22 781.073 368.464C781.363 367.703 781.507 366.856 781.507 365.925C781.507 365.004 781.365 364.175 781.081 363.436C780.803 362.692 780.38 362.103 779.811 361.672C779.249 361.234 778.541 361.015 777.689 361.015C776.871 361.015 776.184 361.223 775.627 361.638C775.07 362.047 774.649 362.621 774.365 363.359C774.081 364.092 773.939 364.947 773.939 365.925ZM791.905 372.743C790.723 372.743 789.686 372.461 788.794 371.899C787.908 371.336 787.215 370.55 786.715 369.538C786.22 368.527 785.973 367.345 785.973 365.993C785.973 364.629 786.22 363.439 786.715 362.422C787.215 361.405 787.908 360.615 788.794 360.052C789.686 359.49 790.723 359.209 791.905 359.209C793.087 359.209 794.121 359.49 795.007 360.052C795.899 360.615 796.593 361.405 797.087 362.422C797.587 363.439 797.837 364.629 797.837 365.993C797.837 367.345 797.587 368.527 797.087 369.538C796.593 370.55 795.899 371.336 795.007 371.899C794.121 372.461 793.087 372.743 791.905 372.743ZM791.905 370.936C792.803 370.936 793.541 370.706 794.121 370.246C794.701 369.785 795.13 369.18 795.408 368.43C795.686 367.68 795.826 366.868 795.826 365.993C795.826 365.118 795.686 364.302 795.408 363.547C795.13 362.791 794.701 362.18 794.121 361.714C793.541 361.248 792.803 361.015 791.905 361.015C791.007 361.015 790.269 361.248 789.689 361.714C789.11 362.18 788.681 362.791 788.402 363.547C788.124 364.302 787.985 365.118 787.985 365.993C787.985 366.868 788.124 367.68 788.402 368.43C788.681 369.18 789.11 369.785 789.689 370.246C790.269 370.706 791.007 370.936 791.905 370.936ZM806.225 372.743C805.044 372.743 804.007 372.461 803.115 371.899C802.228 371.336 801.535 370.55 801.035 369.538C800.541 368.527 800.294 367.345 800.294 365.993C800.294 364.629 800.541 363.439 801.035 362.422C801.535 361.405 802.228 360.615 803.115 360.052C804.007 359.49 805.044 359.209 806.225 359.209C807.407 359.209 808.441 359.49 809.328 360.052C810.22 360.615 810.913 361.405 811.407 362.422C811.907 363.439 812.157 364.629 812.157 365.993C812.157 367.345 811.907 368.527 811.407 369.538C810.913 370.55 810.22 371.336 809.328 371.899C808.441 372.461 807.407 372.743 806.225 372.743ZM806.225 370.936C807.123 370.936 807.862 370.706 808.441 370.246C809.021 369.785 809.45 369.18 809.728 368.43C810.007 367.68 810.146 366.868 810.146 365.993C810.146 365.118 810.007 364.302 809.728 363.547C809.45 362.791 809.021 362.18 808.441 361.714C807.862 361.248 807.123 361.015 806.225 361.015C805.328 361.015 804.589 361.248 804.01 361.714C803.43 362.18 803.001 362.791 802.723 363.547C802.444 364.302 802.305 365.118 802.305 365.993C802.305 366.868 802.444 367.68 802.723 368.43C803.001 369.18 803.43 369.785 804.01 370.246C804.589 370.706 805.328 370.936 806.225 370.936ZM817.239 355.015V372.47H815.228V355.015H817.239ZM822.389 372.606C821.968 372.606 821.608 372.456 821.306 372.155C821.005 371.853 820.855 371.493 820.855 371.072C820.855 370.652 821.005 370.291 821.306 369.99C821.608 369.689 821.968 369.538 822.389 369.538C822.809 369.538 823.17 369.689 823.471 369.99C823.772 370.291 823.923 370.652 823.923 371.072C823.923 371.351 823.852 371.606 823.71 371.839C823.573 372.072 823.389 372.26 823.156 372.402C822.929 372.538 822.673 372.606 822.389 372.606ZM832.816 377.652C831.845 377.652 831.01 377.527 830.311 377.277C829.612 377.032 829.029 376.709 828.564 376.305C828.103 375.907 827.737 375.481 827.464 375.027L829.066 373.902C829.248 374.14 829.478 374.413 829.757 374.72C830.035 375.032 830.416 375.302 830.899 375.53C831.387 375.763 832.027 375.879 832.816 375.879C833.873 375.879 834.745 375.623 835.433 375.112C836.12 374.601 836.464 373.8 836.464 372.709V370.05H836.294C836.146 370.288 835.936 370.584 835.663 370.936C835.396 371.282 835.01 371.592 834.504 371.865C834.004 372.132 833.328 372.265 832.475 372.265C831.419 372.265 830.47 372.015 829.629 371.515C828.794 371.015 828.132 370.288 827.643 369.334C827.16 368.379 826.919 367.22 826.919 365.856C826.919 364.515 827.154 363.348 827.626 362.353C828.098 361.353 828.754 360.581 829.595 360.035C830.436 359.484 831.407 359.209 832.51 359.209C833.362 359.209 834.038 359.351 834.538 359.635C835.044 359.913 835.43 360.231 835.697 360.589C835.97 360.942 836.18 361.231 836.328 361.459H836.532V359.379H838.475V372.845C838.475 373.97 838.22 374.885 837.708 375.589C837.203 376.3 836.521 376.819 835.663 377.149C834.811 377.484 833.862 377.652 832.816 377.652ZM832.748 370.459C833.555 370.459 834.237 370.274 834.794 369.905C835.35 369.535 835.774 369.004 836.064 368.311C836.353 367.618 836.498 366.788 836.498 365.822C836.498 364.879 836.356 364.047 836.072 363.325C835.788 362.603 835.367 362.038 834.811 361.629C834.254 361.22 833.566 361.015 832.748 361.015C831.896 361.015 831.186 361.231 830.617 361.663C830.055 362.095 829.632 362.675 829.348 363.402C829.069 364.129 828.93 364.936 828.93 365.822C828.93 366.731 829.072 367.535 829.356 368.234C829.646 368.927 830.072 369.473 830.635 369.871C831.203 370.263 831.907 370.459 832.748 370.459ZM842.157 372.47V359.379H844.169V372.47H842.157ZM843.18 357.197C842.788 357.197 842.45 357.064 842.166 356.797C841.887 356.53 841.748 356.209 841.748 355.834C841.748 355.459 841.887 355.138 842.166 354.871C842.45 354.603 842.788 354.47 843.18 354.47C843.572 354.47 843.907 354.603 844.186 354.871C844.47 355.138 844.612 355.459 844.612 355.834C844.612 356.209 844.47 356.53 844.186 356.797C843.907 357.064 843.572 357.197 843.18 357.197ZM853.546 359.379V361.084H846.762V359.379H853.546ZM848.739 356.243H850.75V368.72C850.75 369.288 850.833 369.714 850.997 369.998C851.168 370.277 851.384 370.464 851.645 370.561C851.912 370.652 852.193 370.697 852.489 370.697C852.711 370.697 852.892 370.686 853.034 370.663C853.176 370.635 853.29 370.612 853.375 370.595L853.784 372.402C853.648 372.453 853.458 372.504 853.213 372.555C852.969 372.612 852.659 372.64 852.284 372.64C851.716 372.64 851.159 372.518 850.614 372.274C850.074 372.03 849.625 371.657 849.267 371.157C848.915 370.657 848.739 370.027 848.739 369.265V356.243ZM858.864 364.595V372.47H856.853V355.015H858.864V361.425H859.034C859.341 360.748 859.801 360.211 860.415 359.814C861.034 359.41 861.858 359.209 862.887 359.209C863.779 359.209 864.56 359.388 865.23 359.746C865.901 360.098 866.421 360.64 866.79 361.373C867.165 362.101 867.353 363.027 867.353 364.152V372.47H865.341V364.288C865.341 363.248 865.071 362.444 864.532 361.876C863.997 361.302 863.256 361.015 862.307 361.015C861.648 361.015 861.057 361.155 860.534 361.433C860.017 361.711 859.608 362.118 859.307 362.652C859.012 363.186 858.864 363.834 858.864 364.595ZM879.282 367.118V359.379H881.294V372.47H879.282V370.254H879.146C878.839 370.919 878.362 371.484 877.714 371.95C877.066 372.41 876.248 372.64 875.26 372.64C874.441 372.64 873.714 372.461 873.078 372.103C872.441 371.74 871.941 371.194 871.578 370.467C871.214 369.734 871.032 368.811 871.032 367.697V359.379H873.044V367.561C873.044 368.515 873.311 369.277 873.845 369.845C874.385 370.413 875.072 370.697 875.907 370.697C876.407 370.697 876.916 370.569 877.433 370.314C877.956 370.058 878.393 369.666 878.745 369.138C879.103 368.609 879.282 367.936 879.282 367.118ZM885.25 372.47V355.015H887.262V361.459H887.432C887.58 361.231 887.784 360.942 888.046 360.589C888.313 360.231 888.693 359.913 889.188 359.635C889.688 359.351 890.364 359.209 891.216 359.209C892.318 359.209 893.29 359.484 894.131 360.035C894.972 360.586 895.628 361.368 896.1 362.379C896.571 363.39 896.807 364.584 896.807 365.959C896.807 367.345 896.571 368.547 896.1 369.564C895.628 370.575 894.975 371.359 894.139 371.916C893.304 372.467 892.341 372.743 891.25 372.743C890.409 372.743 889.736 372.603 889.23 372.325C888.725 372.041 888.336 371.72 888.063 371.362C887.79 370.998 887.58 370.697 887.432 370.459H887.193V372.47H885.25ZM887.228 365.925C887.228 366.913 887.372 367.785 887.662 368.541C887.952 369.291 888.375 369.879 888.932 370.305C889.489 370.726 890.171 370.936 890.978 370.936C891.818 370.936 892.52 370.714 893.083 370.271C893.651 369.822 894.077 369.22 894.361 368.464C894.651 367.703 894.796 366.856 894.796 365.925C894.796 365.004 894.654 364.175 894.37 363.436C894.091 362.692 893.668 362.103 893.1 361.672C892.537 361.234 891.83 361.015 890.978 361.015C890.159 361.015 889.472 361.223 888.915 361.638C888.358 362.047 887.938 362.621 887.654 363.359C887.37 364.092 887.228 364.947 887.228 365.925ZM901.35 372.606C900.929 372.606 900.568 372.456 900.267 372.155C899.966 371.853 899.816 371.493 899.816 371.072C899.816 370.652 899.966 370.291 900.267 369.99C900.568 369.689 900.929 369.538 901.35 369.538C901.77 369.538 902.131 369.689 902.432 369.99C902.733 370.291 902.884 370.652 902.884 371.072C902.884 371.351 902.813 371.606 902.671 371.839C902.534 372.072 902.35 372.26 902.117 372.402C901.889 372.538 901.634 372.606 901.35 372.606ZM906.493 372.47V359.379H908.505V372.47H906.493ZM907.516 357.197C907.124 357.197 906.786 357.064 906.502 356.797C906.223 356.53 906.084 356.209 906.084 355.834C906.084 355.459 906.223 355.138 906.502 354.871C906.786 354.603 907.124 354.47 907.516 354.47C907.908 354.47 908.243 354.603 908.522 354.871C908.806 355.138 908.948 355.459 908.948 355.834C908.948 356.209 908.806 356.53 908.522 356.797C908.243 357.064 907.908 357.197 907.516 357.197ZM917.507 372.743C916.325 372.743 915.288 372.461 914.396 371.899C913.51 371.336 912.816 370.55 912.316 369.538C911.822 368.527 911.575 367.345 911.575 365.993C911.575 364.629 911.822 363.439 912.316 362.422C912.816 361.405 913.51 360.615 914.396 360.052C915.288 359.49 916.325 359.209 917.507 359.209C918.689 359.209 919.723 359.49 920.609 360.052C921.501 360.615 922.194 361.405 922.689 362.422C923.189 363.439 923.439 364.629 923.439 365.993C923.439 367.345 923.189 368.527 922.689 369.538C922.194 370.55 921.501 371.336 920.609 371.899C919.723 372.461 918.689 372.743 917.507 372.743ZM917.507 370.936C918.404 370.936 919.143 370.706 919.723 370.246C920.302 369.785 920.731 369.18 921.01 368.43C921.288 367.68 921.427 366.868 921.427 365.993C921.427 365.118 921.288 364.302 921.01 363.547C920.731 362.791 920.302 362.18 919.723 361.714C919.143 361.248 918.404 361.015 917.507 361.015C916.609 361.015 915.87 361.248 915.291 361.714C914.711 362.18 914.282 362.791 914.004 363.547C913.725 364.302 913.586 365.118 913.586 365.993C913.586 366.868 913.725 367.68 914.004 368.43C914.282 369.18 914.711 369.785 915.291 370.246C915.87 370.706 916.609 370.936 917.507 370.936Z" fill="#D1D5DB"/>
<path d="M189.64 85.656C189.436 83.5935 188.558 81.9913 187.007 80.8492C185.456 79.7072 183.351 79.1362 180.692 79.1362C178.885 79.1362 177.359 79.3918 176.115 79.9032C174.871 80.3975 173.916 81.0879 173.251 81.9742C172.604 82.8606 172.28 83.8663 172.28 84.9913C172.246 85.9288 172.442 86.747 172.868 87.4458C173.311 88.1447 173.916 88.7498 174.683 89.2612C175.45 89.7555 176.337 90.1901 177.342 90.5651C178.348 90.9231 179.422 91.2299 180.564 91.4856L185.268 92.6106C187.552 93.122 189.649 93.8038 191.558 94.656C193.467 95.5083 195.121 96.5566 196.518 97.8009C197.916 99.0452 198.998 100.511 199.765 102.199C200.55 103.886 200.95 105.821 200.967 108.003C200.95 111.207 200.132 113.986 198.513 116.338C196.91 118.673 194.592 120.488 191.558 121.784C188.541 123.062 184.902 123.701 180.64 123.701C176.413 123.701 172.731 123.054 169.595 121.758C166.476 120.463 164.038 118.545 162.283 116.005C160.544 113.449 159.632 110.287 159.547 106.52H170.26C170.379 108.275 170.882 109.741 171.768 110.917C172.672 112.076 173.873 112.954 175.373 113.551C176.89 114.13 178.604 114.42 180.513 114.42C182.388 114.42 184.015 114.148 185.396 113.602C186.794 113.057 187.876 112.298 188.643 111.326C189.41 110.355 189.794 109.238 189.794 107.977C189.794 106.801 189.444 105.812 188.746 105.011C188.064 104.21 187.058 103.528 185.729 102.966C184.416 102.403 182.805 101.892 180.896 101.432L175.194 99.9998C170.78 98.9259 167.294 97.247 164.737 94.9629C162.18 92.6788 160.91 89.6021 160.927 85.7327C160.91 82.5623 161.754 79.7924 163.459 77.4231C165.18 75.0538 167.541 73.2043 170.541 71.8748C173.541 70.5452 176.95 69.8805 180.768 69.8805C184.655 69.8805 188.047 70.5452 190.944 71.8748C193.859 73.2043 196.126 75.0538 197.746 77.4231C199.365 79.7924 200.2 82.5367 200.251 85.656H189.64ZM230.274 123.727C226.302 123.727 222.867 122.883 219.97 121.196C217.089 119.491 214.865 117.122 213.296 114.088C211.728 111.037 210.944 107.5 210.944 103.477C210.944 99.4202 211.728 95.8748 213.296 92.8407C214.865 89.7896 217.089 87.4202 219.97 85.7327C222.867 84.0282 226.302 83.1759 230.274 83.1759C234.245 83.1759 237.671 84.0282 240.552 85.7327C243.45 87.4202 245.683 89.7896 247.251 92.8407C248.819 95.8748 249.603 99.4202 249.603 103.477C249.603 107.5 248.819 111.037 247.251 114.088C245.683 117.122 243.45 119.491 240.552 121.196C237.671 122.883 234.245 123.727 230.274 123.727ZM230.325 115.29C232.132 115.29 233.64 114.778 234.85 113.755C236.061 112.716 236.973 111.301 237.586 109.511C238.217 107.721 238.532 105.684 238.532 103.4C238.532 101.116 238.217 99.0793 237.586 97.2896C236.973 95.4998 236.061 94.085 234.85 93.0452C233.64 92.0055 232.132 91.4856 230.325 91.4856C228.501 91.4856 226.967 92.0055 225.723 93.0452C224.495 94.085 223.566 95.4998 222.936 97.2896C222.322 99.0793 222.015 101.116 222.015 103.4C222.015 105.684 222.322 107.721 222.936 109.511C223.566 111.301 224.495 112.716 225.723 113.755C226.967 114.778 228.501 115.29 230.325 115.29ZM282.125 83.6873V91.8691H257.886V83.6873H282.125ZM263.435 122.96V80.8492C263.435 78.0026 263.989 75.6418 265.097 73.7668C266.222 71.8918 267.756 70.4856 269.699 69.5481C271.642 68.6106 273.849 68.1418 276.321 68.1418C277.991 68.1418 279.517 68.2697 280.898 68.5254C282.295 68.781 283.335 69.0112 284.017 69.2157L282.074 77.3975C281.648 77.2612 281.119 77.1333 280.489 77.014C279.875 76.8947 279.244 76.835 278.597 76.835C276.994 76.835 275.878 77.21 275.247 77.96C274.616 78.693 274.301 79.7242 274.301 81.0538V122.96H263.435ZM313.988 83.6873V91.8691H290.338V83.6873H313.988ZM295.707 74.2782H306.599V110.892C306.599 111.898 306.752 112.682 307.059 113.244C307.366 113.79 307.792 114.173 308.338 114.395C308.9 114.616 309.548 114.727 310.281 114.727C310.792 114.727 311.304 114.684 311.815 114.599C312.326 114.497 312.718 114.42 312.991 114.369L314.704 122.474C314.159 122.645 313.392 122.841 312.403 123.062C311.414 123.301 310.213 123.446 308.798 123.497C306.173 123.599 303.872 123.25 301.895 122.449C299.934 121.648 298.409 120.403 297.318 118.716C296.227 117.028 295.69 114.898 295.707 112.324V74.2782ZM333.151 122.96L322.463 83.6873H333.483L339.568 110.074H339.926L346.267 83.6873H357.082L363.526 109.92H363.858L369.841 83.6873H380.835L370.173 122.96H358.642L351.892 98.2612H351.406L344.656 122.96H333.151ZM402.165 123.701C399.659 123.701 397.426 123.267 395.466 122.398C393.505 121.511 391.954 120.207 390.812 118.486C389.687 116.747 389.125 114.582 389.125 111.991C389.125 109.809 389.525 107.977 390.326 106.494C391.128 105.011 392.218 103.818 393.599 102.915C394.98 102.011 396.548 101.329 398.304 100.869C400.076 100.409 401.934 100.085 403.878 99.8975C406.162 99.6589 408.003 99.4373 409.4 99.2327C410.798 99.0112 411.812 98.6873 412.443 98.2612C413.074 97.835 413.389 97.2043 413.389 96.3691V96.2157C413.389 94.5964 412.878 93.3435 411.855 92.4572C410.849 91.5708 409.417 91.1276 407.559 91.1276C405.599 91.1276 404.04 91.5623 402.88 92.4316C401.721 93.2839 400.954 94.3577 400.579 95.6532L390.505 94.835C391.017 92.4487 392.022 90.3862 393.522 88.6475C395.022 86.8918 396.957 85.5452 399.326 84.6077C401.713 83.6532 404.474 83.1759 407.611 83.1759C409.792 83.1759 411.88 83.4316 413.875 83.943C415.886 84.4543 417.667 85.247 419.218 86.3208C420.787 87.3947 422.022 88.7754 422.926 90.4629C423.829 92.1333 424.281 94.1362 424.281 96.4714V122.96H413.951V117.514H413.645C413.014 118.741 412.17 119.824 411.113 120.761C410.057 121.682 408.787 122.406 407.304 122.934C405.821 123.446 404.108 123.701 402.165 123.701ZM405.284 116.184C406.886 116.184 408.301 115.869 409.528 115.238C410.755 114.591 411.718 113.721 412.417 112.63C413.116 111.54 413.466 110.304 413.466 108.923V104.755C413.125 104.977 412.656 105.182 412.059 105.369C411.48 105.54 410.824 105.701 410.091 105.855C409.358 105.991 408.625 106.119 407.892 106.238C407.159 106.341 406.494 106.434 405.897 106.52C404.619 106.707 403.503 107.005 402.548 107.415C401.593 107.824 400.852 108.378 400.324 109.076C399.795 109.758 399.531 110.611 399.531 111.633C399.531 113.116 400.068 114.25 401.142 115.034C402.233 115.801 403.613 116.184 405.284 116.184ZM437.051 122.96V83.6873H447.611V90.5396H448.02C448.736 88.1021 449.938 86.2612 451.625 85.0168C453.313 83.7555 455.256 83.1248 457.455 83.1248C458 83.1248 458.588 83.1589 459.219 83.2271C459.85 83.2952 460.404 83.389 460.881 83.5083V93.1731C460.369 93.0197 459.662 92.8833 458.759 92.764C457.855 92.6447 457.029 92.585 456.279 92.585C454.676 92.585 453.244 92.9345 451.983 93.6333C450.739 94.3151 449.75 95.2697 449.017 96.497C448.301 97.7242 447.943 99.139 447.943 100.741V122.96H437.051ZM486.902 123.727C482.862 123.727 479.385 122.909 476.47 121.273C473.572 119.619 471.339 117.284 469.771 114.267C468.203 111.233 467.419 107.645 467.419 103.503C467.419 99.4629 468.203 95.9174 469.771 92.8663C471.339 89.8151 473.547 87.4373 476.393 85.7327C479.257 84.0282 482.615 83.1759 486.467 83.1759C489.058 83.1759 491.47 83.5935 493.703 84.4288C495.953 85.247 497.913 86.4827 499.584 88.1362C501.271 89.7896 502.584 91.8691 503.521 94.3748C504.459 96.8634 504.927 99.7782 504.927 103.119V106.111H471.765V99.3606H494.675C494.675 97.7924 494.334 96.4032 493.652 95.193C492.97 93.9827 492.024 93.0367 490.814 92.3549C489.621 91.656 488.231 91.3066 486.646 91.3066C484.993 91.3066 483.527 91.6901 482.248 92.4572C480.987 93.2072 479.998 94.2214 479.282 95.4998C478.567 96.7612 478.2 98.1674 478.183 99.7185V106.136C478.183 108.079 478.541 109.758 479.257 111.173C479.99 112.588 481.021 113.679 482.351 114.446C483.68 115.213 485.257 115.596 487.081 115.596C488.291 115.596 489.399 115.426 490.405 115.085C491.41 114.744 492.271 114.233 492.987 113.551C493.703 112.869 494.248 112.034 494.623 111.045L504.697 111.71C504.186 114.13 503.138 116.244 501.552 118.051C499.984 119.841 497.956 121.238 495.467 122.244C492.996 123.233 490.14 123.727 486.902 123.727ZM537.544 122.96V70.5964H572.828V79.7242H548.615V92.2015H571.013V101.329H548.615V113.832H572.93V122.96H537.544ZM596.637 100.255V122.96H585.745V83.6873H596.126V90.6163H596.586C597.456 88.3322 598.913 86.5254 600.958 85.1958C603.004 83.8492 605.484 83.1759 608.399 83.1759C611.126 83.1759 613.504 83.7725 615.532 84.9657C617.561 86.1589 619.137 87.8634 620.262 90.0793C621.387 92.2782 621.95 94.9032 621.95 97.9543V122.96H611.058V99.8975C611.075 97.4941 610.461 95.6191 609.217 94.2725C607.973 92.9089 606.26 92.2271 604.078 92.2271C602.612 92.2271 601.316 92.5424 600.191 93.1731C599.083 93.8038 598.214 94.7242 597.583 95.9345C596.97 97.1276 596.654 98.568 596.637 100.255ZM652.548 138.505C649.019 138.505 645.994 138.02 643.471 137.048C640.965 136.094 638.971 134.79 637.488 133.136C636.005 131.483 635.042 129.625 634.599 127.562L644.673 126.207C644.979 126.991 645.465 127.724 646.13 128.406C646.795 129.088 647.673 129.633 648.763 130.042C649.871 130.469 651.218 130.682 652.803 130.682C655.173 130.682 657.124 130.102 658.658 128.943C660.21 127.801 660.985 125.883 660.985 123.19V116.005H660.525C660.048 117.096 659.332 118.128 658.377 119.099C657.423 120.071 656.195 120.863 654.695 121.477C653.195 122.091 651.406 122.398 649.326 122.398C646.377 122.398 643.692 121.716 641.272 120.352C638.869 118.971 636.951 116.866 635.519 114.037C634.104 111.19 633.397 107.594 633.397 103.247C633.397 98.7981 634.121 95.0822 635.57 92.0992C637.019 89.1163 638.945 86.8833 641.349 85.4004C643.769 83.9174 646.42 83.1759 649.3 83.1759C651.499 83.1759 653.34 83.5509 654.823 84.3009C656.306 85.0339 657.499 85.9543 658.403 87.0623C659.323 88.1532 660.031 89.2271 660.525 90.2839H660.934V83.6873H671.749V123.344C671.749 126.684 670.931 129.48 669.295 131.73C667.658 133.98 665.391 135.667 662.494 136.792C659.613 137.934 656.298 138.505 652.548 138.505ZM652.778 114.216C654.533 114.216 656.016 113.781 657.227 112.912C658.454 112.025 659.391 110.764 660.039 109.128C660.704 107.474 661.036 105.497 661.036 103.196C661.036 100.895 660.712 98.9004 660.065 97.2129C659.417 95.5083 658.479 94.1873 657.252 93.2498C656.025 92.3123 654.533 91.8435 652.778 91.8435C650.988 91.8435 649.479 92.3293 648.252 93.3009C647.025 94.2555 646.096 95.585 645.465 97.2896C644.835 98.9941 644.519 100.963 644.519 103.196C644.519 105.463 644.835 107.423 645.465 109.076C646.113 110.713 647.042 111.983 648.252 112.886C649.479 113.773 650.988 114.216 652.778 114.216ZM684.737 122.96V83.6873H695.629V122.96H684.737ZM690.209 78.6248C688.589 78.6248 687.2 78.0879 686.041 77.014C684.899 75.9231 684.328 74.6191 684.328 73.1021C684.328 71.6021 684.899 70.3151 686.041 69.2413C687.2 68.1504 688.589 67.6049 690.209 67.6049C691.828 67.6049 693.209 68.1504 694.351 69.2413C695.51 70.3151 696.089 71.6021 696.089 73.1021C696.089 74.6191 695.51 75.9231 694.351 77.014C693.209 78.0879 691.828 78.6248 690.209 78.6248ZM719.566 100.255V122.96H708.674V83.6873H719.055V90.6163H719.515C720.384 88.3322 721.842 86.5254 723.887 85.1958C725.933 83.8492 728.413 83.1759 731.327 83.1759C734.055 83.1759 736.433 83.7725 738.461 84.9657C740.489 86.1589 742.066 87.8634 743.191 90.0793C744.316 92.2782 744.879 94.9032 744.879 97.9543V122.96H733.987V99.8975C734.004 97.4941 733.39 95.6191 732.146 94.2725C730.901 92.9089 729.188 92.2271 727.006 92.2271C725.541 92.2271 724.245 92.5424 723.12 93.1731C722.012 93.8038 721.143 94.7242 720.512 95.9345C719.898 97.1276 719.583 98.568 719.566 100.255ZM775.681 123.727C771.641 123.727 768.164 122.909 765.249 121.273C762.351 119.619 760.118 117.284 758.55 114.267C756.982 111.233 756.198 107.645 756.198 103.503C756.198 99.4629 756.982 95.9174 758.55 92.8663C760.118 89.8151 762.326 87.4373 765.172 85.7327C768.036 84.0282 771.394 83.1759 775.246 83.1759C777.837 83.1759 780.249 83.5935 782.482 84.4288C784.732 85.247 786.692 86.4827 788.363 88.1362C790.05 89.7896 791.363 91.8691 792.3 94.3748C793.238 96.8634 793.706 99.7782 793.706 103.119V106.111H760.544V99.3606H783.454C783.454 97.7924 783.113 96.4032 782.431 95.193C781.749 93.9827 780.803 93.0367 779.593 92.3549C778.4 91.656 777.01 91.3066 775.425 91.3066C773.772 91.3066 772.306 91.6901 771.027 92.4572C769.766 93.2072 768.777 94.2214 768.062 95.4998C767.346 96.7612 766.979 98.1674 766.962 99.7185V106.136C766.962 108.079 767.32 109.758 768.036 111.173C768.769 112.588 769.8 113.679 771.13 114.446C772.459 115.213 774.036 115.596 775.86 115.596C777.07 115.596 778.178 115.426 779.184 115.085C780.189 114.744 781.05 114.233 781.766 113.551C782.482 112.869 783.027 112.034 783.402 111.045L793.476 111.71C792.965 114.13 791.917 116.244 790.331 118.051C788.763 119.841 786.735 121.238 784.246 122.244C781.775 123.233 778.919 123.727 775.681 123.727ZM823.032 123.727C818.992 123.727 815.515 122.909 812.6 121.273C809.703 119.619 807.47 117.284 805.901 114.267C804.333 111.233 803.549 107.645 803.549 103.503C803.549 99.4629 804.333 95.9174 805.901 92.8663C807.47 89.8151 809.677 87.4373 812.524 85.7327C815.387 84.0282 818.745 83.1759 822.597 83.1759C825.188 83.1759 827.6 83.5935 829.833 84.4288C832.083 85.247 834.043 86.4827 835.714 88.1362C837.401 89.7896 838.714 91.8691 839.651 94.3748C840.589 96.8634 841.058 99.7782 841.058 103.119V106.111H807.896V99.3606H830.805C830.805 97.7924 830.464 96.4032 829.782 95.193C829.1 93.9827 828.154 93.0367 826.944 92.3549C825.751 91.656 824.362 91.3066 822.776 91.3066C821.123 91.3066 819.657 91.6901 818.379 92.4572C817.117 93.2072 816.129 94.2214 815.413 95.4998C814.697 96.7612 814.33 98.1674 814.313 99.7185V106.136C814.313 108.079 814.671 109.758 815.387 111.173C816.12 112.588 817.151 113.679 818.481 114.446C819.811 115.213 821.387 115.596 823.211 115.596C824.421 115.596 825.529 115.426 826.535 115.085C827.541 114.744 828.401 114.233 829.117 113.551C829.833 112.869 830.379 112.034 830.754 111.045L840.828 111.71C840.316 114.13 839.268 116.244 837.683 118.051C836.114 119.841 834.086 121.238 831.597 122.244C829.126 123.233 826.271 123.727 823.032 123.727ZM852.486 122.96V83.6873H863.045V90.5396H863.454C864.17 88.1021 865.372 86.2612 867.059 85.0168C868.747 83.7555 870.69 83.1248 872.889 83.1248C873.434 83.1248 874.023 83.1589 874.653 83.2271C875.284 83.2952 875.838 83.389 876.315 83.5083V93.1731C875.804 93.0197 875.096 92.8833 874.193 92.764C873.29 92.6447 872.463 92.585 871.713 92.585C870.111 92.585 868.679 92.9345 867.417 93.6333C866.173 94.3151 865.184 95.2697 864.452 96.497C863.736 97.7242 863.378 99.139 863.378 100.741V122.96H852.486Z" fill="url(#paint3_linear_2047_2542)"/>
<path d="M913.07 49.6847V133.406H908.099V49.6847H913.07Z" fill="white"/>
<path d="M980.495 70.5964H991.566V104.602C991.566 108.42 990.654 111.761 988.83 114.625C987.023 117.488 984.492 119.721 981.236 121.324C977.981 122.909 974.188 123.701 969.858 123.701C965.512 123.701 961.711 122.909 958.455 121.324C955.199 119.721 952.668 117.488 950.861 114.625C949.054 111.761 948.151 108.42 948.151 104.602V70.5964H959.222V103.656C959.222 105.65 959.657 107.423 960.526 108.974C961.412 110.525 962.657 111.744 964.259 112.63C965.861 113.517 967.728 113.96 969.858 113.96C972.006 113.96 973.873 113.517 975.458 112.63C977.06 111.744 978.296 110.525 979.165 108.974C980.052 107.423 980.495 105.65 980.495 103.656V70.5964ZM1016.07 70.5964V122.96H1004.99V70.5964H1016.07ZM1069.04 122.96H1050.48V70.5964H1069.19C1074.46 70.5964 1079 71.6447 1082.8 73.7413C1086.6 75.8208 1089.52 78.8123 1091.57 82.7157C1093.63 86.6191 1094.66 91.2896 1094.66 96.7271C1094.66 102.182 1093.63 106.869 1091.57 110.79C1089.52 114.71 1086.58 117.719 1082.75 119.815C1078.93 121.912 1074.36 122.96 1069.04 122.96ZM1061.55 113.474H1068.58C1071.85 113.474 1074.61 112.895 1076.84 111.736C1079.09 110.559 1080.78 108.744 1081.9 106.29C1083.04 103.818 1083.61 100.63 1083.61 96.7271C1083.61 92.8577 1083.04 89.6958 1081.9 87.2413C1080.78 84.7867 1079.1 82.9799 1076.86 81.8208C1074.63 80.6617 1071.88 80.0822 1068.61 80.0822H1061.55V113.474ZM1124.87 123.727C1120.83 123.727 1117.36 122.909 1114.44 121.273C1111.54 119.619 1109.31 117.284 1107.74 114.267C1106.18 111.233 1105.39 107.645 1105.39 103.503C1105.39 99.4629 1106.18 95.9174 1107.74 92.8663C1109.31 89.8151 1111.52 87.4373 1114.37 85.7327C1117.23 84.0282 1120.59 83.1759 1124.44 83.1759C1127.03 83.1759 1129.44 83.5935 1131.68 84.4288C1133.93 85.247 1135.89 86.4827 1137.56 88.1362C1139.24 89.7896 1140.56 91.8691 1141.49 94.3748C1142.43 96.8634 1142.9 99.7782 1142.9 103.119V106.111H1109.74V99.3606H1132.65C1132.65 97.7924 1132.31 96.4032 1131.62 95.193C1130.94 93.9827 1130 93.0367 1128.79 92.3549C1127.59 91.656 1126.2 91.3066 1124.62 91.3066C1122.97 91.3066 1121.5 91.6901 1120.22 92.4572C1118.96 93.2072 1117.97 94.2214 1117.25 95.4998C1116.54 96.7612 1116.17 98.1674 1116.16 99.7185V106.136C1116.16 108.079 1116.51 109.758 1117.23 111.173C1117.96 112.588 1118.99 113.679 1120.32 114.446C1121.65 115.213 1123.23 115.596 1125.05 115.596C1126.26 115.596 1127.37 115.426 1128.38 115.085C1129.38 114.744 1130.24 114.233 1130.96 113.551C1131.68 112.869 1132.22 112.034 1132.6 111.045L1142.67 111.71C1142.16 114.13 1141.11 116.244 1139.52 118.051C1137.96 119.841 1135.93 121.238 1133.44 122.244C1130.97 123.233 1128.11 123.727 1124.87 123.727ZM1189.89 83.6873L1176.16 122.96H1163.88L1150.15 83.6873H1161.66L1169.82 111.787H1170.22L1178.36 83.6873H1189.89ZM1216.41 123.727C1212.37 123.727 1208.9 122.909 1205.98 121.273C1203.08 119.619 1200.85 117.284 1199.28 114.267C1197.71 111.233 1196.93 107.645 1196.93 103.503C1196.93 99.4629 1197.71 95.9174 1199.28 92.8663C1200.85 89.8151 1203.06 87.4373 1205.9 85.7327C1208.77 84.0282 1212.13 83.1759 1215.98 83.1759C1218.57 83.1759 1220.98 83.5935 1223.21 84.4288C1225.46 85.247 1227.42 86.4827 1229.09 88.1362C1230.78 89.7896 1232.09 91.8691 1233.03 94.3748C1233.97 96.8634 1234.44 99.7782 1234.44 103.119V106.111H1201.28V99.3606H1224.19C1224.19 97.7924 1223.84 96.4032 1223.16 95.193C1222.48 93.9827 1221.53 93.0367 1220.32 92.3549C1219.13 91.656 1217.74 91.3066 1216.16 91.3066C1214.5 91.3066 1213.04 91.6901 1211.76 92.4572C1210.5 93.2072 1209.51 94.2214 1208.79 95.4998C1208.08 96.7612 1207.71 98.1674 1207.69 99.7185V106.136C1207.69 108.079 1208.05 109.758 1208.77 111.173C1209.5 112.588 1210.53 113.679 1211.86 114.446C1213.19 115.213 1214.77 115.596 1216.59 115.596C1217.8 115.596 1218.91 115.426 1219.92 115.085C1220.92 114.744 1221.78 114.233 1222.5 113.551C1223.21 112.869 1223.76 112.034 1224.13 111.045L1234.21 111.71C1233.7 114.13 1232.65 116.244 1231.06 118.051C1229.49 119.841 1227.47 121.238 1224.98 122.244C1222.51 123.233 1219.65 123.727 1216.41 123.727ZM1256.76 70.5964V122.96H1245.87V70.5964H1256.76ZM1287.55 123.727C1283.58 123.727 1280.14 122.883 1277.24 121.196C1274.36 119.491 1272.14 117.122 1270.57 114.088C1269 111.037 1268.22 107.5 1268.22 103.477C1268.22 99.4202 1269 95.8748 1270.57 92.8407C1272.14 89.7896 1274.36 87.4202 1277.24 85.7327C1280.14 84.0282 1283.58 83.1759 1287.55 83.1759C1291.52 83.1759 1294.95 84.0282 1297.83 85.7327C1300.72 87.4202 1302.96 89.7896 1304.52 92.8407C1306.09 95.8748 1306.88 99.4202 1306.88 103.477C1306.88 107.5 1306.09 111.037 1304.52 114.088C1302.96 117.122 1300.72 119.491 1297.83 121.196C1294.95 122.883 1291.52 123.727 1287.55 123.727ZM1287.6 115.29C1289.41 115.29 1290.91 114.778 1292.12 113.755C1293.33 112.716 1294.25 111.301 1294.86 109.511C1295.49 107.721 1295.81 105.684 1295.81 103.4C1295.81 101.116 1295.49 99.0793 1294.86 97.2896C1294.25 95.4998 1293.33 94.085 1292.12 93.0452C1290.91 92.0055 1289.41 91.4856 1287.6 91.4856C1285.77 91.4856 1284.24 92.0055 1283 93.0452C1281.77 94.085 1280.84 95.4998 1280.21 97.2896C1279.6 99.0793 1279.29 101.116 1279.29 103.4C1279.29 105.684 1279.6 107.721 1280.21 109.511C1280.84 111.301 1281.77 112.716 1283 113.755C1284.24 114.778 1285.77 115.29 1287.6 115.29ZM1318.28 137.687V83.6873H1329.02V90.2839H1329.5C1329.98 89.2271 1330.67 88.1532 1331.58 87.0623C1332.5 85.9543 1333.69 85.0339 1335.15 84.3009C1336.64 83.5509 1338.48 83.1759 1340.68 83.1759C1343.54 83.1759 1346.18 83.9259 1348.6 85.4259C1351.02 86.9089 1352.96 89.1504 1354.41 92.1504C1355.86 95.1333 1356.58 98.8748 1356.58 103.375C1356.58 107.755 1355.87 111.454 1354.46 114.471C1353.06 117.471 1351.15 119.747 1348.73 121.298C1346.33 122.832 1343.63 123.599 1340.65 123.599C1338.54 123.599 1336.74 123.25 1335.26 122.551C1333.79 121.852 1332.59 120.974 1331.65 119.917C1330.71 118.844 1330 117.761 1329.5 116.67H1329.17V137.687H1318.28ZM1328.94 103.324C1328.94 105.659 1329.27 107.696 1329.91 109.434C1330.56 111.173 1331.5 112.528 1332.73 113.5C1333.95 114.454 1335.44 114.932 1337.2 114.932C1338.97 114.932 1340.47 114.446 1341.7 113.474C1342.93 112.486 1343.86 111.122 1344.49 109.383C1345.13 107.628 1345.46 105.608 1345.46 103.324C1345.46 101.057 1345.14 99.0623 1344.51 97.3407C1343.88 95.6191 1342.95 94.2725 1341.73 93.3009C1340.5 92.3293 1338.99 91.8435 1337.2 91.8435C1335.43 91.8435 1333.93 92.3123 1332.7 93.2498C1331.49 94.1873 1330.56 95.5168 1329.91 97.2384C1329.27 98.96 1328.94 100.988 1328.94 103.324ZM1386.06 123.727C1382.02 123.727 1378.54 122.909 1375.63 121.273C1372.73 119.619 1370.5 117.284 1368.93 114.267C1367.36 111.233 1366.58 107.645 1366.58 103.503C1366.58 99.4629 1367.36 95.9174 1368.93 92.8663C1370.5 89.8151 1372.7 87.4373 1375.55 85.7327C1378.41 84.0282 1381.77 83.1759 1385.63 83.1759C1388.22 83.1759 1390.63 83.5935 1392.86 84.4288C1395.11 85.247 1397.07 86.4827 1398.74 88.1362C1400.43 89.7896 1401.74 91.8691 1402.68 94.3748C1403.62 96.8634 1404.09 99.7782 1404.09 103.119V106.111H1370.92V99.3606H1393.83C1393.83 97.7924 1393.49 96.4032 1392.81 95.193C1392.13 93.9827 1391.18 93.0367 1389.97 92.3549C1388.78 91.656 1387.39 91.3066 1385.8 91.3066C1384.15 91.3066 1382.68 91.6901 1381.41 92.4572C1380.15 93.2072 1379.16 94.2214 1378.44 95.4998C1377.72 96.7612 1377.36 98.1674 1377.34 99.7185V106.136C1377.34 108.079 1377.7 109.758 1378.41 111.173C1379.15 112.588 1380.18 113.679 1381.51 114.446C1382.84 115.213 1384.41 115.596 1386.24 115.596C1387.45 115.596 1388.56 115.426 1389.56 115.085C1390.57 114.744 1391.43 114.233 1392.15 113.551C1392.86 112.869 1393.41 112.034 1393.78 111.045L1403.86 111.71C1403.34 114.13 1402.3 116.244 1400.71 118.051C1399.14 119.841 1397.11 121.238 1394.63 122.244C1392.15 123.233 1389.3 123.727 1386.06 123.727ZM1415.51 122.96V83.6873H1426.07V90.5396H1426.48C1427.2 88.1021 1428.4 86.2612 1430.09 85.0168C1431.77 83.7555 1433.72 83.1248 1435.92 83.1248C1436.46 83.1248 1437.05 83.1589 1437.68 83.2271C1438.31 83.2952 1438.87 83.389 1439.34 83.5083V93.1731C1438.83 93.0197 1438.12 92.8833 1437.22 92.764C1436.32 92.6447 1435.49 92.585 1434.74 92.585C1433.14 92.585 1431.71 92.9345 1430.45 93.6333C1429.2 94.3151 1428.21 95.2697 1427.48 96.497C1426.76 97.7242 1426.41 99.139 1426.41 100.741V122.96H1415.51Z" fill="url(#paint4_linear_2047_2542)"/>
<path d="M573.861 316H565.611V292.727H573.93C576.271 292.727 578.286 293.193 579.975 294.125C581.665 295.049 582.964 296.379 583.873 298.114C584.79 299.848 585.248 301.924 585.248 304.341C585.248 306.765 584.79 308.848 583.873 310.591C582.964 312.333 581.657 313.67 579.952 314.602C578.255 315.534 576.225 316 573.861 316ZM570.532 311.784H573.657C575.111 311.784 576.335 311.527 577.327 311.011C578.327 310.489 579.077 309.682 579.577 308.591C580.085 307.492 580.339 306.076 580.339 304.341C580.339 302.621 580.085 301.216 579.577 300.125C579.077 299.034 578.331 298.231 577.339 297.716C576.346 297.201 575.123 296.943 573.668 296.943H570.532V311.784ZM588.893 316V292.727H604.575V296.784H593.813V302.33H603.768V306.386H593.813V311.943H604.62V316H588.893ZM621.111 299.42C621.021 298.504 620.63 297.792 619.941 297.284C619.252 296.777 618.316 296.523 617.134 296.523C616.331 296.523 615.653 296.636 615.1 296.864C614.547 297.083 614.123 297.39 613.827 297.784C613.54 298.178 613.396 298.625 613.396 299.125C613.38 299.542 613.468 299.905 613.657 300.216C613.854 300.527 614.123 300.795 614.464 301.023C614.805 301.242 615.199 301.436 615.646 301.602C616.093 301.761 616.57 301.898 617.077 302.011L619.168 302.511C620.183 302.739 621.115 303.042 621.964 303.42C622.812 303.799 623.547 304.265 624.168 304.818C624.79 305.371 625.271 306.023 625.611 306.773C625.96 307.523 626.138 308.383 626.146 309.352C626.138 310.777 625.774 312.011 625.055 313.057C624.343 314.095 623.312 314.902 621.964 315.477C620.623 316.045 619.005 316.33 617.111 316.33C615.233 316.33 613.596 316.042 612.202 315.466C610.816 314.89 609.733 314.038 608.952 312.909C608.18 311.773 607.774 310.367 607.736 308.693H612.498C612.551 309.473 612.774 310.125 613.168 310.648C613.57 311.163 614.104 311.553 614.771 311.818C615.445 312.076 616.206 312.205 617.055 312.205C617.888 312.205 618.611 312.083 619.225 311.841C619.846 311.598 620.327 311.261 620.668 310.83C621.009 310.398 621.18 309.902 621.18 309.341C621.18 308.818 621.024 308.379 620.714 308.023C620.411 307.667 619.964 307.364 619.373 307.114C618.79 306.864 618.074 306.636 617.225 306.432L614.691 305.795C612.729 305.318 611.18 304.572 610.043 303.557C608.907 302.542 608.343 301.174 608.35 299.455C608.343 298.045 608.718 296.814 609.475 295.761C610.24 294.708 611.29 293.886 612.623 293.295C613.956 292.705 615.471 292.409 617.168 292.409C618.896 292.409 620.403 292.705 621.691 293.295C622.986 293.886 623.994 294.708 624.714 295.761C625.433 296.814 625.805 298.034 625.827 299.42H621.111ZM634.376 292.727V316H629.455V292.727H634.376ZM653.856 300.25C653.697 299.697 653.473 299.208 653.185 298.784C652.897 298.352 652.545 297.989 652.129 297.693C651.719 297.39 651.25 297.159 650.719 297C650.197 296.841 649.617 296.761 648.981 296.761C647.791 296.761 646.746 297.057 645.844 297.648C644.95 298.239 644.254 299.098 643.754 300.227C643.254 301.348 643.004 302.72 643.004 304.341C643.004 305.962 643.25 307.341 643.742 308.477C644.235 309.614 644.932 310.481 645.833 311.08C646.735 311.67 647.799 311.966 649.026 311.966C650.14 311.966 651.091 311.769 651.879 311.375C652.674 310.973 653.28 310.409 653.697 309.682C654.121 308.955 654.333 308.095 654.333 307.102L655.333 307.25H649.333V303.545H659.072V306.477C659.072 308.523 658.64 310.28 657.776 311.75C656.913 313.212 655.723 314.341 654.208 315.136C652.693 315.924 650.958 316.318 649.004 316.318C646.822 316.318 644.905 315.837 643.254 314.875C641.602 313.905 640.314 312.53 639.39 310.75C638.473 308.962 638.015 306.841 638.015 304.386C638.015 302.5 638.288 300.818 638.833 299.341C639.386 297.856 640.159 296.598 641.151 295.568C642.144 294.538 643.299 293.754 644.617 293.216C645.935 292.678 647.363 292.409 648.901 292.409C650.219 292.409 651.447 292.602 652.583 292.989C653.719 293.367 654.727 293.905 655.606 294.602C656.492 295.299 657.216 296.129 657.776 297.091C658.337 298.045 658.697 299.098 658.856 300.25H653.856ZM682.234 292.727V316H677.984L667.859 301.352H667.688V316H662.768V292.727H667.086L677.131 307.364H677.336V292.727H682.234ZM699.103 309.364C698.186 309.364 697.349 309.14 696.592 308.693C695.834 308.239 695.228 307.633 694.773 306.875C694.326 306.117 694.103 305.28 694.103 304.364C694.103 303.439 694.326 302.602 694.773 301.852C695.228 301.095 695.834 300.492 696.592 300.045C697.349 299.591 698.186 299.364 699.103 299.364C700.027 299.364 700.864 299.591 701.614 300.045C702.372 300.492 702.974 301.095 703.421 301.852C703.876 302.602 704.103 303.439 704.103 304.364C704.103 305.28 703.876 306.117 703.421 306.875C702.974 307.633 702.372 308.239 701.614 308.693C700.864 309.14 700.027 309.364 699.103 309.364ZM724.205 316H715.955V292.727H724.273C726.614 292.727 728.629 293.193 730.319 294.125C732.008 295.049 733.307 296.379 734.217 298.114C735.133 299.848 735.592 301.924 735.592 304.341C735.592 306.765 735.133 308.848 734.217 310.591C733.307 312.333 732.001 313.67 730.296 314.602C728.599 315.534 726.569 316 724.205 316ZM720.876 311.784H724.001C725.455 311.784 726.679 311.527 727.671 311.011C728.671 310.489 729.421 309.682 729.921 308.591C730.429 307.492 730.682 306.076 730.682 304.341C730.682 302.621 730.429 301.216 729.921 300.125C729.421 299.034 728.675 298.231 727.682 297.716C726.69 297.201 725.467 296.943 724.012 296.943H720.876V311.784ZM739.236 316V292.727H754.918V296.784H744.157V302.33H754.111V306.386H744.157V311.943H754.964V316H739.236ZM763.035 292.727L768.66 310.409H768.876L774.512 292.727H779.967L771.944 316H765.603L757.569 292.727H763.035ZM782.768 316V292.727H798.45V296.784H787.688V302.33H797.643V306.386H787.688V311.943H798.495V316H782.768ZM802.361 316V292.727H807.282V311.943H817.259V316H802.361ZM840.998 304.364C840.998 306.902 840.517 309.061 839.555 310.841C838.6 312.621 837.297 313.981 835.646 314.92C834.002 315.852 832.153 316.318 830.1 316.318C828.032 316.318 826.176 315.848 824.532 314.909C822.888 313.97 821.589 312.61 820.634 310.83C819.68 309.049 819.202 306.894 819.202 304.364C819.202 301.826 819.68 299.667 820.634 297.886C821.589 296.106 822.888 294.75 824.532 293.818C826.176 292.879 828.032 292.409 830.1 292.409C832.153 292.409 834.002 292.879 835.646 293.818C837.297 294.75 838.6 296.106 839.555 297.886C840.517 299.667 840.998 301.826 840.998 304.364ZM836.009 304.364C836.009 302.72 835.763 301.333 835.271 300.205C834.786 299.076 834.1 298.22 833.214 297.636C832.327 297.053 831.29 296.761 830.1 296.761C828.911 296.761 827.873 297.053 826.986 297.636C826.1 298.22 825.411 299.076 824.918 300.205C824.433 301.333 824.191 302.72 824.191 304.364C824.191 306.008 824.433 307.394 824.918 308.523C825.411 309.652 826.1 310.508 826.986 311.091C827.873 311.674 828.911 311.966 830.1 311.966C831.29 311.966 832.327 311.674 833.214 311.091C834.1 310.508 834.786 309.652 835.271 308.523C835.763 307.394 836.009 306.008 836.009 304.364ZM844.643 316V292.727H853.825C855.59 292.727 857.093 293.064 858.336 293.739C859.578 294.405 860.525 295.333 861.177 296.523C861.836 297.705 862.165 299.068 862.165 300.614C862.165 302.159 861.832 303.523 861.165 304.705C860.499 305.886 859.533 306.807 858.268 307.466C857.01 308.125 855.487 308.455 853.7 308.455H847.847V304.511H852.904C853.851 304.511 854.631 304.348 855.245 304.023C855.866 303.689 856.328 303.231 856.631 302.648C856.942 302.057 857.097 301.379 857.097 300.614C857.097 299.841 856.942 299.167 856.631 298.591C856.328 298.008 855.866 297.557 855.245 297.239C854.624 296.913 853.836 296.75 852.881 296.75H849.563V316H844.643ZM878.165 309.364C877.249 309.364 876.412 309.14 875.654 308.693C874.897 308.239 874.29 307.633 873.836 306.875C873.389 306.117 873.165 305.28 873.165 304.364C873.165 303.439 873.389 302.602 873.836 301.852C874.29 301.095 874.897 300.492 875.654 300.045C876.412 299.591 877.249 299.364 878.165 299.364C879.09 299.364 879.927 299.591 880.677 300.045C881.434 300.492 882.037 301.095 882.484 301.852C882.938 302.602 883.165 303.439 883.165 304.364C883.165 305.28 882.938 306.117 882.484 306.875C882.037 307.633 881.434 308.239 880.677 308.693C879.927 309.14 879.09 309.364 878.165 309.364ZM903.268 316H895.018V292.727H903.336C905.677 292.727 907.692 293.193 909.381 294.125C911.071 295.049 912.37 296.379 913.279 298.114C914.196 299.848 914.654 301.924 914.654 304.341C914.654 306.765 914.196 308.848 913.279 310.591C912.37 312.333 911.063 313.67 909.359 314.602C907.662 315.534 905.631 316 903.268 316ZM899.938 311.784H903.063C904.518 311.784 905.741 311.527 906.734 311.011C907.734 310.489 908.484 309.682 908.984 308.591C909.491 307.492 909.745 306.076 909.745 304.341C909.745 302.621 909.491 301.216 908.984 300.125C908.484 299.034 907.737 298.231 906.745 297.716C905.753 297.201 904.529 296.943 903.075 296.943H899.938V311.784ZM918.299 316V292.727H933.981V296.784H923.219V302.33H933.174V306.386H923.219V311.943H934.026V316H918.299ZM937.893 316V292.727H947.075C948.84 292.727 950.343 293.064 951.586 293.739C952.828 294.405 953.775 295.333 954.427 296.523C955.086 297.705 955.415 299.068 955.415 300.614C955.415 302.159 955.082 303.523 954.415 304.705C953.749 305.886 952.783 306.807 951.518 307.466C950.26 308.125 948.737 308.455 946.95 308.455H941.097V304.511H946.154C947.101 304.511 947.881 304.348 948.495 304.023C949.116 303.689 949.578 303.231 949.881 302.648C950.192 302.057 950.347 301.379 950.347 300.614C950.347 299.841 950.192 299.167 949.881 298.591C949.578 298.008 949.116 297.557 948.495 297.239C947.874 296.913 947.086 296.75 946.131 296.75H942.813V316H937.893ZM958.611 316V292.727H963.532V311.943H973.509V316H958.611ZM997.248 304.364C997.248 306.902 996.767 309.061 995.805 310.841C994.85 312.621 993.547 313.981 991.896 314.92C990.252 315.852 988.403 316.318 986.35 316.318C984.282 316.318 982.426 315.848 980.782 314.909C979.138 313.97 977.839 312.61 976.884 310.83C975.93 309.049 975.452 306.894 975.452 304.364C975.452 301.826 975.93 299.667 976.884 297.886C977.839 296.106 979.138 294.75 980.782 293.818C982.426 292.879 984.282 292.409 986.35 292.409C988.403 292.409 990.252 292.879 991.896 293.818C993.547 294.75 994.85 296.106 995.805 297.886C996.767 299.667 997.248 301.826 997.248 304.364ZM992.259 304.364C992.259 302.72 992.013 301.333 991.521 300.205C991.036 299.076 990.35 298.22 989.464 297.636C988.577 297.053 987.54 296.761 986.35 296.761C985.161 296.761 984.123 297.053 983.236 297.636C982.35 298.22 981.661 299.076 981.168 300.205C980.683 301.333 980.441 302.72 980.441 304.364C980.441 306.008 980.683 307.394 981.168 308.523C981.661 309.652 982.35 310.508 983.236 311.091C984.123 311.674 985.161 311.966 986.35 311.966C987.54 311.966 988.577 311.674 989.464 311.091C990.35 310.508 991.036 309.652 991.521 308.523C992.013 307.394 992.259 306.008 992.259 304.364ZM998.123 292.727H1003.63L1008.94 302.75H1009.17L1014.48 292.727H1019.99L1011.5 307.773V316H1006.61V307.773L998.123 292.727Z" fill="url(#paint5_linear_2047_2542)"/>
<path d="M606.272 161.37L644.252 181.528V221.843L606.272 242L568.292 221.843V181.528L606.272 161.37Z" stroke="#30363D" stroke-width="3"/>
<path d="M606.272 161.37V242M568.292 181.528L606.272 201.685L644.252 181.528" stroke="#30363D" stroke-width="3"/>
<foreignObject x="13.6001" y="3.70001" width="1556.8" height="388.6"><div xmlns="http://www.w3.org/1999/xhtml" style="backdrop-filter:blur(0px);clip-path:url(#bgblur_1_2047_2542_clip_path);height:100%;width:100%"></div></foreignObject><path data-figma-bg-blur-radius="0" d="M606.272 166.41C608.894 166.41 611.019 164.154 611.019 161.371C611.019 158.587 608.894 156.331 606.272 156.331C603.65 156.331 601.524 158.587 601.524 161.371C601.524 164.154 603.65 166.41 606.272 166.41Z" fill="url(#paint6_linear_2047_2542)"/>
<foreignObject x="13.6001" y="3.70001" width="1556.8" height="388.6"><div xmlns="http://www.w3.org/1999/xhtml" style="backdrop-filter:blur(0px);clip-path:url(#bgblur_2_2047_2542_clip_path);height:100%;width:100%"></div></foreignObject><path data-figma-bg-blur-radius="0" d="M606.272 206.725C608.894 206.725 611.019 204.469 611.019 201.685C611.019 198.902 608.894 196.646 606.272 196.646C603.65 196.646 601.524 198.902 601.524 201.685C601.524 204.469 603.65 206.725 606.272 206.725Z" fill="url(#paint7_linear_2047_2542)"/>
<foreignObject x="13.6001" y="3.70001" width="1556.8" height="388.6"><div xmlns="http://www.w3.org/1999/xhtml" style="backdrop-filter:blur(0px);clip-path:url(#bgblur_3_2047_2542_clip_path);height:100%;width:100%"></div></foreignObject><path data-figma-bg-blur-radius="0" d="M568.292 226.882C570.914 226.882 573.04 224.626 573.04 221.843C573.04 219.06 570.914 216.803 568.292 216.803C565.67 216.803 563.545 219.06 563.545 221.843C563.545 224.626 565.67 226.882 568.292 226.882Z" fill="url(#paint8_linear_2047_2542)"/>
<foreignObject x="13.6001" y="3.70001" width="1556.8" height="388.6"><div xmlns="http://www.w3.org/1999/xhtml" style="backdrop-filter:blur(0px);clip-path:url(#bgblur_4_2047_2542_clip_path);height:100%;width:100%"></div></foreignObject><path data-figma-bg-blur-radius="0" d="M644.252 226.882C646.874 226.882 649 224.626 649 221.843C649 219.06 646.874 216.803 644.252 216.803C641.63 216.803 639.505 219.06 639.505 221.843C639.505 224.626 641.63 226.882 644.252 226.882Z" fill="url(#paint9_linear_2047_2542)"/>
<foreignObject x="13.6001" y="3.70001" width="1556.8" height="388.6"><div xmlns="http://www.w3.org/1999/xhtml" style="backdrop-filter:blur(0px);height:100%;width:100%"></div></foreignObject><path data-figma-bg-blur-radius="0" d="M568.263 224.628L605.1 162.384" stroke="url(#paint10_linear_2047_2542)" stroke-width="4"/>
<path d="M568.697 228.064C571.843 228.064 574.394 225.357 574.394 222.017C574.394 218.677 571.843 215.97 568.697 215.97C565.551 215.97 563 218.677 563 222.017C563 225.357 565.551 228.064 568.697 228.064Z" fill="#9D4EDD"/>
<path d="M605.534 168.094C608.68 168.094 611.231 165.387 611.231 162.047C611.231 158.707 608.68 156 605.534 156C602.388 156 599.837 158.707 599.837 162.047C599.837 165.387 602.388 168.094 605.534 168.094Z" fill="#00D2FF"/>
<path d="M708.398 213H700.148L697.758 205.523H685.805L683.438 213H675.234L687.469 179.391H696.445L708.398 213ZM696.023 199.711L692.414 188.414C692.148 187.57 691.961 186.562 691.852 185.391H691.664C691.586 186.375 691.391 187.352 691.078 188.32L687.422 199.711H696.023ZM719.367 210.211H719.273V224.039H711.867V189H719.273V192.609H719.367C721.195 189.812 723.766 188.414 727.078 188.414C730.188 188.414 732.586 189.484 734.273 191.625C735.977 193.75 736.828 196.648 736.828 200.32C736.828 204.32 735.836 207.531 733.852 209.953C731.883 212.375 729.258 213.586 725.977 213.586C723.086 213.586 720.883 212.461 719.367 210.211ZM719.156 200.367V202.289C719.156 203.945 719.594 205.297 720.469 206.344C721.344 207.391 722.492 207.914 723.914 207.914C725.602 207.914 726.906 207.266 727.828 205.969C728.766 204.656 729.234 202.805 729.234 200.414C729.234 196.195 727.594 194.086 724.312 194.086C722.797 194.086 721.555 194.664 720.586 195.82C719.633 196.961 719.156 198.477 719.156 200.367ZM749.133 210.211H749.039V224.039H741.633V189H749.039V192.609H749.133C750.961 189.812 753.531 188.414 756.844 188.414C759.953 188.414 762.352 189.484 764.039 191.625C765.742 193.75 766.594 196.648 766.594 200.32C766.594 204.32 765.602 207.531 763.617 209.953C761.648 212.375 759.023 213.586 755.742 213.586C752.852 213.586 750.648 212.461 749.133 210.211ZM748.922 200.367V202.289C748.922 203.945 749.359 205.297 750.234 206.344C751.109 207.391 752.258 207.914 753.68 207.914C755.367 207.914 756.672 207.266 757.594 205.969C758.531 204.656 759 202.805 759 200.414C759 196.195 757.359 194.086 754.078 194.086C752.562 194.086 751.32 194.664 750.352 195.82C749.398 196.961 748.922 198.477 748.922 200.367Z" fill="white"/>
<path d="M785.391 213V179.391H797.625C801.375 179.391 804.258 180.078 806.273 181.453C808.289 182.828 809.297 184.766 809.297 187.266C809.297 189.078 808.68 190.664 807.445 192.023C806.227 193.383 804.664 194.328 802.758 194.859V194.953C805.148 195.25 807.055 196.133 808.477 197.602C809.914 199.07 810.633 200.859 810.633 202.969C810.633 206.047 809.531 208.492 807.328 210.305C805.125 212.102 802.117 213 798.305 213H785.391ZM792.961 184.969V192.938H796.289C797.852 192.938 799.078 192.562 799.969 191.812C800.875 191.047 801.328 190 801.328 188.672C801.328 186.203 799.484 184.969 795.797 184.969H792.961ZM792.961 198.562V207.422H797.062C798.812 207.422 800.18 207.016 801.164 206.203C802.164 205.391 802.664 204.281 802.664 202.875C802.664 201.531 802.172 200.477 801.188 199.711C800.219 198.945 798.859 198.562 797.109 198.562H792.961ZM838.266 213H830.883V209.344H830.766C828.938 212.172 826.492 213.586 823.43 213.586C817.867 213.586 815.086 210.219 815.086 203.484V189H822.469V202.828C822.469 206.219 823.812 207.914 826.5 207.914C827.828 207.914 828.891 207.453 829.688 206.531C830.484 205.594 830.883 204.328 830.883 202.734V189H838.266V213ZM868.008 213H860.602V209.695H860.508C858.82 212.289 856.344 213.586 853.078 213.586C850.078 213.586 847.664 212.531 845.836 210.422C844.008 208.297 843.094 205.336 843.094 201.539C843.094 197.57 844.102 194.391 846.117 192C848.133 189.609 850.773 188.414 854.039 188.414C857.133 188.414 859.289 189.523 860.508 191.742H860.602V177.469H868.008V213ZM860.742 201.328V199.523C860.742 197.961 860.289 196.664 859.383 195.633C858.477 194.602 857.297 194.086 855.844 194.086C854.203 194.086 852.922 194.734 852 196.031C851.078 197.312 850.617 199.078 850.617 201.328C850.617 203.438 851.062 205.062 851.953 206.203C852.844 207.344 854.078 207.914 855.656 207.914C857.156 207.914 858.375 207.312 859.312 206.109C860.266 204.906 860.742 203.312 860.742 201.328ZM897.727 213H890.32V209.695H890.227C888.539 212.289 886.062 213.586 882.797 213.586C879.797 213.586 877.383 212.531 875.555 210.422C873.727 208.297 872.812 205.336 872.812 201.539C872.812 197.57 873.82 194.391 875.836 192C877.852 189.609 880.492 188.414 883.758 188.414C886.852 188.414 889.008 189.523 890.227 191.742H890.32V177.469H897.727V213ZM890.461 201.328V199.523C890.461 197.961 890.008 196.664 889.102 195.633C888.195 194.602 887.016 194.086 885.562 194.086C883.922 194.086 882.641 194.734 881.719 196.031C880.797 197.312 880.336 199.078 880.336 201.328C880.336 203.438 880.781 205.062 881.672 206.203C882.562 207.344 883.797 207.914 885.375 207.914C886.875 207.914 888.094 207.312 889.031 206.109C889.984 204.906 890.461 203.312 890.461 201.328ZM926.812 189L917.062 214.922C914.719 221.156 911.188 224.273 906.469 224.273C904.672 224.273 903.195 224.07 902.039 223.664V217.758C903.023 218.336 904.094 218.625 905.25 218.625C907.156 218.625 908.484 217.727 909.234 215.93L910.5 212.953L900.75 189H908.953L913.43 203.602C913.711 204.508 913.93 205.578 914.086 206.812H914.18C914.32 205.906 914.578 204.852 914.953 203.648L919.477 189H926.812Z" fill="#B1BAC4"/>
<foreignObject x="13.6001" y="3.70001" width="1556.8" height="388.6"><div xmlns="http://www.w3.org/1999/xhtml" style="backdrop-filter:blur(0px);clip-path:url(#bgblur_5_2047_2542_clip_path);height:100%;width:100%"></div></foreignObject><path data-figma-bg-blur-radius="0" d="M775.5 216C779.09 216 782 213.09 782 209.5C782 205.91 779.09 203 775.5 203C771.91 203 769 205.91 769 209.5C769 213.09 771.91 216 775.5 216Z" fill="url(#paint11_linear_2047_2542)"/>
</g>
<defs>
<filter id="filter0_f_2047_2542" x="13.6001" y="3.70001" width="1556.8" height="388.6" filterUnits="userSpaceOnUse" color-interpolation-filters="sRGB">
<feFlood flood-opacity="0" result="BackgroundImageFix"/>
<feBlend mode="normal" in="SourceGraphic" in2="BackgroundImageFix" result="shape"/>
<feGaussianBlur stdDeviation="10" result="effect1_foregroundBlur_2047_2542"/>
</filter>
<clipPath id="bgblur_1_2047_2542_clip_path" transform="translate(-13.6001 -3.70001)"><path d="M606.272 166.41C608.894 166.41 611.019 164.154 611.019 161.371C611.019 158.587 608.894 156.331 606.272 156.331C603.65 156.331 601.524 158.587 601.524 161.371C601.524 164.154 603.65 166.41 606.272 166.41Z"/>
</clipPath><clipPath id="bgblur_2_2047_2542_clip_path" transform="translate(-13.6001 -3.70001)"><path d="M606.272 206.725C608.894 206.725 611.019 204.469 611.019 201.685C611.019 198.902 608.894 196.646 606.272 196.646C603.65 196.646 601.524 198.902 601.524 201.685C601.524 204.469 603.65 206.725 606.272 206.725Z"/>
</clipPath><clipPath id="bgblur_3_2047_2542_clip_path" transform="translate(-13.6001 -3.70001)"><path d="M568.292 226.882C570.914 226.882 573.04 224.626 573.04 221.843C573.04 219.06 570.914 216.803 568.292 216.803C565.67 216.803 563.545 219.06 563.545 221.843C563.545 224.626 565.67 226.882 568.292 226.882Z"/>
</clipPath><clipPath id="bgblur_4_2047_2542_clip_path" transform="translate(-13.6001 -3.70001)"><path d="M644.252 226.882C646.874 226.882 649 224.626 649 221.843C649 219.06 646.874 216.803 644.252 216.803C641.63 216.803 639.505 219.06 639.505 221.843C639.505 224.626 641.63 226.882 644.252 226.882Z"/>
</clipPath><clipPath id="bgblur_5_2047_2542_clip_path" transform="translate(-13.6001 -3.70001)"><path d="M775.5 216C779.09 216 782 213.09 782 209.5C782 205.91 779.09 203 775.5 203C771.91 203 769 205.91 769 209.5C769 213.09 771.91 216 775.5 216Z"/>
</clipPath><linearGradient id="paint0_linear_2047_2542" x1="0" y1="0" x2="1584" y2="0" gradientUnits="userSpaceOnUse">
<stop stop-color="#042A7E"/>
<stop offset="0.34"/>
<stop offset="0.66"/>
<stop offset="1" stop-color="#41015C"/>
</linearGradient>
<linearGradient id="paint1_linear_2047_2542" x1="39.6001" y1="29.7" x2="1544.4" y2="29.7" gradientUnits="userSpaceOnUse">
<stop stop-color="#00DBFF"/>
<stop offset="1" stop-color="#D000FF"/>
</linearGradient>
<linearGradient id="paint2_linear_2047_2542" x1="39.6001" y1="29.7" x2="1544.4" y2="29.7" gradientUnits="userSpaceOnUse">
<stop stop-color="#00DBFF"/>
<stop offset="1" stop-color="#D000FF"/>
</linearGradient>
<linearGradient id="paint3_linear_2047_2542" x1="494.8" y1="52.96" x2="494.8" y2="129.19" gradientUnits="userSpaceOnUse">
<stop stop-color="#A8E9FF"/>
<stop offset="1" stop-color="#3BCEFF"/>
</linearGradient>
<linearGradient id="paint4_linear_2047_2542" x1="1207.6" y1="52.96" x2="1207.6" y2="129.19" gradientUnits="userSpaceOnUse">
<stop stop-color="#DEA3FF"/>
<stop offset="1" stop-color="#C55CFF"/>
</linearGradient>
<linearGradient id="paint5_linear_2047_2542" x1="792.12" y1="335.49" x2="792.12" y2="285" gradientUnits="userSpaceOnUse">
<stop stop-color="#666666"/>
<stop offset="1" stop-color="white"/>
</linearGradient>
<linearGradient id="paint6_linear_2047_2542" x1="601.524" y1="156.331" x2="611.585" y2="165.809" gradientUnits="userSpaceOnUse">
<stop stop-color="#00D2FF"/>
<stop offset="1" stop-color="#9D4EDD"/>
</linearGradient>
<linearGradient id="paint7_linear_2047_2542" x1="601.524" y1="196.646" x2="611.585" y2="206.124" gradientUnits="userSpaceOnUse">
<stop stop-color="#00D2FF"/>
<stop offset="1" stop-color="#9D4EDD"/>
</linearGradient>
<linearGradient id="paint8_linear_2047_2542" x1="563.545" y1="216.803" x2="573.606" y2="226.282" gradientUnits="userSpaceOnUse">
<stop stop-color="#00D2FF"/>
<stop offset="1" stop-color="#9D4EDD"/>
</linearGradient>
<linearGradient id="paint9_linear_2047_2542" x1="639.505" y1="216.803" x2="649.566" y2="226.282" gradientUnits="userSpaceOnUse">
<stop stop-color="#00D2FF"/>
<stop offset="1" stop-color="#9D4EDD"/>
</linearGradient>
<linearGradient id="paint10_linear_2047_2542" x1="568.263" y1="162.384" x2="622.826" y2="194.676" gradientUnits="userSpaceOnUse">
<stop stop-color="#00D2FF"/>
<stop offset="1" stop-color="#9D4EDD"/>
</linearGradient>
<linearGradient id="paint11_linear_2047_2542" x1="769" y1="203" x2="782" y2="216" gradientUnits="userSpaceOnUse">
<stop stop-color="#00D2FF"/>
<stop offset="1" stop-color="#9D4EDD"/>
</linearGradient>
<clipPath id="clip0_2047_2542">
<rect width="1584" height="396" fill="white"/>
</clipPath>
</defs>
</svg>
