<svg width="1584" height="396" viewBox="0 0 1584 396" fill="none" xmlns="http://www.w3.org/2000/svg">
<g clip-path="url(#clip0_2112_2292)">
<path d="M1584 0H0V396H1584V0Z" fill="url(#paint0_linear_2112_2292)"/>
<g opacity="0.65" filter="url(#filter0_f_2112_2292)">
<path d="M567.6 366.3H66.0001C48.4001 366.3 39.6001 359.7 39.6001 346.5V49.5002C39.6001 36.3002 48.4001 29.7002 66.0001 29.7002H1518C1535.6 29.7002 1544.4 36.3002 1544.4 49.5002V346.5C1544.4 359.7 1535.6 366.3 1518 366.3H1016.4" stroke="url(#paint1_linear_2112_2292)" stroke-width="12" stroke-linecap="round"/>
</g>
<path d="M567.6 366.3H66.0001C48.4001 366.3 39.6001 359.7 39.6001 346.5V49.5002C39.6001 36.3002 48.4001 29.7002 66.0001 29.7002H1518C1535.6 29.7002 1544.4 36.3002 1544.4 49.5002V346.5C1544.4 359.7 1535.6 366.3 1518 366.3H1016.4" stroke="url(#paint2_linear_2112_2292)" stroke-width="4" stroke-linecap="round"/>
<path d="M660.733 375V361.909H662.676V363.955H662.847C663.119 363.256 663.56 362.713 664.168 362.327C664.776 361.935 665.506 361.739 666.358 361.739C667.222 361.739 667.94 361.935 668.514 362.327C669.094 362.713 669.545 363.256 669.869 363.955H670.006C670.341 363.278 670.844 362.741 671.514 362.344C672.185 361.94 672.989 361.739 673.926 361.739C675.097 361.739 676.054 362.105 676.798 362.838C677.543 363.565 677.915 364.699 677.915 366.239V375H675.903V366.239C675.903 365.273 675.639 364.582 675.111 364.168C674.582 363.753 673.96 363.545 673.244 363.545C672.324 363.545 671.611 363.824 671.105 364.381C670.599 364.932 670.347 365.631 670.347 366.477V375H668.301V366.034C668.301 365.29 668.06 364.69 667.577 364.236C667.094 363.776 666.472 363.545 665.71 363.545C665.187 363.545 664.699 363.685 664.244 363.963C663.795 364.241 663.432 364.628 663.153 365.122C662.881 365.611 662.744 366.176 662.744 366.818V375H660.733ZM685.445 375.307C684.615 375.307 683.862 375.151 683.186 374.838C682.51 374.52 681.973 374.062 681.575 373.466C681.178 372.864 680.979 372.136 680.979 371.284C680.979 370.534 681.126 369.926 681.422 369.46C681.717 368.989 682.112 368.619 682.607 368.352C683.101 368.085 683.646 367.886 684.243 367.756C684.845 367.619 685.45 367.511 686.058 367.432C686.854 367.33 687.499 367.253 687.993 367.202C688.493 367.145 688.857 367.051 689.084 366.92C689.317 366.79 689.433 366.562 689.433 366.239V366.17C689.433 365.33 689.203 364.676 688.743 364.21C688.288 363.744 687.598 363.511 686.672 363.511C685.712 363.511 684.959 363.722 684.413 364.142C683.868 364.562 683.484 365.011 683.263 365.489L681.354 364.807C681.695 364.011 682.149 363.392 682.717 362.949C683.291 362.5 683.916 362.187 684.592 362.011C685.274 361.83 685.945 361.739 686.604 361.739C687.024 361.739 687.507 361.79 688.053 361.892C688.604 361.989 689.135 362.19 689.646 362.497C690.163 362.804 690.592 363.267 690.933 363.886C691.274 364.506 691.445 365.335 691.445 366.375V375H689.433V373.227H689.331C689.195 373.511 688.967 373.815 688.649 374.139C688.331 374.463 687.908 374.739 687.379 374.966C686.851 375.193 686.206 375.307 685.445 375.307ZM685.751 373.5C686.547 373.5 687.217 373.344 687.763 373.031C688.314 372.719 688.729 372.315 689.007 371.821C689.291 371.327 689.433 370.807 689.433 370.261V368.42C689.348 368.523 689.16 368.616 688.871 368.702C688.587 368.781 688.257 368.852 687.882 368.915C687.513 368.972 687.152 369.023 686.8 369.068C686.453 369.108 686.172 369.142 685.956 369.17C685.433 369.239 684.945 369.349 684.49 369.503C684.041 369.651 683.678 369.875 683.399 370.176C683.126 370.472 682.99 370.875 682.99 371.386C682.99 372.085 683.249 372.614 683.766 372.972C684.288 373.324 684.95 373.5 685.751 373.5ZM700.809 361.909V363.614H694.025V361.909H700.809ZM696.002 358.773H698.013V371.25C698.013 371.818 698.096 372.244 698.261 372.528C698.431 372.807 698.647 372.994 698.908 373.091C699.175 373.182 699.457 373.227 699.752 373.227C699.974 373.227 700.156 373.216 700.298 373.193C700.44 373.165 700.553 373.142 700.638 373.125L701.048 374.932C700.911 374.983 700.721 375.034 700.477 375.085C700.232 375.142 699.923 375.17 699.548 375.17C698.979 375.17 698.423 375.048 697.877 374.804C697.337 374.56 696.888 374.188 696.531 373.688C696.178 373.188 696.002 372.557 696.002 371.795V358.773ZM709.528 361.909V363.614H702.744V361.909H709.528ZM704.721 358.773H706.732V371.25C706.732 371.818 706.815 372.244 706.979 372.528C707.15 372.807 707.366 372.994 707.627 373.091C707.894 373.182 708.175 373.227 708.471 373.227C708.692 373.227 708.874 373.216 709.016 373.193C709.158 373.165 709.272 373.142 709.357 373.125L709.766 374.932C709.63 374.983 709.44 375.034 709.195 375.085C708.951 375.142 708.641 375.17 708.266 375.17C707.698 375.17 707.141 375.048 706.596 374.804C706.056 374.56 705.607 374.188 705.249 373.688C704.897 373.188 704.721 372.557 704.721 371.795V358.773ZM714.846 367.125V375H712.835V357.545H714.846V363.955H715.016C715.323 363.278 715.783 362.741 716.397 362.344C717.016 361.94 717.84 361.739 718.869 361.739C719.761 361.739 720.542 361.918 721.212 362.276C721.883 362.628 722.403 363.17 722.772 363.903C723.147 364.631 723.335 365.557 723.335 366.682V375H721.323V366.818C721.323 365.778 721.053 364.974 720.513 364.406C719.979 363.832 719.238 363.545 718.289 363.545C717.63 363.545 717.039 363.685 716.516 363.963C715.999 364.241 715.59 364.648 715.289 365.182C714.994 365.716 714.846 366.364 714.846 367.125ZM732.503 375.273C731.241 375.273 730.153 374.994 729.239 374.438C728.33 373.875 727.628 373.091 727.134 372.085C726.645 371.074 726.401 369.898 726.401 368.557C726.401 367.216 726.645 366.034 727.134 365.011C727.628 363.983 728.315 363.182 729.196 362.608C730.082 362.028 731.116 361.739 732.298 361.739C732.98 361.739 733.653 361.852 734.318 362.08C734.983 362.307 735.588 362.676 736.134 363.188C736.679 363.693 737.114 364.364 737.437 365.199C737.761 366.034 737.923 367.062 737.923 368.284V369.136H727.832V367.398H735.878C735.878 366.659 735.73 366 735.435 365.42C735.145 364.841 734.73 364.384 734.19 364.048C733.656 363.713 733.026 363.545 732.298 363.545C731.497 363.545 730.804 363.744 730.219 364.142C729.639 364.534 729.193 365.045 728.881 365.676C728.568 366.307 728.412 366.983 728.412 367.705V368.864C728.412 369.852 728.582 370.69 728.923 371.378C729.27 372.06 729.75 372.58 730.364 372.938C730.977 373.29 731.69 373.466 732.503 373.466C733.031 373.466 733.509 373.392 733.935 373.244C734.366 373.091 734.739 372.864 735.051 372.562C735.364 372.256 735.605 371.875 735.776 371.42L737.719 371.966C737.514 372.625 737.17 373.205 736.687 373.705C736.205 374.199 735.608 374.585 734.898 374.864C734.187 375.136 733.389 375.273 732.503 375.273ZM743.949 375L739.96 361.909H742.074L744.903 371.932H745.04L747.835 361.909H749.983L752.744 371.898H752.881L755.71 361.909H757.824L753.835 375H751.858L748.994 364.943H748.79L745.926 375H743.949ZM767.983 366.58V368.455H760.347V366.58H767.983ZM771.522 379.909V361.909H773.465V363.989H773.704C773.852 363.761 774.056 363.472 774.317 363.119C774.585 362.761 774.965 362.443 775.46 362.165C775.96 361.881 776.636 361.739 777.488 361.739C778.59 361.739 779.562 362.014 780.403 362.565C781.244 363.116 781.9 363.898 782.371 364.909C782.843 365.92 783.079 367.114 783.079 368.489C783.079 369.875 782.843 371.077 782.371 372.094C781.9 373.105 781.246 373.889 780.411 374.446C779.576 374.997 778.613 375.273 777.522 375.273C776.681 375.273 776.008 375.134 775.502 374.855C774.996 374.571 774.607 374.25 774.335 373.892C774.062 373.528 773.852 373.227 773.704 372.989H773.533V379.909H771.522ZM773.499 368.455C773.499 369.443 773.644 370.315 773.934 371.071C774.224 371.821 774.647 372.409 775.204 372.835C775.761 373.256 776.442 373.466 777.249 373.466C778.09 373.466 778.792 373.244 779.354 372.801C779.923 372.352 780.349 371.75 780.633 370.994C780.923 370.233 781.067 369.386 781.067 368.455C781.067 367.534 780.925 366.705 780.641 365.966C780.363 365.222 779.94 364.634 779.371 364.202C778.809 363.764 778.102 363.545 777.249 363.545C776.431 363.545 775.744 363.753 775.187 364.168C774.63 364.577 774.21 365.151 773.925 365.889C773.641 366.622 773.499 367.477 773.499 368.455ZM791.465 375.273C790.283 375.273 789.246 374.991 788.354 374.429C787.468 373.866 786.775 373.08 786.275 372.068C785.781 371.057 785.533 369.875 785.533 368.523C785.533 367.159 785.781 365.969 786.275 364.952C786.775 363.935 787.468 363.145 788.354 362.582C789.246 362.02 790.283 361.739 791.465 361.739C792.647 361.739 793.681 362.02 794.567 362.582C795.46 363.145 796.153 363.935 796.647 364.952C797.147 365.969 797.397 367.159 797.397 368.523C797.397 369.875 797.147 371.057 796.647 372.068C796.153 373.08 795.46 373.866 794.567 374.429C793.681 374.991 792.647 375.273 791.465 375.273ZM791.465 373.466C792.363 373.466 793.102 373.236 793.681 372.776C794.261 372.315 794.69 371.71 794.968 370.96C795.246 370.21 795.386 369.398 795.386 368.523C795.386 367.648 795.246 366.832 794.968 366.077C794.69 365.321 794.261 364.71 793.681 364.244C793.102 363.778 792.363 363.545 791.465 363.545C790.567 363.545 789.829 363.778 789.249 364.244C788.67 364.71 788.241 365.321 787.962 366.077C787.684 366.832 787.545 367.648 787.545 368.523C787.545 369.398 787.684 370.21 787.962 370.96C788.241 371.71 788.67 372.315 789.249 372.776C789.829 373.236 790.567 373.466 791.465 373.466ZM805.785 375.273C804.604 375.273 803.567 374.991 802.675 374.429C801.788 373.866 801.095 373.08 800.595 372.068C800.101 371.057 799.854 369.875 799.854 368.523C799.854 367.159 800.101 365.969 800.595 364.952C801.095 363.935 801.788 363.145 802.675 362.582C803.567 362.02 804.604 361.739 805.785 361.739C806.967 361.739 808.001 362.02 808.888 362.582C809.78 363.145 810.473 363.935 810.967 364.952C811.467 365.969 811.717 367.159 811.717 368.523C811.717 369.875 811.467 371.057 810.967 372.068C810.473 373.08 809.78 373.866 808.888 374.429C808.001 374.991 806.967 375.273 805.785 375.273ZM805.785 373.466C806.683 373.466 807.422 373.236 808.001 372.776C808.581 372.315 809.01 371.71 809.288 370.96C809.567 370.21 809.706 369.398 809.706 368.523C809.706 367.648 809.567 366.832 809.288 366.077C809.01 365.321 808.581 364.71 808.001 364.244C807.422 363.778 806.683 363.545 805.785 363.545C804.888 363.545 804.149 363.778 803.57 364.244C802.99 364.71 802.561 365.321 802.283 366.077C802.004 366.832 801.865 367.648 801.865 368.523C801.865 369.398 802.004 370.21 802.283 370.96C802.561 371.71 802.99 372.315 803.57 372.776C804.149 373.236 804.888 373.466 805.785 373.466ZM816.799 357.545V375H814.788V357.545H816.799ZM821.949 375.136C821.528 375.136 821.168 374.986 820.866 374.685C820.565 374.384 820.415 374.023 820.415 373.602C820.415 373.182 820.565 372.821 820.866 372.52C821.168 372.219 821.528 372.068 821.949 372.068C822.369 372.068 822.73 372.219 823.031 372.52C823.332 372.821 823.483 373.182 823.483 373.602C823.483 373.881 823.412 374.136 823.27 374.369C823.134 374.602 822.949 374.79 822.716 374.932C822.489 375.068 822.233 375.136 821.949 375.136ZM832.376 380.182C831.405 380.182 830.57 380.057 829.871 379.807C829.172 379.562 828.589 379.239 828.124 378.835C827.663 378.438 827.297 378.011 827.024 377.557L828.626 376.432C828.808 376.67 829.038 376.943 829.317 377.25C829.595 377.562 829.976 377.832 830.459 378.06C830.947 378.293 831.587 378.409 832.376 378.409C833.433 378.409 834.305 378.153 834.993 377.642C835.68 377.131 836.024 376.33 836.024 375.239V372.58H835.854C835.706 372.818 835.496 373.114 835.223 373.466C834.956 373.812 834.57 374.122 834.064 374.395C833.564 374.662 832.888 374.795 832.035 374.795C830.979 374.795 830.03 374.545 829.189 374.045C828.354 373.545 827.692 372.818 827.203 371.864C826.72 370.909 826.479 369.75 826.479 368.386C826.479 367.045 826.714 365.878 827.186 364.884C827.658 363.884 828.314 363.111 829.155 362.565C829.996 362.014 830.967 361.739 832.07 361.739C832.922 361.739 833.598 361.881 834.098 362.165C834.604 362.443 834.99 362.761 835.257 363.119C835.53 363.472 835.74 363.761 835.888 363.989H836.092V361.909H838.035V375.375C838.035 376.5 837.78 377.415 837.268 378.119C836.763 378.83 836.081 379.349 835.223 379.679C834.371 380.014 833.422 380.182 832.376 380.182ZM832.308 372.989C833.115 372.989 833.797 372.804 834.354 372.435C834.91 372.065 835.334 371.534 835.624 370.841C835.913 370.148 836.058 369.318 836.058 368.352C836.058 367.409 835.916 366.577 835.632 365.855C835.348 365.134 834.928 364.568 834.371 364.159C833.814 363.75 833.126 363.545 832.308 363.545C831.456 363.545 830.746 363.761 830.178 364.193C829.615 364.625 829.192 365.205 828.908 365.932C828.629 366.659 828.49 367.466 828.49 368.352C828.49 369.261 828.632 370.065 828.916 370.764C829.206 371.457 829.632 372.003 830.195 372.401C830.763 372.793 831.467 372.989 832.308 372.989ZM841.717 375V361.909H843.729V375H841.717ZM842.74 359.727C842.348 359.727 842.01 359.594 841.726 359.327C841.447 359.06 841.308 358.739 841.308 358.364C841.308 357.989 841.447 357.668 841.726 357.401C842.01 357.134 842.348 357 842.74 357C843.132 357 843.467 357.134 843.746 357.401C844.03 357.668 844.172 357.989 844.172 358.364C844.172 358.739 844.03 359.06 843.746 359.327C843.467 359.594 843.132 359.727 842.74 359.727ZM853.106 361.909V363.614H846.322V361.909H853.106ZM848.299 358.773H850.31V371.25C850.31 371.818 850.393 372.244 850.558 372.528C850.728 372.807 850.944 372.994 851.205 373.091C851.472 373.182 851.754 373.227 852.049 373.227C852.271 373.227 852.452 373.216 852.594 373.193C852.736 373.165 852.85 373.142 852.935 373.125L853.344 374.932C853.208 374.983 853.018 375.034 852.773 375.085C852.529 375.142 852.219 375.17 851.844 375.17C851.276 375.17 850.719 375.048 850.174 374.804C849.634 374.56 849.185 374.188 848.827 373.688C848.475 373.188 848.299 372.557 848.299 371.795V358.773ZM858.424 367.125V375H856.413V357.545H858.424V363.955H858.594C858.901 363.278 859.361 362.741 859.975 362.344C860.594 361.94 861.418 361.739 862.447 361.739C863.339 361.739 864.12 361.918 864.79 362.276C865.461 362.628 865.981 363.17 866.35 363.903C866.725 364.631 866.913 365.557 866.913 366.682V375H864.901V366.818C864.901 365.778 864.631 364.974 864.092 364.406C863.558 363.832 862.816 363.545 861.867 363.545C861.208 363.545 860.617 363.685 860.094 363.963C859.577 364.241 859.168 364.648 858.867 365.182C858.572 365.716 858.424 366.364 858.424 367.125ZM878.842 369.648V361.909H880.854V375H878.842V372.784H878.706C878.399 373.449 877.922 374.014 877.274 374.48C876.626 374.94 875.808 375.17 874.82 375.17C874.001 375.17 873.274 374.991 872.638 374.634C872.001 374.27 871.501 373.724 871.138 372.997C870.774 372.264 870.592 371.341 870.592 370.227V361.909H872.604V370.091C872.604 371.045 872.871 371.807 873.405 372.375C873.945 372.943 874.632 373.227 875.467 373.227C875.967 373.227 876.476 373.099 876.993 372.844C877.516 372.588 877.953 372.196 878.305 371.668C878.663 371.139 878.842 370.466 878.842 369.648ZM884.81 375V357.545H886.822V363.989H886.992C887.14 363.761 887.344 363.472 887.606 363.119C887.873 362.761 888.254 362.443 888.748 362.165C889.248 361.881 889.924 361.739 890.776 361.739C891.879 361.739 892.85 362.014 893.691 362.565C894.532 363.116 895.188 363.898 895.66 364.909C896.131 365.92 896.367 367.114 896.367 368.489C896.367 369.875 896.131 371.077 895.66 372.094C895.188 373.105 894.535 373.889 893.7 374.446C892.864 374.997 891.901 375.273 890.81 375.273C889.969 375.273 889.296 375.134 888.79 374.855C888.285 374.571 887.896 374.25 887.623 373.892C887.35 373.528 887.14 373.227 886.992 372.989H886.754V375H884.81ZM886.788 368.455C886.788 369.443 886.933 370.315 887.222 371.071C887.512 371.821 887.935 372.409 888.492 372.835C889.049 373.256 889.731 373.466 890.538 373.466C891.379 373.466 892.08 373.244 892.643 372.801C893.211 372.352 893.637 371.75 893.921 370.994C894.211 370.233 894.356 369.386 894.356 368.455C894.356 367.534 894.214 366.705 893.93 365.966C893.651 365.222 893.228 364.634 892.66 364.202C892.097 363.764 891.39 363.545 890.538 363.545C889.719 363.545 889.032 363.753 888.475 364.168C887.918 364.577 887.498 365.151 887.214 365.889C886.93 366.622 886.788 367.477 886.788 368.455ZM900.91 375.136C900.489 375.136 900.129 374.986 899.827 374.685C899.526 374.384 899.376 374.023 899.376 373.602C899.376 373.182 899.526 372.821 899.827 372.52C900.129 372.219 900.489 372.068 900.91 372.068C901.33 372.068 901.691 372.219 901.992 372.52C902.293 372.821 902.444 373.182 902.444 373.602C902.444 373.881 902.373 374.136 902.231 374.369C902.094 374.602 901.91 374.79 901.677 374.932C901.45 375.068 901.194 375.136 900.91 375.136ZM906.053 375V361.909H908.065V375H906.053ZM907.076 359.727C906.684 359.727 906.346 359.594 906.062 359.327C905.783 359.06 905.644 358.739 905.644 358.364C905.644 357.989 905.783 357.668 906.062 357.401C906.346 357.134 906.684 357 907.076 357C907.468 357 907.803 357.134 908.082 357.401C908.366 357.668 908.508 357.989 908.508 358.364C908.508 358.739 908.366 359.06 908.082 359.327C907.803 359.594 907.468 359.727 907.076 359.727ZM917.067 375.273C915.885 375.273 914.848 374.991 913.956 374.429C913.07 373.866 912.376 373.08 911.876 372.068C911.382 371.057 911.135 369.875 911.135 368.523C911.135 367.159 911.382 365.969 911.876 364.952C912.376 363.935 913.07 363.145 913.956 362.582C914.848 362.02 915.885 361.739 917.067 361.739C918.249 361.739 919.283 362.02 920.169 362.582C921.061 363.145 921.754 363.935 922.249 364.952C922.749 365.969 922.999 367.159 922.999 368.523C922.999 369.875 922.749 371.057 922.249 372.068C921.754 373.08 921.061 373.866 920.169 374.429C919.283 374.991 918.249 375.273 917.067 375.273ZM917.067 373.466C917.964 373.466 918.703 373.236 919.283 372.776C919.862 372.315 920.291 371.71 920.57 370.96C920.848 370.21 920.987 369.398 920.987 368.523C920.987 367.648 920.848 366.832 920.57 366.077C920.291 365.321 919.862 364.71 919.283 364.244C918.703 363.778 917.964 363.545 917.067 363.545C916.169 363.545 915.43 363.778 914.851 364.244C914.271 364.71 913.842 365.321 913.564 366.077C913.285 366.832 913.146 367.648 913.146 368.523C913.146 369.398 913.285 370.21 913.564 370.96C913.842 371.71 914.271 372.315 914.851 372.776C915.43 373.236 916.169 373.466 917.067 373.466Z" fill="#D1D5DB"/>
<path d="M561.111 316H552.861V292.727H561.18C563.521 292.727 565.536 293.193 567.225 294.125C568.915 295.049 570.214 296.379 571.123 298.114C572.04 299.848 572.498 301.924 572.498 304.341C572.498 306.765 572.04 308.848 571.123 310.591C570.214 312.333 568.907 313.67 567.202 314.602C565.505 315.534 563.475 316 561.111 316ZM557.782 311.784H560.907C562.361 311.784 563.585 311.527 564.577 311.011C565.577 310.489 566.327 309.682 566.827 308.591C567.335 307.492 567.589 306.076 567.589 304.341C567.589 302.621 567.335 301.216 566.827 300.125C566.327 299.034 565.581 298.231 564.589 297.716C563.596 297.201 562.373 296.943 560.918 296.943H557.782V311.784ZM576.143 316V292.727H591.825V296.784H581.063V302.33H591.018V306.386H581.063V311.943H591.87V316H576.143ZM608.361 299.42C608.271 298.504 607.88 297.792 607.191 297.284C606.502 296.777 605.566 296.523 604.384 296.523C603.581 296.523 602.903 296.636 602.35 296.864C601.797 297.083 601.373 297.39 601.077 297.784C600.79 298.178 600.646 298.625 600.646 299.125C600.63 299.542 600.718 299.905 600.907 300.216C601.104 300.527 601.373 300.795 601.714 301.023C602.055 301.242 602.449 301.436 602.896 301.602C603.343 301.761 603.82 301.898 604.327 302.011L606.418 302.511C607.433 302.739 608.365 303.042 609.214 303.42C610.062 303.799 610.797 304.265 611.418 304.818C612.04 305.371 612.521 306.023 612.861 306.773C613.21 307.523 613.388 308.383 613.396 309.352C613.388 310.777 613.024 312.011 612.305 313.057C611.593 314.095 610.562 314.902 609.214 315.477C607.873 316.045 606.255 316.33 604.361 316.33C602.483 316.33 600.846 316.042 599.452 315.466C598.066 314.89 596.983 314.038 596.202 312.909C595.43 311.773 595.024 310.367 594.986 308.693H599.748C599.801 309.473 600.024 310.125 600.418 310.648C600.82 311.163 601.354 311.553 602.021 311.818C602.695 312.076 603.456 312.205 604.305 312.205C605.138 312.205 605.861 312.083 606.475 311.841C607.096 311.598 607.577 311.261 607.918 310.83C608.259 310.398 608.43 309.902 608.43 309.341C608.43 308.818 608.274 308.379 607.964 308.023C607.661 307.667 607.214 307.364 606.623 307.114C606.04 306.864 605.324 306.636 604.475 306.432L601.941 305.795C599.979 305.318 598.43 304.572 597.293 303.557C596.157 302.542 595.593 301.174 595.6 299.455C595.593 298.045 595.968 296.814 596.725 295.761C597.49 294.708 598.54 293.886 599.873 293.295C601.206 292.705 602.721 292.409 604.418 292.409C606.146 292.409 607.653 292.705 608.941 293.295C610.236 293.886 611.244 294.708 611.964 295.761C612.683 296.814 613.055 298.034 613.077 299.42H608.361ZM621.626 292.727V316H616.705V292.727H621.626ZM641.106 300.25C640.947 299.697 640.723 299.208 640.435 298.784C640.147 298.352 639.795 297.989 639.379 297.693C638.969 297.39 638.5 297.159 637.969 297C637.447 296.841 636.867 296.761 636.231 296.761C635.041 296.761 633.996 297.057 633.094 297.648C632.2 298.239 631.504 299.098 631.004 300.227C630.504 301.348 630.254 302.72 630.254 304.341C630.254 305.962 630.5 307.341 630.992 308.477C631.485 309.614 632.182 310.481 633.083 311.08C633.985 311.67 635.049 311.966 636.276 311.966C637.39 311.966 638.341 311.769 639.129 311.375C639.924 310.973 640.53 310.409 640.947 309.682C641.371 308.955 641.583 308.095 641.583 307.102L642.583 307.25H636.583V303.545H646.322V306.477C646.322 308.523 645.89 310.28 645.026 311.75C644.163 313.212 642.973 314.341 641.458 315.136C639.943 315.924 638.208 316.318 636.254 316.318C634.072 316.318 632.155 315.837 630.504 314.875C628.852 313.905 627.564 312.53 626.64 310.75C625.723 308.962 625.265 306.841 625.265 304.386C625.265 302.5 625.538 300.818 626.083 299.341C626.636 297.856 627.409 296.598 628.401 295.568C629.394 294.538 630.549 293.754 631.867 293.216C633.185 292.678 634.613 292.409 636.151 292.409C637.469 292.409 638.697 292.602 639.833 292.989C640.969 293.367 641.977 293.905 642.856 294.602C643.742 295.299 644.466 296.129 645.026 297.091C645.587 298.045 645.947 299.098 646.106 300.25H641.106ZM669.484 292.727V316H665.234L655.109 301.352H654.938V316H650.018V292.727H654.336L664.381 307.364H664.586V292.727H669.484ZM686.353 309.364C685.436 309.364 684.599 309.14 683.842 308.693C683.084 308.239 682.478 307.633 682.023 306.875C681.576 306.117 681.353 305.28 681.353 304.364C681.353 303.439 681.576 302.602 682.023 301.852C682.478 301.095 683.084 300.492 683.842 300.045C684.599 299.591 685.436 299.364 686.353 299.364C687.277 299.364 688.114 299.591 688.864 300.045C689.622 300.492 690.224 301.095 690.671 301.852C691.126 302.602 691.353 303.439 691.353 304.364C691.353 305.28 691.126 306.117 690.671 306.875C690.224 307.633 689.622 308.239 688.864 308.693C688.114 309.14 687.277 309.364 686.353 309.364ZM711.455 316H703.205V292.727H711.523C713.864 292.727 715.879 293.193 717.569 294.125C719.258 295.049 720.557 296.379 721.467 298.114C722.383 299.848 722.842 301.924 722.842 304.341C722.842 306.765 722.383 308.848 721.467 310.591C720.557 312.333 719.251 313.67 717.546 314.602C715.849 315.534 713.819 316 711.455 316ZM708.126 311.784H711.251C712.705 311.784 713.929 311.527 714.921 311.011C715.921 310.489 716.671 309.682 717.171 308.591C717.679 307.492 717.932 306.076 717.932 304.341C717.932 302.621 717.679 301.216 717.171 300.125C716.671 299.034 715.925 298.231 714.932 297.716C713.94 297.201 712.717 296.943 711.262 296.943H708.126V311.784ZM726.486 316V292.727H742.168V296.784H731.407V302.33H741.361V306.386H731.407V311.943H742.214V316H726.486ZM750.285 292.727L755.91 310.409H756.126L761.762 292.727H767.217L759.194 316H752.853L744.819 292.727H750.285ZM770.018 316V292.727H785.7V296.784H774.938V302.33H784.893V306.386H774.938V311.943H785.745V316H770.018ZM789.611 316V292.727H794.532V311.943H804.509V316H789.611ZM828.248 304.364C828.248 306.902 827.767 309.061 826.805 310.841C825.85 312.621 824.547 313.981 822.896 314.92C821.252 315.852 819.403 316.318 817.35 316.318C815.282 316.318 813.426 315.848 811.782 314.909C810.138 313.97 808.839 312.61 807.884 310.83C806.93 309.049 806.452 306.894 806.452 304.364C806.452 301.826 806.93 299.667 807.884 297.886C808.839 296.106 810.138 294.75 811.782 293.818C813.426 292.879 815.282 292.409 817.35 292.409C819.403 292.409 821.252 292.879 822.896 293.818C824.547 294.75 825.85 296.106 826.805 297.886C827.767 299.667 828.248 301.826 828.248 304.364ZM823.259 304.364C823.259 302.72 823.013 301.333 822.521 300.205C822.036 299.076 821.35 298.22 820.464 297.636C819.577 297.053 818.54 296.761 817.35 296.761C816.161 296.761 815.123 297.053 814.236 297.636C813.35 298.22 812.661 299.076 812.168 300.205C811.683 301.333 811.441 302.72 811.441 304.364C811.441 306.008 811.683 307.394 812.168 308.523C812.661 309.652 813.35 310.508 814.236 311.091C815.123 311.674 816.161 311.966 817.35 311.966C818.54 311.966 819.577 311.674 820.464 311.091C821.35 310.508 822.036 309.652 822.521 308.523C823.013 307.394 823.259 306.008 823.259 304.364ZM831.893 316V292.727H841.075C842.84 292.727 844.343 293.064 845.586 293.739C846.828 294.405 847.775 295.333 848.427 296.523C849.086 297.705 849.415 299.068 849.415 300.614C849.415 302.159 849.082 303.523 848.415 304.705C847.749 305.886 846.783 306.807 845.518 307.466C844.26 308.125 842.737 308.455 840.95 308.455H835.097V304.511H840.154C841.101 304.511 841.881 304.348 842.495 304.023C843.116 303.689 843.578 303.231 843.881 302.648C844.192 302.057 844.347 301.379 844.347 300.614C844.347 299.841 844.192 299.167 843.881 298.591C843.578 298.008 843.116 297.557 842.495 297.239C841.874 296.913 841.086 296.75 840.131 296.75H836.813V316H831.893ZM865.415 309.364C864.499 309.364 863.662 309.14 862.904 308.693C862.147 308.239 861.54 307.633 861.086 306.875C860.639 306.117 860.415 305.28 860.415 304.364C860.415 303.439 860.639 302.602 861.086 301.852C861.54 301.095 862.147 300.492 862.904 300.045C863.662 299.591 864.499 299.364 865.415 299.364C866.34 299.364 867.177 299.591 867.927 300.045C868.684 300.492 869.287 301.095 869.734 301.852C870.188 302.602 870.415 303.439 870.415 304.364C870.415 305.28 870.188 306.117 869.734 306.875C869.287 307.633 868.684 308.239 867.927 308.693C867.177 309.14 866.34 309.364 865.415 309.364ZM894.893 299.42C894.802 298.504 894.412 297.792 893.722 297.284C893.033 296.777 892.097 296.523 890.915 296.523C890.112 296.523 889.434 296.636 888.881 296.864C888.328 297.083 887.904 297.39 887.609 297.784C887.321 298.178 887.177 298.625 887.177 299.125C887.162 299.542 887.249 299.905 887.438 300.216C887.635 300.527 887.904 300.795 888.245 301.023C888.586 301.242 888.98 301.436 889.427 301.602C889.874 301.761 890.351 301.898 890.859 302.011L892.95 302.511C893.965 302.739 894.897 303.042 895.745 303.42C896.593 303.799 897.328 304.265 897.95 304.818C898.571 305.371 899.052 306.023 899.393 306.773C899.741 307.523 899.919 308.383 899.927 309.352C899.919 310.777 899.556 312.011 898.836 313.057C898.124 314.095 897.093 314.902 895.745 315.477C894.404 316.045 892.787 316.33 890.893 316.33C889.014 316.33 887.378 316.042 885.984 315.466C884.597 314.89 883.514 314.038 882.734 312.909C881.961 311.773 881.556 310.367 881.518 308.693H886.279C886.332 309.473 886.556 310.125 886.95 310.648C887.351 311.163 887.885 311.553 888.552 311.818C889.226 312.076 889.987 312.205 890.836 312.205C891.669 312.205 892.393 312.083 893.006 311.841C893.628 311.598 894.109 311.261 894.45 310.83C894.79 310.398 894.961 309.902 894.961 309.341C894.961 308.818 894.806 308.379 894.495 308.023C894.192 307.667 893.745 307.364 893.154 307.114C892.571 306.864 891.855 306.636 891.006 306.432L888.472 305.795C886.51 305.318 884.961 304.572 883.825 303.557C882.688 302.542 882.124 301.174 882.131 299.455C882.124 298.045 882.499 296.814 883.256 295.761C884.022 294.708 885.071 293.886 886.404 293.295C887.737 292.705 889.253 292.409 890.95 292.409C892.677 292.409 894.184 292.705 895.472 293.295C896.768 293.886 897.775 294.708 898.495 295.761C899.215 296.814 899.586 298.034 899.609 299.42H894.893ZM917.611 292.727H922.532V307.841C922.532 309.538 922.127 311.023 921.316 312.295C920.513 313.568 919.388 314.561 917.941 315.273C916.494 315.977 914.808 316.33 912.884 316.33C910.952 316.33 909.263 315.977 907.816 315.273C906.369 314.561 905.244 313.568 904.441 312.295C903.638 311.023 903.236 309.538 903.236 307.841V292.727H908.157V307.42C908.157 308.307 908.35 309.095 908.736 309.784C909.13 310.473 909.683 311.015 910.396 311.409C911.108 311.803 911.937 312 912.884 312C913.839 312 914.668 311.803 915.373 311.409C916.085 311.015 916.634 310.473 917.021 309.784C917.415 309.095 917.611 308.307 917.611 307.42V292.727ZM926.58 316V292.727H935.762C937.527 292.727 939.031 293.064 940.273 293.739C941.516 294.405 942.463 295.333 943.114 296.523C943.773 297.705 944.103 299.068 944.103 300.614C944.103 302.159 943.77 303.523 943.103 304.705C942.436 305.886 941.47 306.807 940.205 307.466C938.948 308.125 937.425 308.455 935.637 308.455H929.785V304.511H934.842C935.789 304.511 936.569 304.348 937.182 304.023C937.804 303.689 938.266 303.231 938.569 302.648C938.879 302.057 939.035 301.379 939.035 300.614C939.035 299.841 938.879 299.167 938.569 298.591C938.266 298.008 937.804 297.557 937.182 297.239C936.561 296.913 935.773 296.75 934.819 296.75H931.501V316H926.58ZM947.299 316V292.727H956.481C958.246 292.727 959.75 293.064 960.992 293.739C962.235 294.405 963.182 295.333 963.833 296.523C964.492 297.705 964.822 299.068 964.822 300.614C964.822 302.159 964.488 303.523 963.822 304.705C963.155 305.886 962.189 306.807 960.924 307.466C959.666 308.125 958.144 308.455 956.356 308.455H950.504V304.511H955.56C956.507 304.511 957.288 304.348 957.901 304.023C958.522 303.689 958.985 303.231 959.288 302.648C959.598 302.057 959.754 301.379 959.754 300.614C959.754 299.841 959.598 299.167 959.288 298.591C958.985 298.008 958.522 297.557 957.901 297.239C957.28 296.913 956.492 296.75 955.538 296.75H952.219V316H947.299ZM989.404 304.364C989.404 306.902 988.923 309.061 987.961 310.841C987.006 312.621 985.703 313.981 984.052 314.92C982.408 315.852 980.559 316.318 978.506 316.318C976.438 316.318 974.582 315.848 972.938 314.909C971.294 313.97 969.995 312.61 969.04 310.83C968.086 309.049 967.609 306.894 967.609 304.364C967.609 301.826 968.086 299.667 969.04 297.886C969.995 296.106 971.294 294.75 972.938 293.818C974.582 292.879 976.438 292.409 978.506 292.409C980.559 292.409 982.408 292.879 984.052 293.818C985.703 294.75 987.006 296.106 987.961 297.886C988.923 299.667 989.404 301.826 989.404 304.364ZM984.415 304.364C984.415 302.72 984.169 301.333 983.677 300.205C983.192 299.076 982.506 298.22 981.62 297.636C980.734 297.053 979.696 296.761 978.506 296.761C977.317 296.761 976.279 297.053 975.393 297.636C974.506 298.22 973.817 299.076 973.325 300.205C972.84 301.333 972.597 302.72 972.597 304.364C972.597 306.008 972.84 307.394 973.325 308.523C973.817 309.652 974.506 310.508 975.393 311.091C976.279 311.674 977.317 311.966 978.506 311.966C979.696 311.966 980.734 311.674 981.62 311.091C982.506 310.508 983.192 309.652 983.677 308.523C984.169 307.394 984.415 306.008 984.415 304.364ZM993.049 316V292.727H1002.23C1003.99 292.727 1005.49 293.042 1006.73 293.67C1007.98 294.292 1008.93 295.174 1009.58 296.318C1010.24 297.455 1010.57 298.792 1010.57 300.33C1010.57 301.875 1010.24 303.205 1009.57 304.318C1008.91 305.424 1007.94 306.273 1006.67 306.864C1005.42 307.455 1003.89 307.75 1002.11 307.75H995.958V303.795H1001.31C1002.25 303.795 1003.03 303.667 1003.65 303.409C1004.27 303.152 1004.73 302.765 1005.04 302.25C1005.35 301.735 1005.5 301.095 1005.5 300.33C1005.5 299.557 1005.35 298.905 1005.04 298.375C1004.73 297.845 1004.27 297.443 1003.64 297.17C1003.02 296.89 1002.23 296.75 1001.29 296.75H997.969V316H993.049ZM1005.62 305.409L1011.4 316H1005.97L1000.31 305.409H1005.62ZM1013.16 296.784V292.727H1032.28V296.784H1025.15V316H1020.29V296.784H1013.16Z" fill="url(#paint3_linear_2112_2292)"/>
<path d="M648.984 172.97L677.057 187.869V217.667L648.984 232.566L620.912 217.667V187.869L648.984 172.97Z" stroke="#76828F" stroke-width="3"/>
<path d="M648.984 172.97V232.566M620.912 187.869L648.984 202.768L677.057 187.869" stroke="#C2C8D0" stroke-width="3"/>
<foreignObject x="13.6001" y="3.7002" width="1556.8" height="388.6"><div xmlns="http://www.w3.org/1999/xhtml" style="backdrop-filter:blur(0px);clip-path:url(#bgblur_1_2112_2292_clip_path);height:100%;width:100%"></div></foreignObject><path data-figma-bg-blur-radius="0" d="M648.984 176.695C650.922 176.695 652.493 175.027 652.493 172.97C652.493 170.913 650.922 169.245 648.984 169.245C647.046 169.245 645.475 170.913 645.475 172.97C645.475 175.027 647.046 176.695 648.984 176.695Z" fill="url(#paint4_linear_2112_2292)"/>
<foreignObject x="13.6001" y="3.7002" width="1556.8" height="388.6"><div xmlns="http://www.w3.org/1999/xhtml" style="backdrop-filter:blur(0px);clip-path:url(#bgblur_2_2112_2292_clip_path);height:100%;width:100%"></div></foreignObject><path data-figma-bg-blur-radius="0" d="M648.984 206.492C650.922 206.492 652.493 204.825 652.493 202.768C652.493 200.711 650.922 199.043 648.984 199.043C647.046 199.043 645.475 200.711 645.475 202.768C645.475 204.825 647.046 206.492 648.984 206.492Z" fill="url(#paint5_linear_2112_2292)"/>
<foreignObject x="13.6001" y="3.7002" width="1556.8" height="388.6"><div xmlns="http://www.w3.org/1999/xhtml" style="backdrop-filter:blur(0px);clip-path:url(#bgblur_3_2112_2292_clip_path);height:100%;width:100%"></div></foreignObject><path data-figma-bg-blur-radius="0" d="M620.911 221.391C622.849 221.391 624.42 219.723 624.42 217.666C624.42 215.609 622.849 213.941 620.911 213.941C618.973 213.941 617.402 215.609 617.402 217.666C617.402 219.723 618.973 221.391 620.911 221.391Z" fill="url(#paint6_linear_2112_2292)"/>
<foreignObject x="13.6001" y="3.7002" width="1556.8" height="388.6"><div xmlns="http://www.w3.org/1999/xhtml" style="backdrop-filter:blur(0px);clip-path:url(#bgblur_4_2112_2292_clip_path);height:100%;width:100%"></div></foreignObject><path data-figma-bg-blur-radius="0" d="M677.056 221.391C678.994 221.391 680.565 219.723 680.565 217.666C680.565 215.609 678.994 213.941 677.056 213.941C675.118 213.941 673.547 215.609 673.547 217.666C673.547 219.723 675.118 221.391 677.056 221.391Z" fill="url(#paint7_linear_2112_2292)"/>
<foreignObject x="13.6001" y="3.7002" width="1556.8" height="388.6"><div xmlns="http://www.w3.org/1999/xhtml" style="backdrop-filter:blur(0px);height:100%;width:100%"></div></foreignObject><path data-figma-bg-blur-radius="0" d="M620.89 219.725L648.117 173.719" stroke="url(#paint8_linear_2112_2292)" stroke-width="4"/>
<path d="M621.211 222.265C623.536 222.265 625.422 220.263 625.422 217.795C625.422 215.326 623.536 213.325 621.211 213.325C618.885 213.325 617 215.326 617 217.795C617 220.263 618.885 222.265 621.211 222.265Z" fill="#9D4EDD"/>
<path d="M648.438 177.939C650.764 177.939 652.649 175.938 652.649 173.47C652.649 171.001 650.764 169 648.438 169C646.113 169 644.228 171.001 644.228 173.47C644.228 175.938 646.113 177.939 648.438 177.939Z" fill="#00D2FF"/>
<path d="M726.363 213H718.113L715.722 205.523H703.769L701.402 213H693.198L705.433 179.391H714.409L726.363 213ZM713.988 199.711L710.378 188.414C710.113 187.57 709.925 186.562 709.816 185.391H709.628C709.55 186.375 709.355 187.352 709.042 188.32L705.386 199.711H713.988ZM737.331 210.211H737.238V224.039H729.831V189H737.238V192.609H737.331C739.159 189.812 741.73 188.414 745.042 188.414C748.152 188.414 750.55 189.484 752.238 191.625C753.941 193.75 754.792 196.648 754.792 200.32C754.792 204.32 753.8 207.531 751.816 209.953C749.847 212.375 747.222 213.586 743.941 213.586C741.05 213.586 738.847 212.461 737.331 210.211ZM737.12 200.367V202.289C737.12 203.945 737.558 205.297 738.433 206.344C739.308 207.391 740.456 207.914 741.878 207.914C743.566 207.914 744.87 207.266 745.792 205.969C746.73 204.656 747.198 202.805 747.198 200.414C747.198 196.195 745.558 194.086 742.277 194.086C740.761 194.086 739.519 194.664 738.55 195.82C737.597 196.961 737.12 198.477 737.12 200.367ZM767.097 210.211H767.003V224.039H759.597V189H767.003V192.609H767.097C768.925 189.812 771.495 188.414 774.808 188.414C777.917 188.414 780.316 189.484 782.003 191.625C783.706 193.75 784.558 196.648 784.558 200.32C784.558 204.32 783.566 207.531 781.581 209.953C779.613 212.375 776.988 213.586 773.706 213.586C770.816 213.586 768.613 212.461 767.097 210.211ZM766.886 200.367V202.289C766.886 203.945 767.323 205.297 768.198 206.344C769.073 207.391 770.222 207.914 771.644 207.914C773.331 207.914 774.636 207.266 775.558 205.969C776.495 204.656 776.964 202.805 776.964 200.414C776.964 196.195 775.323 194.086 772.042 194.086C770.527 194.086 769.284 194.664 768.316 195.82C767.363 196.961 766.886 198.477 766.886 200.367Z" fill="white"/>
<path d="M803.355 213V179.391H815.589C819.339 179.391 822.222 180.078 824.238 181.453C826.253 182.828 827.261 184.766 827.261 187.266C827.261 189.078 826.644 190.664 825.409 192.023C824.191 193.383 822.628 194.328 820.722 194.859V194.953C823.113 195.25 825.019 196.133 826.441 197.602C827.878 199.07 828.597 200.859 828.597 202.969C828.597 206.047 827.495 208.492 825.292 210.305C823.089 212.102 820.081 213 816.269 213H803.355ZM810.925 184.969V192.938H814.253C815.816 192.938 817.042 192.562 817.933 191.812C818.839 191.047 819.292 190 819.292 188.672C819.292 186.203 817.448 184.969 813.761 184.969H810.925ZM810.925 198.562V207.422H815.027C816.777 207.422 818.144 207.016 819.128 206.203C820.128 205.391 820.628 204.281 820.628 202.875C820.628 201.531 820.136 200.477 819.152 199.711C818.183 198.945 816.823 198.562 815.073 198.562H810.925ZM856.23 213H848.847V209.344H848.73C846.902 212.172 844.456 213.586 841.394 213.586C835.831 213.586 833.05 210.219 833.05 203.484V189H840.433V202.828C840.433 206.219 841.777 207.914 844.464 207.914C845.792 207.914 846.855 207.453 847.652 206.531C848.448 205.594 848.847 204.328 848.847 202.734V189H856.23V213ZM885.972 213H878.566V209.695H878.472C876.784 212.289 874.308 213.586 871.042 213.586C868.042 213.586 865.628 212.531 863.8 210.422C861.972 208.297 861.058 205.336 861.058 201.539C861.058 197.57 862.066 194.391 864.081 192C866.097 189.609 868.737 188.414 872.003 188.414C875.097 188.414 877.253 189.523 878.472 191.742H878.566V177.469H885.972V213ZM878.706 201.328V199.523C878.706 197.961 878.253 196.664 877.347 195.633C876.441 194.602 875.261 194.086 873.808 194.086C872.167 194.086 870.886 194.734 869.964 196.031C869.042 197.312 868.581 199.078 868.581 201.328C868.581 203.438 869.027 205.062 869.917 206.203C870.808 207.344 872.042 207.914 873.62 207.914C875.12 207.914 876.339 207.312 877.277 206.109C878.23 204.906 878.706 203.312 878.706 201.328ZM915.691 213H908.284V209.695H908.191C906.503 212.289 904.027 213.586 900.761 213.586C897.761 213.586 895.347 212.531 893.519 210.422C891.691 208.297 890.777 205.336 890.777 201.539C890.777 197.57 891.784 194.391 893.8 192C895.816 189.609 898.456 188.414 901.722 188.414C904.816 188.414 906.972 189.523 908.191 191.742H908.284V177.469H915.691V213ZM908.425 201.328V199.523C908.425 197.961 907.972 196.664 907.066 195.633C906.159 194.602 904.98 194.086 903.527 194.086C901.886 194.086 900.605 194.734 899.683 196.031C898.761 197.312 898.3 199.078 898.3 201.328C898.3 203.438 898.745 205.062 899.636 206.203C900.527 207.344 901.761 207.914 903.339 207.914C904.839 207.914 906.058 207.312 906.995 206.109C907.948 204.906 908.425 203.312 908.425 201.328ZM944.777 189L935.027 214.922C932.683 221.156 929.152 224.273 924.433 224.273C922.636 224.273 921.159 224.07 920.003 223.664V217.758C920.987 218.336 922.058 218.625 923.214 218.625C925.12 218.625 926.448 217.727 927.198 215.93L928.464 212.953L918.714 189H926.917L931.394 203.602C931.675 204.508 931.894 205.578 932.05 206.812H932.144C932.284 205.906 932.542 204.852 932.917 203.648L937.441 189H944.777Z" fill="#B1BAC4"/>
<foreignObject x="13.6001" y="3.7002" width="1556.8" height="388.6"><div xmlns="http://www.w3.org/1999/xhtml" style="backdrop-filter:blur(0px);clip-path:url(#bgblur_5_2112_2292_clip_path);height:100%;width:100%"></div></foreignObject><path data-figma-bg-blur-radius="0" d="M792.5 215C796.09 215 799 212.09 799 208.5C799 204.91 796.09 202 792.5 202C788.91 202 786 204.91 786 208.5C786 212.09 788.91 215 792.5 215Z" fill="url(#paint9_linear_2112_2292)"/>
<path d="M93.8621 90.9134C93.6917 89.1946 92.9601 87.8594 91.6675 86.9077C90.3749 85.956 88.6207 85.4801 86.4047 85.4801C84.8991 85.4801 83.6278 85.6932 82.5908 86.1193C81.5539 86.5312 80.7584 87.1065 80.2045 87.8452C79.6647 88.5838 79.3948 89.4219 79.3948 90.3594C79.3664 91.1406 79.5297 91.8224 79.8849 92.4048C80.2542 92.9872 80.7584 93.4915 81.3976 93.9176C82.0368 94.3295 82.7755 94.6918 83.6136 95.0043C84.4516 95.3026 85.3465 95.5582 86.2982 95.7713L90.2187 96.7088C92.1221 97.1349 93.8692 97.7031 95.4601 98.4134C97.0511 99.1236 98.4289 99.9972 99.5937 101.034C100.758 102.071 101.66 103.293 102.3 104.699C102.953 106.105 103.287 107.717 103.301 109.536C103.287 112.206 102.605 114.521 101.256 116.482C99.9204 118.428 97.9886 119.94 95.4601 121.02C92.9459 122.085 89.9133 122.618 86.3621 122.618C82.8394 122.618 79.7712 122.078 77.1576 120.999C74.5582 119.919 72.5269 118.321 71.0638 116.205C69.615 114.074 68.855 111.439 68.784 108.3H77.7116C77.811 109.763 78.23 110.984 78.9687 111.964C79.7215 112.93 80.7229 113.662 81.9729 114.159C83.2371 114.642 84.6647 114.884 86.2556 114.884C87.8181 114.884 89.1746 114.656 90.3252 114.202C91.49 113.747 92.392 113.115 93.0312 112.305C93.6704 111.496 93.99 110.565 93.99 109.514C93.99 108.534 93.6988 107.71 93.1164 107.043C92.5482 106.375 91.7101 105.807 90.6022 105.338C89.5084 104.869 88.1661 104.443 86.5752 104.06L81.8238 102.866C78.1448 101.972 75.24 100.572 73.1093 98.669C70.9786 96.7656 69.9204 94.2017 69.9346 90.9773C69.9204 88.3352 70.6235 86.027 72.044 84.0526C73.4786 82.0781 75.4459 80.5369 77.9459 79.429C80.4459 78.321 83.2868 77.767 86.4687 77.767C89.7073 77.767 92.534 78.321 94.9488 79.429C97.3778 80.5369 99.267 82.0781 100.616 84.0526C101.966 86.027 102.662 88.3139 102.704 90.9134H93.8621ZM127.723 122.639C124.413 122.639 121.551 121.936 119.136 120.53C116.736 119.109 114.882 117.135 113.575 114.607C112.269 112.064 111.615 109.116 111.615 105.764C111.615 102.384 112.269 99.429 113.575 96.9006C114.882 94.358 116.736 92.3835 119.136 90.9773C121.551 89.5568 124.413 88.8466 127.723 88.8466C131.033 88.8466 133.888 89.5568 136.288 90.9773C138.703 92.3835 140.564 94.358 141.871 96.9006C143.178 99.429 143.831 102.384 143.831 105.764C143.831 109.116 143.178 112.064 141.871 114.607C140.564 117.135 138.703 119.109 136.288 120.53C133.888 121.936 131.033 122.639 127.723 122.639ZM127.766 115.608C129.271 115.608 130.529 115.182 131.537 114.33C132.546 113.463 133.306 112.284 133.817 110.793C134.342 109.301 134.605 107.604 134.605 105.7C134.605 103.797 134.342 102.099 133.817 100.608C133.306 99.1165 132.546 97.9375 131.537 97.071C130.529 96.2045 129.271 95.7713 127.766 95.7713C126.246 95.7713 124.967 96.2045 123.931 97.071C122.908 97.9375 122.134 99.1165 121.608 100.608C121.097 102.099 120.841 103.797 120.841 105.7C120.841 107.604 121.097 109.301 121.608 110.793C122.134 112.284 122.908 113.463 123.931 114.33C124.967 115.182 126.246 115.608 127.766 115.608ZM170.933 89.2727V96.0909H150.734V89.2727H170.933ZM155.357 122V86.9077C155.357 84.5355 155.819 82.5682 156.742 81.0057C157.68 79.4432 158.958 78.2713 160.577 77.4901C162.197 76.7088 164.036 76.3182 166.096 76.3182C167.488 76.3182 168.759 76.4247 169.91 76.6378C171.075 76.8509 171.941 77.0426 172.509 77.2131L170.89 84.0312C170.535 83.9176 170.094 83.8111 169.569 83.7116C169.058 83.6122 168.532 83.5625 167.992 83.5625C166.657 83.5625 165.727 83.875 165.201 84.5C164.675 85.1108 164.413 85.9702 164.413 87.0781V122H155.357ZM197.485 89.2727V96.0909H177.776V89.2727H197.485ZM182.251 81.4318H191.328V111.943C191.328 112.781 191.455 113.435 191.711 113.903C191.967 114.358 192.322 114.678 192.776 114.862C193.245 115.047 193.785 115.139 194.396 115.139C194.822 115.139 195.248 115.104 195.674 115.033C196.1 114.947 196.427 114.884 196.654 114.841L198.082 121.595C197.627 121.737 196.988 121.901 196.164 122.085C195.34 122.284 194.339 122.405 193.16 122.447C190.973 122.533 189.055 122.241 187.407 121.574C185.774 120.906 184.502 119.869 183.593 118.463C182.684 117.057 182.237 115.281 182.251 113.136V81.4318ZM213.454 122L204.548 89.2727H213.731L218.802 111.261H219.1L224.384 89.2727H233.397L238.766 111.134H239.043L244.029 89.2727H253.191L244.306 122H234.697L229.072 101.418H228.667L223.042 122H213.454ZM270.965 122.618C268.877 122.618 267.017 122.256 265.383 121.531C263.75 120.793 262.457 119.706 261.505 118.271C260.568 116.822 260.099 115.018 260.099 112.859C260.099 111.041 260.433 109.514 261.1 108.278C261.768 107.043 262.677 106.048 263.828 105.295C264.978 104.543 266.285 103.974 267.748 103.591C269.225 103.207 270.774 102.938 272.393 102.781C274.296 102.582 275.831 102.398 276.995 102.227C278.16 102.043 279.005 101.773 279.531 101.418C280.056 101.062 280.319 100.537 280.319 99.8409V99.7131C280.319 98.3636 279.893 97.3196 279.041 96.581C278.203 95.8423 277.01 95.473 275.461 95.473C273.828 95.473 272.528 95.8352 271.562 96.5597C270.596 97.2699 269.957 98.1648 269.644 99.2443L261.25 98.5625C261.676 96.5739 262.514 94.8551 263.764 93.4062C265.014 91.9432 266.626 90.821 268.6 90.0398C270.589 89.2443 272.89 88.8466 275.504 88.8466C277.322 88.8466 279.062 89.0597 280.724 89.4858C282.4 89.9119 283.885 90.5724 285.177 91.4673C286.484 92.3622 287.514 93.5128 288.267 94.919C289.019 96.3111 289.396 97.9801 289.396 99.9261V122H280.788V117.462H280.532C280.007 118.484 279.304 119.386 278.423 120.168C277.542 120.935 276.484 121.538 275.248 121.979C274.012 122.405 272.585 122.618 270.965 122.618ZM273.565 116.354C274.9 116.354 276.079 116.091 277.102 115.565C278.125 115.026 278.927 114.301 279.51 113.392C280.092 112.483 280.383 111.453 280.383 110.303V106.83C280.099 107.014 279.708 107.185 279.211 107.341C278.728 107.483 278.181 107.618 277.571 107.746C276.96 107.859 276.349 107.966 275.738 108.065C275.127 108.151 274.573 108.229 274.076 108.3C273.011 108.456 272.081 108.705 271.285 109.045C270.49 109.386 269.872 109.848 269.431 110.43C268.991 110.999 268.771 111.709 268.771 112.561C268.771 113.797 269.218 114.741 270.113 115.395C271.022 116.034 272.173 116.354 273.565 116.354ZM300.038 122V89.2727H308.837V94.983H309.178C309.775 92.9517 310.776 91.4176 312.183 90.3807C313.589 89.3295 315.208 88.804 317.041 88.804C317.495 88.804 317.985 88.8324 318.511 88.8892C319.036 88.946 319.498 89.0241 319.896 89.1236V97.1776C319.47 97.0497 318.88 96.9361 318.127 96.8366C317.374 96.7372 316.686 96.6875 316.061 96.6875C314.725 96.6875 313.532 96.9787 312.481 97.5611C311.444 98.1293 310.62 98.9247 310.009 99.9474C309.413 100.97 309.114 102.149 309.114 103.484V122H300.038ZM341.58 122.639C338.213 122.639 335.316 121.957 332.887 120.594C330.472 119.216 328.611 117.27 327.304 114.756C325.998 112.227 325.344 109.237 325.344 105.786C325.344 102.419 325.998 99.4645 327.304 96.9219C328.611 94.3793 330.451 92.3977 332.823 90.9773C335.209 89.5568 338.007 88.8466 341.218 88.8466C343.377 88.8466 345.387 89.1946 347.248 89.8906C349.123 90.5724 350.756 91.6023 352.148 92.9801C353.554 94.358 354.648 96.0909 355.429 98.179C356.211 100.253 356.601 102.682 356.601 105.466V107.959H328.966V102.334H348.057C348.057 101.027 347.773 99.8693 347.205 98.8608C346.637 97.8523 345.848 97.0639 344.84 96.4957C343.846 95.9134 342.688 95.6222 341.367 95.6222C339.989 95.6222 338.767 95.9418 337.702 96.581C336.651 97.206 335.827 98.0511 335.23 99.1165C334.634 100.168 334.328 101.339 334.314 102.632V107.98C334.314 109.599 334.613 110.999 335.209 112.178C335.82 113.357 336.679 114.266 337.787 114.905C338.895 115.544 340.209 115.864 341.729 115.864C342.738 115.864 343.661 115.722 344.499 115.438C345.337 115.153 346.054 114.727 346.651 114.159C347.248 113.591 347.702 112.895 348.015 112.071L356.409 112.625C355.983 114.642 355.11 116.403 353.789 117.909C352.482 119.401 350.792 120.565 348.718 121.403C346.658 122.227 344.279 122.639 341.58 122.639ZM383.782 122V78.3636H413.185V85.9702H393.008V96.3679H411.672V103.974H393.008V114.393H413.27V122H383.782ZM433.026 103.08V122H423.949V89.2727H432.6V95.0469H432.984C433.708 93.1435 434.923 91.6378 436.627 90.5298C438.332 89.4077 440.398 88.8466 442.827 88.8466C445.1 88.8466 447.082 89.3438 448.772 90.3381C450.462 91.3324 451.776 92.7528 452.714 94.5994C453.651 96.4318 454.12 98.6193 454.12 101.162V122H445.043V102.781C445.057 100.778 444.546 99.2159 443.509 98.0938C442.472 96.9574 441.045 96.3892 439.226 96.3892C438.005 96.3892 436.925 96.652 435.988 97.1776C435.065 97.7031 434.34 98.4702 433.815 99.4787C433.303 100.473 433.04 101.673 433.026 103.08ZM479.618 134.955C476.678 134.955 474.156 134.55 472.054 133.74C469.966 132.945 468.304 131.858 467.068 130.48C465.833 129.102 465.03 127.554 464.661 125.835L473.056 124.706C473.311 125.359 473.716 125.97 474.27 126.538C474.824 127.107 475.556 127.561 476.465 127.902C477.388 128.257 478.51 128.435 479.831 128.435C481.806 128.435 483.432 127.952 484.71 126.986C486.003 126.034 486.649 124.436 486.649 122.192V116.205H486.266C485.868 117.114 485.271 117.973 484.476 118.783C483.681 119.592 482.658 120.253 481.408 120.764C480.158 121.276 478.666 121.531 476.933 121.531C474.476 121.531 472.239 120.963 470.222 119.827C468.219 118.676 466.621 116.922 465.428 114.564C464.249 112.192 463.659 109.195 463.659 105.572C463.659 101.865 464.263 98.7685 465.47 96.2827C466.678 93.7969 468.283 91.9361 470.286 90.7003C472.303 89.4645 474.512 88.8466 476.912 88.8466C478.744 88.8466 480.279 89.1591 481.514 89.7841C482.75 90.3949 483.744 91.1619 484.497 92.0852C485.264 92.9943 485.854 93.8892 486.266 94.7699H486.607V89.2727H495.619V122.32C495.619 125.104 494.938 127.433 493.574 129.308C492.21 131.183 490.321 132.589 487.906 133.527C485.506 134.479 482.743 134.955 479.618 134.955ZM479.81 114.713C481.273 114.713 482.509 114.351 483.517 113.626C484.54 112.888 485.321 111.837 485.861 110.473C486.415 109.095 486.692 107.447 486.692 105.53C486.692 103.612 486.422 101.95 485.882 100.544C485.342 99.1236 484.561 98.0227 483.538 97.2415C482.516 96.4602 481.273 96.0696 479.81 96.0696C478.318 96.0696 477.061 96.4744 476.038 97.2841C475.016 98.0795 474.242 99.1875 473.716 100.608C473.19 102.028 472.928 103.669 472.928 105.53C472.928 107.419 473.19 109.053 473.716 110.43C474.256 111.794 475.03 112.852 476.038 113.605C477.061 114.344 478.318 114.713 479.81 114.713ZM506.442 122V89.2727H515.519V122H506.442ZM511.002 85.054C509.653 85.054 508.495 84.6065 507.529 83.7116C506.577 82.8026 506.102 81.7159 506.102 80.4517C506.102 79.2017 506.577 78.1293 507.529 77.2344C508.495 76.3253 509.653 75.8707 511.002 75.8707C512.352 75.8707 513.502 76.3253 514.454 77.2344C515.42 78.1293 515.903 79.2017 515.903 80.4517C515.903 81.7159 515.42 82.8026 514.454 83.7116C513.502 84.6065 512.352 85.054 511.002 85.054ZM535.467 103.08V122H526.39V89.2727H535.041V95.0469H535.424C536.149 93.1435 537.363 91.6378 539.068 90.5298C540.772 89.4077 542.839 88.8466 545.268 88.8466C547.541 88.8466 549.522 89.3438 551.213 90.3381C552.903 91.3324 554.217 92.7528 555.154 94.5994C556.092 96.4318 556.561 98.6193 556.561 101.162V122H547.484V102.781C547.498 100.778 546.987 99.2159 545.95 98.0938C544.913 96.9574 543.485 96.3892 541.667 96.3892C540.446 96.3892 539.366 96.652 538.428 97.1776C537.505 97.7031 536.781 98.4702 536.255 99.4787C535.744 100.473 535.481 101.673 535.467 103.08ZM582.229 122.639C578.863 122.639 575.965 121.957 573.536 120.594C571.121 119.216 569.26 117.27 567.954 114.756C566.647 112.227 565.993 109.237 565.993 105.786C565.993 102.419 566.647 99.4645 567.954 96.9219C569.26 94.3793 571.1 92.3977 573.472 90.9773C575.858 89.5568 578.657 88.8466 581.867 88.8466C584.026 88.8466 586.036 89.1946 587.897 89.8906C589.772 90.5724 591.405 91.6023 592.797 92.9801C594.204 94.358 595.297 96.0909 596.079 98.179C596.86 100.253 597.25 102.682 597.25 105.466V107.959H569.615V102.334H588.706C588.706 101.027 588.422 99.8693 587.854 98.8608C587.286 97.8523 586.498 97.0639 585.489 96.4957C584.495 95.9134 583.337 95.6222 582.016 95.6222C580.638 95.6222 579.417 95.9418 578.351 96.581C577.3 97.206 576.476 98.0511 575.88 99.1165C575.283 100.168 574.978 101.339 574.963 102.632V107.98C574.963 109.599 575.262 110.999 575.858 112.178C576.469 113.357 577.329 114.266 578.436 114.905C579.544 115.544 580.858 115.864 582.378 115.864C583.387 115.864 584.31 115.722 585.148 115.438C585.986 115.153 586.704 114.727 587.3 114.159C587.897 113.591 588.351 112.895 588.664 112.071L597.059 112.625C596.632 114.642 595.759 116.403 594.438 117.909C593.131 119.401 591.441 120.565 589.367 121.403C587.307 122.227 584.928 122.639 582.229 122.639ZM621.688 122.639C618.322 122.639 615.424 121.957 612.995 120.594C610.581 119.216 608.72 117.27 607.413 114.756C606.106 112.227 605.453 109.237 605.453 105.786C605.453 102.419 606.106 99.4645 607.413 96.9219C608.72 94.3793 610.559 92.3977 612.931 90.9773C615.318 89.5568 618.116 88.8466 621.326 88.8466C623.485 88.8466 625.495 89.1946 627.356 89.8906C629.231 90.5724 630.865 91.6023 632.257 92.9801C633.663 94.358 634.757 96.0909 635.538 98.179C636.319 100.253 636.71 102.682 636.71 105.466V107.959H609.075V102.334H628.166C628.166 101.027 627.882 99.8693 627.313 98.8608C626.745 97.8523 625.957 97.0639 624.948 96.4957C623.954 95.9134 622.796 95.6222 621.475 95.6222C620.098 95.6222 618.876 95.9418 617.811 96.581C616.76 97.206 615.936 98.0511 615.339 99.1165C614.742 100.168 614.437 101.339 614.423 102.632V107.98C614.423 109.599 614.721 110.999 615.318 112.178C615.929 113.357 616.788 114.266 617.896 114.905C619.004 115.544 620.318 115.864 621.838 115.864C622.846 115.864 623.769 115.722 624.608 115.438C625.446 115.153 626.163 114.727 626.76 114.159C627.356 113.591 627.811 112.895 628.123 112.071L636.518 112.625C636.092 114.642 635.218 116.403 633.897 117.909C632.59 119.401 630.9 120.565 628.826 121.403C626.767 122.227 624.387 122.639 621.688 122.639ZM646.233 122V89.2727H655.033V94.983H655.374C655.97 92.9517 656.972 91.4176 658.378 90.3807C659.784 89.3295 661.404 88.804 663.236 88.804C663.69 88.804 664.181 88.8324 664.706 88.8892C665.232 88.946 665.693 89.0241 666.091 89.1236V97.1776C665.665 97.0497 665.075 96.9361 664.323 96.8366C663.57 96.7372 662.881 96.6875 662.256 96.6875C660.921 96.6875 659.727 96.9787 658.676 97.5611C657.639 98.1293 656.815 98.9247 656.205 99.9474C655.608 100.97 655.31 102.149 655.31 103.484V122H646.233ZM674.384 122V89.2727H683.461V122H674.384ZM678.944 85.054C677.594 85.054 676.436 84.6065 675.471 83.7116C674.519 82.8026 674.043 81.7159 674.043 80.4517C674.043 79.2017 674.519 78.1293 675.471 77.2344C676.436 76.3253 677.594 75.8707 678.944 75.8707C680.293 75.8707 681.444 76.3253 682.395 77.2344C683.361 78.1293 683.844 79.2017 683.844 80.4517C683.844 81.7159 683.361 82.8026 682.395 83.7116C681.444 84.6065 680.293 85.054 678.944 85.054ZM703.408 103.08V122H694.332V89.2727H702.982V95.0469H703.366C704.09 93.1435 705.305 91.6378 707.009 90.5298C708.714 89.4077 710.78 88.8466 713.209 88.8466C715.482 88.8466 717.464 89.3438 719.154 90.3381C720.844 91.3324 722.158 92.7528 723.096 94.5994C724.033 96.4318 724.502 98.6193 724.502 101.162V122H715.425V102.781C715.439 100.778 714.928 99.2159 713.891 98.0938C712.854 96.9574 711.427 96.3892 709.608 96.3892C708.387 96.3892 707.307 96.652 706.37 97.1776C705.447 97.7031 704.722 98.4702 704.197 99.4787C703.685 100.473 703.422 101.673 703.408 103.08ZM750 134.955C747.06 134.955 744.538 134.55 742.436 133.74C740.348 132.945 738.686 131.858 737.45 130.48C736.215 129.102 735.412 127.554 735.043 125.835L743.438 124.706C743.693 125.359 744.098 125.97 744.652 126.538C745.206 127.107 745.938 127.561 746.847 127.902C747.77 128.257 748.892 128.435 750.213 128.435C752.188 128.435 753.814 127.952 755.092 126.986C756.385 126.034 757.031 124.436 757.031 122.192V116.205H756.648C756.25 117.114 755.653 117.973 754.858 118.783C754.063 119.592 753.04 120.253 751.79 120.764C750.54 121.276 749.048 121.531 747.315 121.531C744.858 121.531 742.621 120.963 740.604 119.827C738.601 118.676 737.003 116.922 735.81 114.564C734.631 112.192 734.041 109.195 734.041 105.572C734.041 101.865 734.645 98.7685 735.852 96.2827C737.06 93.7969 738.665 91.9361 740.668 90.7003C742.685 89.4645 744.894 88.8466 747.294 88.8466C749.127 88.8466 750.661 89.1591 751.896 89.7841C753.132 90.3949 754.127 91.1619 754.879 92.0852C755.646 92.9943 756.236 93.8892 756.648 94.7699H756.989V89.2727H766.002V122.32C766.002 125.104 765.32 127.433 763.956 129.308C762.592 131.183 760.703 132.589 758.288 133.527C755.888 134.479 753.125 134.955 750 134.955ZM750.192 114.713C751.655 114.713 752.891 114.351 753.899 113.626C754.922 112.888 755.703 111.837 756.243 110.473C756.797 109.095 757.074 107.447 757.074 105.53C757.074 103.612 756.804 101.95 756.264 100.544C755.725 99.1236 754.943 98.0227 753.921 97.2415C752.898 96.4602 751.655 96.0696 750.192 96.0696C748.7 96.0696 747.443 96.4744 746.421 97.2841C745.398 98.0795 744.624 99.1875 744.098 100.608C743.573 102.028 743.31 103.669 743.31 105.53C743.31 107.419 743.573 109.053 744.098 110.43C744.638 111.794 745.412 112.852 746.421 113.605C747.443 114.344 748.7 114.713 750.192 114.713Z" fill="url(#paint10_linear_2112_2292)"/>
<path d="M795.07 64.6847V148.406H790.099V64.6847H795.07Z" fill="white"/>
<path d="M820.211 89.9702V82.3636H856.049V89.9702H842.69V126H833.571V89.9702H820.211ZM875.549 126.639C872.183 126.639 869.285 125.957 866.856 124.594C864.441 123.216 862.581 121.27 861.274 118.756C859.967 116.227 859.314 113.237 859.314 109.786C859.314 106.419 859.967 103.464 861.274 100.922C862.581 98.3793 864.42 96.3977 866.792 94.9773C869.179 93.5568 871.977 92.8466 875.187 92.8466C877.346 92.8466 879.356 93.1946 881.217 93.8906C883.092 94.5724 884.726 95.6023 886.118 96.9801C887.524 98.358 888.618 100.091 889.399 102.179C890.18 104.253 890.571 106.682 890.571 109.466V111.959H862.936V106.334H882.027C882.027 105.027 881.743 103.869 881.174 102.861C880.606 101.852 879.818 101.064 878.809 100.496C877.815 99.9134 876.657 99.6222 875.336 99.6222C873.959 99.6222 872.737 99.9418 871.672 100.581C870.62 101.206 869.797 102.051 869.2 103.116C868.603 104.168 868.298 105.339 868.284 106.632V111.98C868.284 113.599 868.582 114.999 869.179 116.178C869.789 117.357 870.649 118.266 871.757 118.905C872.865 119.544 874.179 119.864 875.699 119.864C876.707 119.864 877.63 119.722 878.468 119.438C879.307 119.153 880.024 118.727 880.62 118.159C881.217 117.591 881.672 116.895 881.984 116.071L890.379 116.625C889.953 118.642 889.079 120.403 887.758 121.909C886.451 123.401 884.761 124.565 882.687 125.403C880.628 126.227 878.248 126.639 875.549 126.639ZM914.881 126.639C911.529 126.639 908.645 125.929 906.23 124.509C903.83 123.074 901.983 121.085 900.691 118.543C899.412 116 898.773 113.074 898.773 109.764C898.773 106.412 899.419 103.472 900.712 100.943C902.019 98.4006 903.872 96.419 906.273 94.9986C908.674 93.5639 911.529 92.8466 914.838 92.8466C917.693 92.8466 920.193 93.3651 922.338 94.402C924.483 95.4389 926.181 96.8949 927.431 98.7699C928.681 100.645 929.37 102.847 929.497 105.375H920.932C920.691 103.741 920.051 102.428 919.014 101.433C917.992 100.425 916.649 99.9205 914.988 99.9205C913.581 99.9205 912.353 100.304 911.301 101.071C910.264 101.824 909.455 102.925 908.872 104.374C908.29 105.822 907.999 107.577 907.999 109.636C907.999 111.724 908.283 113.5 908.851 114.963C909.434 116.426 910.25 117.541 911.301 118.308C912.353 119.075 913.581 119.459 914.988 119.459C916.024 119.459 916.955 119.246 917.779 118.82C918.617 118.393 919.306 117.776 919.845 116.966C920.399 116.142 920.762 115.155 920.932 114.004H929.497C929.355 116.504 928.674 118.706 927.452 120.609C926.245 122.499 924.576 123.976 922.445 125.041C920.314 126.107 917.793 126.639 914.881 126.639ZM947.986 107.08V126H938.909V82.3636H947.73V99.0469H948.113C948.852 97.1151 950.045 95.6023 951.693 94.5085C953.341 93.4006 955.407 92.8466 957.893 92.8466C960.166 92.8466 962.148 93.3438 963.838 94.3381C965.542 95.3182 966.863 96.7315 967.801 98.5781C968.753 100.411 969.221 102.605 969.207 105.162V126H960.13V106.781C960.145 104.764 959.633 103.195 958.596 102.072C957.574 100.95 956.139 100.389 954.292 100.389C953.057 100.389 951.963 100.652 951.011 101.178C950.074 101.703 949.335 102.47 948.795 103.479C948.27 104.473 948 105.673 947.986 107.08ZM989.027 107.08V126H979.95V93.2727H988.601V99.0469H988.984C989.709 97.1435 990.923 95.6378 992.628 94.5298C994.332 93.4077 996.399 92.8466 998.828 92.8466C1001.1 92.8466 1003.08 93.3438 1004.77 94.3381C1006.46 95.3324 1007.78 96.7528 1008.71 98.5994C1009.65 100.432 1010.12 102.619 1010.12 105.162V126H1001.04V106.781C1001.06 104.778 1000.55 103.216 999.51 102.094C998.473 100.957 997.045 100.389 995.227 100.389C994.006 100.389 992.926 100.652 991.989 101.178C991.065 101.703 990.341 102.47 989.815 103.479C989.304 104.473 989.041 105.673 989.027 107.08ZM1020.87 126V93.2727H1029.95V126H1020.87ZM1025.43 89.054C1024.08 89.054 1022.93 88.6065 1021.96 87.7116C1021.01 86.8026 1020.53 85.7159 1020.53 84.4517C1020.53 83.2017 1021.01 82.1293 1021.96 81.2344C1022.93 80.3253 1024.08 79.8707 1025.43 79.8707C1026.78 79.8707 1027.93 80.3253 1028.89 81.2344C1029.85 82.1293 1030.33 83.2017 1030.33 84.4517C1030.33 85.7159 1029.85 86.8026 1028.89 87.7116C1027.93 88.6065 1026.78 89.054 1025.43 89.054ZM1055.61 126.639C1052.26 126.639 1049.37 125.929 1046.96 124.509C1044.56 123.074 1042.71 121.085 1041.42 118.543C1040.14 116 1039.5 113.074 1039.5 109.764C1039.5 106.412 1040.15 103.472 1041.44 100.943C1042.75 98.4006 1044.6 96.419 1047 94.9986C1049.4 93.5639 1052.26 92.8466 1055.57 92.8466C1058.42 92.8466 1060.92 93.3651 1063.07 94.402C1065.21 95.4389 1066.91 96.8949 1068.16 98.7699C1069.41 100.645 1070.1 102.847 1070.23 105.375H1061.66C1061.42 103.741 1060.78 102.428 1059.74 101.433C1058.72 100.425 1057.38 99.9205 1055.72 99.9205C1054.31 99.9205 1053.08 100.304 1052.03 101.071C1050.99 101.824 1050.18 102.925 1049.6 104.374C1049.02 105.822 1048.73 107.577 1048.73 109.636C1048.73 111.724 1049.01 113.5 1049.58 114.963C1050.16 116.426 1050.98 117.541 1052.03 118.308C1053.08 119.075 1054.31 119.459 1055.72 119.459C1056.75 119.459 1057.68 119.246 1058.51 118.82C1059.34 118.393 1060.03 117.776 1060.57 116.966C1061.13 116.142 1061.49 115.155 1061.66 114.004H1070.23C1070.08 116.504 1069.4 118.706 1068.18 120.609C1066.97 122.499 1065.3 123.976 1063.17 125.041C1061.04 126.107 1058.52 126.639 1055.61 126.639ZM1088.97 126.618C1086.88 126.618 1085.02 126.256 1083.39 125.531C1081.75 124.793 1080.46 123.706 1079.51 122.271C1078.57 120.822 1078.1 119.018 1078.1 116.859C1078.1 115.041 1078.44 113.514 1079.1 112.278C1079.77 111.043 1080.68 110.048 1081.83 109.295C1082.98 108.543 1084.29 107.974 1085.75 107.591C1087.23 107.207 1088.78 106.938 1090.4 106.781C1092.3 106.582 1093.83 106.398 1095 106.227C1096.16 106.043 1097.01 105.773 1097.53 105.418C1098.06 105.062 1098.32 104.537 1098.32 103.841V103.713C1098.32 102.364 1097.9 101.32 1097.04 100.581C1096.21 99.8423 1095.01 99.473 1093.47 99.473C1091.83 99.473 1090.53 99.8352 1089.57 100.56C1088.6 101.27 1087.96 102.165 1087.65 103.244L1079.25 102.562C1079.68 100.574 1080.52 98.8551 1081.77 97.4062C1083.02 95.9432 1084.63 94.821 1086.6 94.0398C1088.59 93.2443 1090.89 92.8466 1093.51 92.8466C1095.33 92.8466 1097.07 93.0597 1098.73 93.4858C1100.4 93.9119 1101.89 94.5724 1103.18 95.4673C1104.49 96.3622 1105.52 97.5128 1106.27 98.919C1107.02 100.311 1107.4 101.98 1107.4 103.926V126H1098.79V121.462H1098.54C1098.01 122.484 1097.31 123.386 1096.43 124.168C1095.55 124.935 1094.49 125.538 1093.25 125.979C1092.02 126.405 1090.59 126.618 1088.97 126.618ZM1091.57 120.354C1092.9 120.354 1094.08 120.091 1095.11 119.565C1096.13 119.026 1096.93 118.301 1097.51 117.392C1098.1 116.483 1098.39 115.453 1098.39 114.303V110.83C1098.1 111.014 1097.71 111.185 1097.22 111.341C1096.73 111.483 1096.19 111.618 1095.57 111.746C1094.96 111.859 1094.35 111.966 1093.74 112.065C1093.13 112.151 1092.58 112.229 1092.08 112.3C1091.01 112.456 1090.08 112.705 1089.29 113.045C1088.49 113.386 1087.88 113.848 1087.44 114.43C1086.99 114.999 1086.77 115.709 1086.77 116.561C1086.77 117.797 1087.22 118.741 1088.12 119.395C1089.03 120.034 1090.18 120.354 1091.57 120.354ZM1127.12 82.3636V126H1118.04V82.3636H1127.12ZM1179.32 94.9134C1179.15 93.1946 1178.42 91.8594 1177.12 90.9077C1175.83 89.956 1174.08 89.4801 1171.86 89.4801C1170.36 89.4801 1169.08 89.6932 1168.05 90.1193C1167.01 90.5312 1166.21 91.1065 1165.66 91.8452C1165.12 92.5838 1164.85 93.4219 1164.85 94.3594C1164.82 95.1406 1164.99 95.8224 1165.34 96.4048C1165.71 96.9872 1166.21 97.4915 1166.85 97.9176C1167.49 98.3295 1168.23 98.6918 1169.07 99.0043C1169.91 99.3026 1170.8 99.5582 1171.75 99.7713L1175.67 100.709C1177.58 101.135 1179.33 101.703 1180.92 102.413C1182.51 103.124 1183.89 103.997 1185.05 105.034C1186.21 106.071 1187.12 107.293 1187.76 108.699C1188.41 110.105 1188.74 111.717 1188.76 113.536C1188.74 116.206 1188.06 118.521 1186.71 120.482C1185.38 122.428 1183.44 123.94 1180.92 125.02C1178.4 126.085 1175.37 126.618 1171.82 126.618C1168.3 126.618 1165.23 126.078 1162.61 124.999C1160.01 123.919 1157.98 122.321 1156.52 120.205C1155.07 118.074 1154.31 115.439 1154.24 112.3H1163.17C1163.27 113.763 1163.69 114.984 1164.42 115.964C1165.18 116.93 1166.18 117.662 1167.43 118.159C1168.69 118.642 1170.12 118.884 1171.71 118.884C1173.27 118.884 1174.63 118.656 1175.78 118.202C1176.95 117.747 1177.85 117.115 1178.49 116.305C1179.13 115.496 1179.45 114.565 1179.45 113.514C1179.45 112.534 1179.16 111.71 1178.57 111.043C1178 110.375 1177.17 109.807 1176.06 109.338C1174.96 108.869 1173.62 108.443 1172.03 108.06L1167.28 106.866C1163.6 105.972 1160.7 104.572 1158.57 102.669C1156.43 100.766 1155.38 98.2017 1155.39 94.9773C1155.38 92.3352 1156.08 90.027 1157.5 88.0526C1158.93 86.0781 1160.9 84.5369 1163.4 83.429C1165.9 82.321 1168.74 81.767 1171.92 81.767C1175.16 81.767 1177.99 82.321 1180.41 83.429C1182.83 84.5369 1184.72 86.0781 1186.07 88.0526C1187.42 90.027 1188.12 92.3139 1188.16 94.9134H1179.32ZM1213.18 126.639C1209.87 126.639 1207.01 125.936 1204.59 124.53C1202.19 123.109 1200.34 121.135 1199.03 118.607C1197.72 116.064 1197.07 113.116 1197.07 109.764C1197.07 106.384 1197.72 103.429 1199.03 100.901C1200.34 98.358 1202.19 96.3835 1204.59 94.9773C1207.01 93.5568 1209.87 92.8466 1213.18 92.8466C1216.49 92.8466 1219.34 93.5568 1221.74 94.9773C1224.16 96.3835 1226.02 98.358 1227.33 100.901C1228.63 103.429 1229.29 106.384 1229.29 109.764C1229.29 113.116 1228.63 116.064 1227.33 118.607C1226.02 121.135 1224.16 123.109 1221.74 124.53C1219.34 125.936 1216.49 126.639 1213.18 126.639ZM1213.22 119.608C1214.73 119.608 1215.98 119.182 1216.99 118.33C1218 117.463 1218.76 116.284 1219.27 114.793C1219.8 113.301 1220.06 111.604 1220.06 109.7C1220.06 107.797 1219.8 106.099 1219.27 104.608C1218.76 103.116 1218 101.937 1216.99 101.071C1215.98 100.205 1214.73 99.7713 1213.22 99.7713C1211.7 99.7713 1210.42 100.205 1209.39 101.071C1208.36 101.937 1207.59 103.116 1207.06 104.608C1206.55 106.099 1206.3 107.797 1206.3 109.7C1206.3 111.604 1206.55 113.301 1207.06 114.793C1207.59 116.284 1208.36 117.463 1209.39 118.33C1210.42 119.182 1211.7 119.608 1213.22 119.608ZM1247.87 82.3636V126H1238.79V82.3636H1247.87ZM1279.72 112.065V93.2727H1288.8V126H1280.09V120.055H1279.75C1279.01 121.973 1277.78 123.514 1276.06 124.679C1274.35 125.844 1272.27 126.426 1269.82 126.426C1267.63 126.426 1265.7 125.929 1264.04 124.935C1262.38 123.94 1261.08 122.527 1260.14 120.695C1259.22 118.862 1258.75 116.668 1258.74 114.111V93.2727H1267.81V112.491C1267.83 114.423 1268.35 115.95 1269.37 117.072C1270.39 118.195 1271.76 118.756 1273.48 118.756C1274.58 118.756 1275.6 118.507 1276.55 118.01C1277.5 117.499 1278.27 116.746 1278.85 115.751C1279.45 114.757 1279.74 113.528 1279.72 112.065ZM1317.07 93.2727V100.091H1297.36V93.2727H1317.07ZM1301.83 85.4318H1310.91V115.943C1310.91 116.781 1311.04 117.435 1311.29 117.903C1311.55 118.358 1311.91 118.678 1312.36 118.862C1312.83 119.047 1313.37 119.139 1313.98 119.139C1314.41 119.139 1314.83 119.104 1315.26 119.033C1315.68 118.947 1316.01 118.884 1316.24 118.841L1317.67 125.595C1317.21 125.737 1316.57 125.901 1315.75 126.085C1314.92 126.284 1313.92 126.405 1312.74 126.447C1310.56 126.533 1308.64 126.241 1306.99 125.574C1305.36 124.906 1304.09 123.869 1303.18 122.463C1302.27 121.057 1301.82 119.281 1301.83 117.136V85.4318ZM1326.58 126V93.2727H1335.66V126H1326.58ZM1331.14 89.054C1329.79 89.054 1328.63 88.6065 1327.67 87.7116C1326.72 86.8026 1326.24 85.7159 1326.24 84.4517C1326.24 83.2017 1326.72 82.1293 1327.67 81.2344C1328.63 80.3253 1329.79 79.8707 1331.14 79.8707C1332.49 79.8707 1333.64 80.3253 1334.59 81.2344C1335.56 82.1293 1336.04 83.2017 1336.04 84.4517C1336.04 85.7159 1335.56 86.8026 1334.59 87.7116C1333.64 88.6065 1332.49 89.054 1331.14 89.054ZM1361.32 126.639C1358.01 126.639 1355.14 125.936 1352.73 124.53C1350.33 123.109 1348.48 121.135 1347.17 118.607C1345.86 116.064 1345.21 113.116 1345.21 109.764C1345.21 106.384 1345.86 103.429 1347.17 100.901C1348.48 98.358 1350.33 96.3835 1352.73 94.9773C1355.14 93.5568 1358.01 92.8466 1361.32 92.8466C1364.63 92.8466 1367.48 93.5568 1369.88 94.9773C1372.3 96.3835 1374.16 98.358 1375.46 100.901C1376.77 103.429 1377.42 106.384 1377.42 109.764C1377.42 113.116 1376.77 116.064 1375.46 118.607C1374.16 121.135 1372.3 123.109 1369.88 124.53C1367.48 125.936 1364.63 126.639 1361.32 126.639ZM1361.36 119.608C1362.86 119.608 1364.12 119.182 1365.13 118.33C1366.14 117.463 1366.9 116.284 1367.41 114.793C1367.94 113.301 1368.2 111.604 1368.2 109.7C1368.2 107.797 1367.94 106.099 1367.41 104.608C1366.9 103.116 1366.14 101.937 1365.13 101.071C1364.12 100.205 1362.86 99.7713 1361.36 99.7713C1359.84 99.7713 1358.56 100.205 1357.52 101.071C1356.5 101.937 1355.73 103.116 1355.2 104.608C1354.69 106.099 1354.43 107.797 1354.43 109.7C1354.43 111.604 1354.69 113.301 1355.2 114.793C1355.73 116.284 1356.5 117.463 1357.52 118.33C1358.56 119.182 1359.84 119.608 1361.36 119.608ZM1396 107.08V126H1386.93V93.2727H1395.58V99.0469H1395.96C1396.68 97.1435 1397.9 95.6378 1399.6 94.5298C1401.31 93.4077 1403.37 92.8466 1405.8 92.8466C1408.08 92.8466 1410.06 93.3438 1411.75 94.3381C1413.44 95.3324 1414.75 96.7528 1415.69 98.5994C1416.63 100.432 1417.1 102.619 1417.1 105.162V126H1408.02V106.781C1408.03 104.778 1407.52 103.216 1406.49 102.094C1405.45 100.957 1404.02 100.389 1402.2 100.389C1400.98 100.389 1399.9 100.652 1398.96 101.178C1398.04 101.703 1397.32 102.47 1396.79 103.479C1396.28 104.473 1396.02 105.673 1396 107.08ZM1455.08 102.605L1446.77 103.116C1446.63 102.406 1446.32 101.767 1445.85 101.199C1445.39 100.616 1444.77 100.155 1444 99.8139C1443.25 99.4588 1442.35 99.2812 1441.29 99.2812C1439.89 99.2812 1438.7 99.5795 1437.74 100.176C1436.77 100.759 1436.29 101.54 1436.29 102.52C1436.29 103.301 1436.6 103.962 1437.23 104.501C1437.85 105.041 1438.92 105.474 1440.44 105.801L1446.37 106.994C1449.55 107.648 1451.92 108.699 1453.48 110.148C1455.04 111.597 1455.83 113.5 1455.83 115.858C1455.83 118.003 1455.19 119.885 1453.93 121.504C1452.68 123.124 1450.96 124.388 1448.77 125.297C1446.6 126.192 1444.09 126.639 1441.25 126.639C1436.92 126.639 1433.47 125.737 1430.9 123.933C1428.34 122.115 1426.84 119.643 1426.4 116.518L1435.33 116.05C1435.6 117.371 1436.25 118.379 1437.29 119.075C1438.33 119.757 1439.65 120.098 1441.27 120.098C1442.86 120.098 1444.14 119.793 1445.11 119.182C1446.09 118.557 1446.59 117.754 1446.6 116.774C1446.59 115.95 1446.24 115.276 1445.56 114.75C1444.87 114.21 1443.82 113.798 1442.4 113.514L1436.74 112.385C1433.54 111.746 1431.16 110.638 1429.6 109.061C1428.05 107.484 1427.28 105.474 1427.28 103.031C1427.28 100.929 1427.84 99.1179 1428.98 97.598C1430.13 96.0781 1431.74 94.9062 1433.82 94.0824C1435.9 93.2585 1438.35 92.8466 1441.15 92.8466C1445.28 92.8466 1448.53 93.7202 1450.9 95.4673C1453.29 97.2145 1454.68 99.5937 1455.08 102.605Z" fill="url(#paint11_linear_2112_2292)"/>
</g>
<defs>
<filter id="filter0_f_2112_2292" x="13.6001" y="3.7002" width="1556.8" height="388.6" filterUnits="userSpaceOnUse" color-interpolation-filters="sRGB">
<feFlood flood-opacity="0" result="BackgroundImageFix"/>
<feBlend mode="normal" in="SourceGraphic" in2="BackgroundImageFix" result="shape"/>
<feGaussianBlur stdDeviation="10" result="effect1_foregroundBlur_2112_2292"/>
</filter>
<clipPath id="bgblur_1_2112_2292_clip_path" transform="translate(-13.6001 -3.7002)"><path d="M648.984 176.695C650.922 176.695 652.493 175.027 652.493 172.97C652.493 170.913 650.922 169.245 648.984 169.245C647.046 169.245 645.475 170.913 645.475 172.97C645.475 175.027 647.046 176.695 648.984 176.695Z"/>
</clipPath><clipPath id="bgblur_2_2112_2292_clip_path" transform="translate(-13.6001 -3.7002)"><path d="M648.984 206.492C650.922 206.492 652.493 204.825 652.493 202.768C652.493 200.711 650.922 199.043 648.984 199.043C647.046 199.043 645.475 200.711 645.475 202.768C645.475 204.825 647.046 206.492 648.984 206.492Z"/>
</clipPath><clipPath id="bgblur_3_2112_2292_clip_path" transform="translate(-13.6001 -3.7002)"><path d="M620.911 221.391C622.849 221.391 624.42 219.723 624.42 217.666C624.42 215.609 622.849 213.941 620.911 213.941C618.973 213.941 617.402 215.609 617.402 217.666C617.402 219.723 618.973 221.391 620.911 221.391Z"/>
</clipPath><clipPath id="bgblur_4_2112_2292_clip_path" transform="translate(-13.6001 -3.7002)"><path d="M677.056 221.391C678.994 221.391 680.565 219.723 680.565 217.666C680.565 215.609 678.994 213.941 677.056 213.941C675.118 213.941 673.547 215.609 673.547 217.666C673.547 219.723 675.118 221.391 677.056 221.391Z"/>
</clipPath><clipPath id="bgblur_5_2112_2292_clip_path" transform="translate(-13.6001 -3.7002)"><path d="M792.5 215C796.09 215 799 212.09 799 208.5C799 204.91 796.09 202 792.5 202C788.91 202 786 204.91 786 208.5C786 212.09 788.91 215 792.5 215Z"/>
</clipPath><linearGradient id="paint0_linear_2112_2292" x1="0" y1="0" x2="1584" y2="0" gradientUnits="userSpaceOnUse">
<stop stop-color="#042A7E"/>
<stop offset="0.34"/>
<stop offset="0.66"/>
<stop offset="1" stop-color="#41015C"/>
</linearGradient>
<linearGradient id="paint1_linear_2112_2292" x1="39.6001" y1="29.7002" x2="1544.4" y2="29.7002" gradientUnits="userSpaceOnUse">
<stop stop-color="#00DBFF"/>
<stop offset="1" stop-color="#D000FF"/>
</linearGradient>
<linearGradient id="paint2_linear_2112_2292" x1="39.6001" y1="29.7002" x2="1544.4" y2="29.7002" gradientUnits="userSpaceOnUse">
<stop stop-color="#00DBFF"/>
<stop offset="1" stop-color="#D000FF"/>
</linearGradient>
<linearGradient id="paint3_linear_2112_2292" x1="792.12" y1="335.49" x2="792.12" y2="285" gradientUnits="userSpaceOnUse">
<stop stop-color="#666666"/>
<stop offset="1" stop-color="white"/>
</linearGradient>
<linearGradient id="paint4_linear_2112_2292" x1="645.475" y1="169.245" x2="652.911" y2="176.251" gradientUnits="userSpaceOnUse">
<stop stop-color="#00D2FF"/>
<stop offset="1" stop-color="#9D4EDD"/>
</linearGradient>
<linearGradient id="paint5_linear_2112_2292" x1="645.475" y1="199.043" x2="652.911" y2="206.049" gradientUnits="userSpaceOnUse">
<stop stop-color="#00D2FF"/>
<stop offset="1" stop-color="#9D4EDD"/>
</linearGradient>
<linearGradient id="paint6_linear_2112_2292" x1="617.402" y1="213.941" x2="624.839" y2="220.947" gradientUnits="userSpaceOnUse">
<stop stop-color="#00D2FF"/>
<stop offset="1" stop-color="#9D4EDD"/>
</linearGradient>
<linearGradient id="paint7_linear_2112_2292" x1="673.547" y1="213.941" x2="680.984" y2="220.947" gradientUnits="userSpaceOnUse">
<stop stop-color="#00D2FF"/>
<stop offset="1" stop-color="#9D4EDD"/>
</linearGradient>
<linearGradient id="paint8_linear_2112_2292" x1="620.89" y1="173.719" x2="661.219" y2="197.587" gradientUnits="userSpaceOnUse">
<stop stop-color="#00D2FF"/>
<stop offset="1" stop-color="#9D4EDD"/>
</linearGradient>
<linearGradient id="paint9_linear_2112_2292" x1="786" y1="202" x2="799" y2="215" gradientUnits="userSpaceOnUse">
<stop stop-color="#00D2FF"/>
<stop offset="1" stop-color="#9D4EDD"/>
</linearGradient>
<linearGradient id="paint10_linear_2112_2292" x1="418" y1="64" x2="418" y2="140" gradientUnits="userSpaceOnUse">
<stop stop-color="#A8E9FF"/>
<stop offset="1" stop-color="#3BCEFF"/>
</linearGradient>
<linearGradient id="paint11_linear_2112_2292" x1="1138" y1="68" x2="1138" y2="144" gradientUnits="userSpaceOnUse">
<stop stop-color="#DEA3FF"/>
<stop offset="1" stop-color="#C55CFF"/>
</linearGradient>
<clipPath id="clip0_2112_2292">
<rect width="1584" height="396" fill="white"/>
</clipPath>
</defs>
</svg>
